<?xml version="1.0" encoding="utf-8"?>
<!-- Generator: Adobe Illustrator 24.3.0, SVG Export Plug-In . SVG Version: 6.00 Build 0)  -->
<svg version="1.1" id="Layer_1" xmlns="http://www.w3.org/2000/svg" xmlns:xlink="http://www.w3.org/1999/xlink" x="0px" y="0px"
	 viewBox="0 0 1920 400" style="enable-background:new 0 0 1920 400;" xml:space="preserve">
<style type="text/css">
	.st0{fill:#DEF6FC;}
	.st1{fill:#8CBF62;}
	.st2{fill:#73AF4D;}
	.st3{fill:#FFFFFF;stroke:#000000;stroke-miterlimit:10;}
	.st4{fill:#FFB15E;}
	.st5{fill:none;stroke:#FFFF83;stroke-linecap:round;stroke-miterlimit:10;}
	.st6{opacity:0.2;clip-path:url(#XMLID_3_);fill:#D1597C;}
	.st7{fill:#7B727E;}
	.st8{fill:#4B3E4F;}
	.st9{clip-path:url(#XMLID_4_);fill:#5D5261;}
	.st10{fill:#6ABA73;}
	.st11{fill:#FFE06D;}
	.st12{fill:#FFFFFF;}
	.st13{fill:#C68863;}
	.st14{fill:#004A8B;}
	.st15{fill:#C9ADB4;}
	.st16{clip-path:url(#XMLID_5_);fill:#FF705F;}
	.st17{fill:#FFB25F;}
	.st18{fill:#36A29C;}
	.st19{fill:#C26D68;}
	.st20{fill:#BCB2C4;}
	.st21{opacity:0.2;clip-path:url(#XMLID_6_);fill:#D1597C;}
	.st22{fill:#CDE3FF;}
	.st23{fill:#FFBB35;}
	.st24{fill:#FFD637;}
	.st25{fill:#CED1EF;}
	.st26{fill:#B7BDE5;}
	.st27{fill:#B7BDE2;}
	.st28{fill:#609E51;}
	.st29{fill:#48823B;}
</style>
<path class="st0" d="M315.95,21.82c0,0-622.99,54.18-237.98,69.74c385,15.56,377.38,27.03,91.49,47.12s-1044.47,58.46-838.62,75.31
	S-413.78,248.55-997,270h3216V21.69L315.95,21.82z"/>
<path class="st1" d="M1319.02,248.43c-323.55-36-1253.75,23.85-1392.98,40.15c-52.2,5.38-89.7,33.09-67.92,39.94
	c77.32,24.3,98.37,17.64,133.35,39.49L1923,380.87V236.99C1923,236.99,1644.28,284.62,1319.02,248.43z"/>
<path class="st2" d="M5.69,394.91c0.44,0.03,148.72-6.02,149.16-6.02c55.05-1.21,138.2-11.67,237.17-12.04
	c284.9-1.06,367.72,17.05,595.16,18.05c278.1,1.22,282.82-20.82,535.5-19.06c205.87,1.44,372.66,11.27,478.81,19.06
	c11.05-0.02,17.55-2.57,19.89-4.17c10.28-7.04,4.39-22.21,4.39-39.51v0c0-15.27-12-29.38-31.52-37.18
	c-61.28-24.5-209.48-66.4-422.95-14.6c-100.4,24.36-338.91,35.31-604.13,42.08C779.86,346.32-59.2,150.82-175.32,250.48
	c-25.96,22.28,35.33,56.29,72.12,93.28C-91.3,355.71-46.52,391.9,5.69,394.91z"/>
<path class="st3" d="M318.59,466.87"/>
<path class="st3" d="M319.01-328"/>
<g>
	<g>
		<path class="st4" d="M244.81,331.28c0,0,15.06-45.18,2.51-52.71c-12.55-7.53-15.06,22.59-15.06,22.59s4.18-53.55-9.2-56.05
			c-13.39-2.51-10.04,47.69-10.04,47.69s-12.55-26.77-27.61-10.88s13.39,50.2,13.39,50.2L244.81,331.28z"/>
		<path class="st5" d="M222.56,257.73c-3.21,16.37,2.08,33.1,2.94,49.76c0.61,11.78-1.04,23.67-4.82,34.84"/>
		<path class="st5" d="M243.96,287.68c-1.55,3.97-0.89,8.39-0.78,12.65c0.12,4.75-0.48,9.49-1.08,14.2
			c-0.64,5.07-1.37,10.36-4.25,14.58c-4.38,6.42-12.67,8.88-18.24,14.3"/>
		<path class="st5" d="M194.75,288.08c4.14,10.86,13.02,19.26,17.99,29.77c2.47,5.23,3.92,10.89,5,16.58
			c0.67,3.52,1.45,7.47,4.43,9.45"/>
		<path class="st5" d="M200.93,299.53c0.54-0.39,0.78-1.05,0.99-1.68c0.82-2.49,1.48-5.03,1.97-7.6"/>
		<path class="st5" d="M206.46,307.07c0.46-2.91,0.91-5.81,1.37-8.72"/>
		<path class="st5" d="M212.16,316.72c0.04-2.67-0.05-5.34-0.28-8"/>
		<path class="st5" d="M209.49,311.99c-3.15,0.77-6.36,1.24-9.6,1.4"/>
		<path class="st5" d="M198.99,296.67c-2.02-0.14-4.03-0.28-6.05-0.43c-0.09-0.01-0.19-0.03-0.21-0.11
			c-0.02-0.08,0.16-0.1,0.13-0.02"/>
		<path class="st5" d="M217.65,262.65c1.36,1.33,2.56,2.81,3.59,4.41"/>
		<path class="st5" d="M222.14,274.34c1.28-1.76,2.68-3.44,4.17-5.02"/>
		<path class="st5" d="M222.73,284.95c-1.98-0.51-3.93-1.19-5.8-2.02"/>
		<path class="st5" d="M224.75,296.03c1.38-2.51,2.85-4.97,4.39-7.38"/>
		<path class="st5" d="M225.24,304.56c-1.35-0.28-2.65-0.79-3.84-1.49c-0.76-0.45-1.51-0.99-2.39-1.08"/>
		<path class="st5" d="M243.19,304.99c-1.51-0.79-2.91-1.78-4.17-2.93"/>
		<path class="st5" d="M242.81,310.76c1.52-0.99,2.98-2.07,4.37-3.23"/>
		<path class="st5" d="M241.81,317.8c-1.26-0.97-2.52-1.94-3.78-2.91"/>
		<path class="st5" d="M243.32,296.26c0.84-0.55,1.67-1.1,2.51-1.64"/>
	</g>
	<g>
		<defs>
			<path id="XMLID_20_" d="M75.77,333.28c-8.03,7.11,54.5,4.92,81.51,8.79c-4.63,2.92-4.4,6.36-2.41,6.73
				c19.52,4.03,39.71,2.69,59.59,1.18c56.8-4.29,113.27-1.06,169.85-7.65c7.34-2.07,3.02-9.68-6.69-12.17
				c-15.92-4.09-37.56-3.51-53.96-2.54c2.92-2,19.54-2.35,19.44-5.34c-0.68-4.13-23.59-5.52-36.44-4.6
				c-12.29,0.88-28.08,1.29-40.4,1.03c-25.15-0.53-50.32-0.23-75.45,0.91c-22.38,1.01-45.05,4.53-67.42,3.36
				C105.51,322.04,89.95,320.44,75.77,333.28z"/>
		</defs>
		<use xlink:href="#XMLID_20_"  style="overflow:visible;fill:#DAA59C;"/>
		<clipPath id="XMLID_3_">
			<use xlink:href="#XMLID_20_"  style="overflow:visible;"/>
		</clipPath>
		<path class="st6" d="M58.14,341c18.3,9.13,41.37,7.88,58.58-3.16c7.75-4.97,14.27-11.7,22.04-16.65
			c19.84-12.63,46.44-12,67.44-1.4c-17.26-0.24-34.55,1.63-51.35,5.58c-12.85,3.01-27.31,9.16-30.42,21.99
			c-0.73,3.01-0.63,6.49,1.39,8.84c4.02,4.69,11.5,1.75,17.67,1.51c15.93-0.64,27.69,19.04,43.54,17.32
			c6.97-0.75,12.82-5.67,17.14-11.2c4.32-5.52,7.58-11.84,12.15-17.16c10.41-12.13,26.86-17.95,42.85-18.12
			c15.99-0.17,31.63,4.75,46.28,11.15c7.71,3.37,15.6,7.46,20.24,14.48c1.82,2.75,2.09,7.76-1.19,8.09
			c-0.87,0.09-1.73-0.25-2.51-0.65c-4.29-2.19-7.35-6.12-10.72-9.55c-9.93-10.09-23.62-16.4-37.74-17.39
			c-14.12-0.99-28.56,3.34-39.8,11.95c-3.74,2.86-7.44,7.16-6.28,11.72c1.01,3.96,5.21,6.09,8.96,7.71
			c16.21,7.03,32.53,14.1,49.75,18.07c17.22,3.97,35.57,4.7,52.34-0.88c5.27-1.76,10.47-4.2,14.35-8.18
			c3.88-3.98,6.28-9.71,5.2-15.16c-1.92-9.69-12.84-14.16-22.05-17.72c-11.38-4.41-22.36-9.84-32.76-16.21
			c-3.66-2.24-7.46-4.86-8.98-8.87c-1.73-4.58,0.11-9.96,3.57-13.42c3.46-3.47,8.24-5.29,13.03-6.32
			c-2.44,7.43-10.65,13.9-8.02,21.27c1.67,4.69,6.99,6.77,11.65,8.53c10.32,3.9,20.22,8.92,29.46,14.96
			c5.2,3.39,10.33,7.26,13.47,12.61c3.14,5.35,3.88,12.53,0.33,17.62"/>
	</g>
	<g>
		<path class="st7" d="M183.56,196.86c-2.01,1.55-10.99,49.75-10.99,49.75l13.69,1.06c0,0,9.37-38.92,8.54-44.11
			C193.97,198.37,187,194.2,183.56,196.86z"/>
		<path class="st8" d="M210.9,147.07l7.83,86.11c0,0,5.65,0.87,5.65-0.43s-6.09-83.94-6.09-83.94"/>
		<polyline class="st8" points="232.21,148.81 241.78,235.35 247.87,236.22 241.35,150.55 		"/>
		<g>
			<defs>
				<path id="XMLID_18_" d="M248.31,227.09c1.47,7.55,5.34,52.51,0.29,58.17c-5.05,5.66-190.98,8.4-196.03-2.91
					c-5.05-11.31-4.67-53.33,0.49-60.21c4.89-6.52,71.4-17.65,73.48-15.49c1.83,1.9,3.65,20.18,4.78,26.09
					C131.72,234.88,245.26,211.43,248.31,227.09z"/>
			</defs>
			<use xlink:href="#XMLID_18_"  style="overflow:visible;fill:#7CCE81;"/>
			<clipPath id="XMLID_4_">
				<use xlink:href="#XMLID_18_"  style="overflow:visible;"/>
			</clipPath>
			<polygon class="st9" points="92.12,295.88 187.91,295.88 186.85,267.45 122.64,269.56 119.48,254.82 64.75,254.82 64.75,206.4 
				35.27,211.66 23.69,291.66 			"/>
		</g>
		<polygon class="st10" points="142.79,261.51 143.51,299.76 167.75,299.04 167.75,293.54 148.51,293.54 148.51,261.51 		"/>
		<polygon class="st10" points="142.79,258.45 143.51,284.96 167.75,284.25 167.75,278.75 148.51,278.75 148.51,258.45 		"/>
		<path class="st10" d="M152.84,261.02c0,0,15.76-45.3,70.57-44.07c54.81,1.22,60.29,45.91,60.29,45.91s-19.87-37.95-60.98-36.11
			C181.62,228.58,152.84,261.02,152.84,261.02z"/>
		<g>
			<path class="st8" d="M274.62,288.08l4.34-1.16l-3.16-14.74l-5.47-1c-0.7-1.6-1.47-3.15-2.31-4.67l4.63-4.34l-8.95-8.42
				l-5.03,0.48c-1.29-1.27-2.65-2.48-4.07-3.62l1.73-3.7l-12.63-7.37l-4.03,2.55c-1.94-0.73-3.93-1.34-5.97-1.85v-5.44l-17.37-1.58
				l-2.44,5.86c-1.84,0.23-3.66,0.55-5.44,0.96l-2.12-4.72l-15.79,5.79l1.57,5.66c-0.73,0.45-1.44,0.92-2.15,1.41l-5.21-3.91
				L173.7,256.4l3.76,3.76c-0.54,0.71-1.07,1.44-1.57,2.18l-7.45-0.68l-6.32,16.84l4.93,6.47c-0.21,1.44-0.36,2.89-0.45,4.36
				l-5.53-0.31l2.11,16.32l5.44,2.58c0.42,1.44,0.89,2.86,1.42,4.25l-4.76,3.17l7.89,12.11l5.04-0.94c0.7,0.88,1.42,1.75,2.18,2.59
				l-1.95,5.2l11.58,10l4.83-3.79c0.9,0.49,1.81,0.94,2.74,1.38l0.33,5.57l20,3.68l3.43-4.12c0.85-0.01,1.7-0.04,2.54-0.09l1.4,4.2
				l14.74-2.11l1.06-5.98c1.07-0.43,2.12-0.89,3.15-1.39l5.27,3.16l10.53-9.47l-1.75-3.5c0.94-0.91,1.85-1.84,2.72-2.81h5.87
				l5.79-8.95l-2.11-6.03c0.56-1.31,1.06-2.66,1.51-4.02l3.76,0.58l2.63-14.21l-3.59-3.59
				C274.84,291.22,274.76,289.64,274.62,288.08z"/>
			
				<ellipse transform="matrix(0.9239 -0.3827 0.3827 0.9239 -94.9491 107.0416)" class="st7" cx="221.59" cy="292.19" rx="31.58" ry="31.58"/>
			<circle class="st11" cx="221.59" cy="292.19" r="26.79"/>
			<circle class="st12" cx="221.59" cy="292.19" r="12.2"/>
		</g>
		<g>
			<path class="st8" d="M112.03,302.75l2.75-0.73l-2-9.34l-3.47-0.63c-0.44-1.01-0.93-2-1.47-2.96l2.93-2.75l-5.67-5.34l-3.19,0.3
				c-0.82-0.81-1.68-1.57-2.58-2.29l1.1-2.35l-8.01-4.67l-2.55,1.61c-1.23-0.46-2.49-0.85-3.78-1.17v-3.45l-11.01-1l-1.55,3.72
				c-1.17,0.15-2.32,0.35-3.45,0.61l-1.35-2.99l-10.01,3.67l1,3.59c-0.46,0.29-0.92,0.58-1.36,0.89l-3.3-2.48l-7.01,7.67l2.38,2.38
				c-0.34,0.45-0.68,0.91-1,1.38L44.71,286l-4,10.68l3.13,4.1c-0.13,0.91-0.23,1.83-0.29,2.77l-3.51-0.19l1.33,10.34l3.45,1.63
				c0.26,0.91,0.56,1.81,0.9,2.69l-3.02,2.01l5,7.67l3.19-0.6c0.44,0.56,0.9,1.11,1.38,1.64l-1.24,3.3l7.34,6.34l3.06-2.4
				c0.57,0.31,1.15,0.6,1.74,0.87l0.21,3.53l12.68,2.34l2.17-2.61c0.54-0.01,1.08-0.02,1.61-0.05l0.89,2.66l9.34-1.33l0.67-3.79
				c0.68-0.27,1.34-0.56,2-0.88l3.34,2l6.67-6.01l-1.11-2.22c0.6-0.57,1.17-1.17,1.73-1.78h3.72l3.67-5.67l-1.34-3.82
				c0.35-0.83,0.67-1.69,0.96-2.55l2.38,0.37l1.67-9.01l-2.28-2.28C112.17,304.73,112.12,303.73,112.03,302.75z"/>
			<circle class="st7" cx="78.41" cy="305.35" r="20.02"/>
			<circle class="st11" cx="78.41" cy="305.35" r="16.98"/>
			<circle class="st12" cx="78.41" cy="305.35" r="7.73"/>
		</g>
		<path class="st8" d="M139.58,140.11c0,0-15.66,76.11,0.43,129.6c-8.26,0-8.26,0-8.26,0s-15.22-66.11,0.87-128.3"/>
		<path class="st10" d="M246.13,153.59l-117.86-12.18c0,0,3.48-9.13,9.13-8.26c5.65,0.87,106.55,11.74,106.55,11.74L246.13,153.59z"
			/>
		<path class="st8" d="M116.96,190.12c-0.87,1.3-2.17,14.35,0.87,16.96c3.04,2.61,10-0.87,10-0.87l-0.87-15.66L116.96,190.12z"/>
		<path class="st8" d="M103.92,220.13l1.3-45.67L100,173.6c0,0-3.48,50.45-1.3,53.93c2.17,3.48,11.74,0,11.74,0v-7.39H103.92z"/>
		<polyline class="st8" points="131.31,220.57 143.49,210.56 145.67,214.04 132.62,226.66 		"/>
		<polygon class="st8" points="138.27,206.22 150.02,222.31 153.93,220.13 141.75,202.74 		"/>
		<path class="st7" d="M187.08,176.6c-1.7,3.91-3.54,12.86-2.75,15.26c0.79,2.4,9.4,5.5,11.32,3.84c1.91-1.66,4.03-11.99,3.42-15.07
			C198.47,177.55,189.06,172.05,187.08,176.6z"/>
		<polygon class="st8" points="81.94,228.86 74.92,247.8 79.13,248.51 86.15,230.26 		"/>
		<polygon class="st8" points="91.06,228.86 84.05,247.8 88.26,248.51 95.27,230.26 		"/>
	</g>
	<g>
		<path class="st13" d="M351.35,235.69c0,0,8.4,14.64,8.4,18.82c0,4.18-15.93,20.08-15.93,20.08l1.19-10.33l7.18-10.59l-6.69-12.55"
			/>
		<path class="st13" d="M310.4,239.27l-1.8,16.11c0,0-9.81,10.65-11.49,11.49c-3.35-0.42-5.98,2.57-5.15,4.25
			c0.84,1.67,2.39,6.16,4.06,6.16s3.07-4.95,3.07-4.95l16.73-12.13l2.93-18.41"/>
		<path d="M321.95,211.42c0,0-5.27-3.01-2.26-7.72C322.7,199,321.95,211.42,321.95,211.42z"/>
		<g>
			<path class="st13" d="M313.86,317.39l1.06,13.07c0,0-7.42,3.53-7.77,4.94c-0.35,1.41,15.19,0,15.19,0l1.06-17.31"/>
			<path class="st13" d="M343.87,317.39l-1.06,13.07c0,0,7.42,3.53,7.77,4.94c0.35,1.41-15.19,0-15.19,0l-1.06-17.31"/>
			<path class="st14" d="M346.36,265.37c-0.05-1.11-0.12,13.78-0.12,28c0,11.27,1.14,24.51-1.52,26.55
				c-2.66,2.04-11.44,3.47-13.08-1.84c-1.63-5.31-1.63-39.23-1.63-39.23l-1.23,0.41c0,0-0.41,36.98-2.66,39.64
				c-2.25,2.66-12.06,2.45-13.9-1.23c-1.84-3.68-0.15-35.31,2.87-54.34C326.74,261.28,346.36,265.37,346.36,265.37z"/>
			<path class="st15" d="M332.75,224.31c15.01,1.86,21.7,6.43,23.53,16.11c-4.13,1.42-10.78,2.33-10.84,2.82l1.11,22.74
				c0,0-22.29,4.18-31.79-1.77c0.63-7.09,0.66-20.34,0.66-20.34l-7.53-4.18C307.89,239.69,313.89,221.97,332.75,224.31z"/>
			<path class="st13" d="M335.46,217.07c-2.47,4.69-1.87,3.32-6.88,3.32c-5.47,0-9.12-4.6-9.04-8.66c0.04-2.08-0.03-7.5,1.39-8.99
				C325.83,197.61,343.77,201.27,335.46,217.07z"/>
			<path class="st13" d="M335.9,214.45l1.55,9.34l1.25,3.32c0,0-4.02,7.27-8.9,9.73c-3.94-2.25-5.01-10.36-5.01-10.36l1.91-3.1
				l0.61-6.69"/>
		</g>
		<path d="M319.39,206.02c0,0,4-0.55,6.21-2.9c-0.97,2.76-1.24,3.31-1.24,3.31s4.14-0.83,6.07-2.35c1.66,0.97,3.17,2.07,3.17,2.07
			s4.08-3.92-4.07-5.03C321.4,200.03,319.53,203.26,319.39,206.02z"/>
		<g>
			<defs>
				<path id="XMLID_19_" d="M320.62,199.02c0,0,1.15-6.51,5.17-7.47c4.02-0.96,12.26,2.49,13.41,4.98s-0.38,7.85-0.38,7.85"/>
			</defs>
			<use xlink:href="#XMLID_19_"  style="overflow:visible;fill:#FFB25F;"/>
			<clipPath id="XMLID_5_">
				<use xlink:href="#XMLID_19_"  style="overflow:visible;"/>
			</clipPath>
			<path class="st16" d="M316.98,200.74c0,0,5.17-8.04,14.75-5.17c9.58,2.87,9.58,9.39,9.58,9.39L316.98,200.74z"/>
		</g>
		<path class="st17" d="M319.47,204.1c0,0,3.26-3.75,9.49-2.33c6.22,1.41,8.43,7.34,8.43,7.34s6.08,0.57,7.21-1.27
			c1.13-1.84-6.65-8.77-16.55-10.19c-9.9-1.41-14.4,1.14-14.85,3.25C312.69,203.3,319.47,204.1,319.47,204.1z"/>
		<path class="st13" d="M335.39,208.58c0,0-0.09-3.24,2.19-2.92c2.28,0.33,2.93,6.84-1.3,6.52"/>
		<path class="st18" d="M318.9,226.43c0,0-5.13,9.14-6.02,24.74c-0.72,12.53,0.72,19.62,0.72,19.62s6.84-6.03,6.48-13.68
			c-0.78-16.88,3.27-32.69,3.27-32.69S321.41,224.76,318.9,226.43z"/>
		<path class="st18" d="M340.22,225.15c0,0,3.86-0.41,4.69,2.21c0.83,2.62,4.69,38.46,1.52,43.42c-4.55,0-7.42-9.49-7.69-14.31
			C338.45,251.64,340.22,225.15,340.22,225.15z"/>
		<path class="st19" d="M303.69,328.64l-18.81-96.48l3.35-1.25l19.38,98.53c0.15,0.75-0.43,1.45-1.19,1.45l0,0
			C305.08,330.88,303.94,329.94,303.69,328.64z"/>
		<path class="st20" d="M271.2,210.61c0,0,4.83,18.57,5.57,21.35c0.74,2.78,19.31-0.56,18.75-4.08c-0.56-3.53-4.83-22.28-4.83-22.28
			l-0.79,0.43l3.39,19.62l-3.9,2.23l-4.99-20.73l-0.45,0.06l3.96,20.85l-4.64,1.09l-4.59-21.1l-0.56,0.11l3.48,21.2h-3.9
			l-5.76-18.79L271.2,210.61z"/>
		<path class="st13" d="M290.61,268.09c0,0,0.3,7.26,1.97,8.47s2.87-1.97,2.57-4.08C294.85,270.35,293.03,265.82,290.61,268.09z"/>
	</g>
	<g>
		<defs>
			<path id="XMLID_1_" d="M365.01,329.5c-15.18,13.44,102.98,9.29,154.03,16.61c-8.74,5.51-8.31,12.02-4.56,12.71
				c36.89,7.62,75.04,5.08,112.6,2.24c107.32-8.11,214.04-2.01,320.95-14.45c13.88-3.9,5.7-18.29-12.63-23
				c-30.08-7.74-70.97-6.62-101.97-4.8c5.52-3.78,36.92-4.44,36.73-10.09c-1.29-7.81-44.57-10.43-68.85-8.7
				c-23.22,1.66-53.07,2.43-76.35,1.94c-47.53-1-95.09-0.43-142.58,1.71c-42.29,1.91-85.13,8.56-127.39,6.36
				C421.21,308.26,391.79,305.25,365.01,329.5z"/>
		</defs>
		<use xlink:href="#XMLID_1_"  style="overflow:visible;fill:#DAA59C;"/>
		<clipPath id="XMLID_6_">
			<use xlink:href="#XMLID_1_"  style="overflow:visible;"/>
		</clipPath>
		<path class="st21" d="M331.68,344.1c34.59,17.25,78.17,14.89,110.7-5.98c14.65-9.4,26.96-22.1,41.64-31.45
			c37.49-23.87,87.76-22.67,127.44-2.65c-32.61-0.46-65.28,3.09-97.04,10.54c-24.28,5.69-51.61,17.31-57.47,41.55
			c-1.38,5.7-1.19,12.27,2.63,16.71c7.6,8.86,21.72,3.31,33.39,2.85c30.11-1.21,52.32,35.97,82.28,32.73
			c13.18-1.42,24.23-10.72,32.4-21.15c8.17-10.44,14.33-22.37,22.96-32.43c19.67-22.93,50.76-33.91,80.97-34.23
			c30.21-0.32,59.76,8.98,87.45,21.07c14.57,6.37,29.47,14.1,38.25,27.37c3.43,5.19,3.94,14.66-2.25,15.29
			c-1.65,0.17-3.27-0.48-4.74-1.23c-8.1-4.13-13.89-11.56-20.26-18.04c-18.76-19.07-44.63-30.99-71.32-32.87
			c-26.69-1.87-53.97,6.31-75.21,22.58c-7.06,5.4-14.07,13.54-11.86,22.15c1.92,7.49,9.84,11.5,16.94,14.58
			c30.63,13.28,61.48,26.64,94.02,34.14c32.54,7.5,67.22,8.88,98.9-1.67c9.97-3.32,19.78-7.95,27.12-15.46
			c7.34-7.52,11.87-18.35,9.83-28.65c-3.62-18.3-24.26-26.75-41.66-33.48c-21.5-8.32-42.24-18.59-61.9-30.63
			c-6.91-4.24-14.11-9.19-16.98-16.77c-3.28-8.65,0.21-18.82,6.74-25.36c6.53-6.55,15.57-9.99,24.62-11.94
			c-4.6,14.05-20.12,26.27-15.16,40.19c3.16,8.87,13.22,12.8,22.02,16.12c19.51,7.37,38.21,16.86,55.67,28.26
			c9.82,6.41,19.52,13.72,25.46,23.83c5.94,10.12,7.33,23.68,0.62,33.3"/>
	</g>
</g>
<path class="st22" d="M1079.27,74.12c-6.31,1.26-71.38,1.09-91.12,0.74c-7.62-0.35-6.2-15.98,3.08-19.29
	c9.28-3.31,15.39-1.76,15.39-1.76s0.92-21.42,18.85-19.05c17.93,2.37,20.73,18.97,20.73,18.97s10.46-12.28,24.06-4.55
	C1083.85,56.91,1079.27,74.12,1079.27,74.12z"/>
<g>
	<path class="st23" d="M1681.95,91.04c0,5.65-8.73,10.08-10.13,15.3c-1.44,5.39,3.86,13.59,1.13,18.31
		c-2.77,4.79-12.54,4.28-16.43,8.16c-3.89,3.89-3.37,13.66-8.16,16.43c-4.72,2.73-12.92-2.57-18.31-1.13
		c-5.21,1.39-9.64,10.13-15.3,10.13c-5.65,0-10.08-8.73-15.3-10.13c-5.39-1.44-13.59,3.86-18.31,1.13
		c-4.79-2.77-4.27-12.54-8.16-16.43c-3.89-3.89-13.66-3.37-16.43-8.16c-2.73-4.72,2.57-12.92,1.13-18.31
		c-1.4-5.21-10.13-9.64-10.13-15.3c0-5.65,8.73-10.08,10.13-15.3c1.44-5.39-3.86-13.59-1.13-18.31c2.77-4.79,12.54-4.27,16.43-8.16
		c3.89-3.89,3.37-13.66,8.16-16.43c4.72-2.73,12.92,2.57,18.31,1.13c5.21-1.39,9.64-10.12,15.3-10.12c5.65,0,10.08,8.73,15.3,10.13
		c5.39,1.44,13.59-3.86,18.31-1.13c4.79,2.77,4.28,12.54,8.16,16.43c3.89,3.89,13.66,3.37,16.44,8.16
		c2.73,4.72-2.57,12.92-1.13,18.31C1673.22,80.96,1681.95,85.39,1681.95,91.04z"/>
	<circle class="st24" cx="1614.75" cy="91.04" r="57.14"/>
	<path class="st23" d="M1648.26,44.77c6.83,9.41,10.87,20.99,10.87,33.51c0,31.56-25.58,57.14-57.14,57.14
		c-12.52,0-24.09-4.04-33.51-10.87c10.38,14.31,27.24,23.63,46.27,23.63c31.56,0,57.14-25.58,57.14-57.14
		C1671.89,72.01,1662.57,55.15,1648.26,44.77z"/>
</g>
<path class="st22" d="M1796.6,58.9c-7.18,1.43-81.26,1.24-103.74,0.84c-8.68-0.39-7.06-18.19,3.5-21.96c10.56-3.77,17.52-2,17.52-2
	s1.05-24.39,21.46-21.68c20.41,2.7,23.61,21.59,23.61,21.59s11.91-13.98,27.4-5.18C1801.82,39.31,1796.6,58.9,1796.6,58.9z"/>
<path class="st2" d="M1712.05,499"/>
<g>
	<g>
		<g>
			<path class="st25" d="M1247.22,65.19L1247.22,65.19c-6.68-3.27-9.46-11.33-6.19-18.02l18.67-38.22l0,0
				C1267.49,19.95,1247.22,65.19,1247.22,65.19z"/>
			<path class="st26" d="M1261.23,13.17c-0.06-0.1-0.12-0.2-0.19-0.29l-18.67,38.22c-1.3,2.67-1.63,5.56-1.14,8.27
				c-1.93-3.67-2.16-8.18-0.2-12.19l18.67-38.22C1260.47,10.05,1260.97,11.48,1261.23,13.17z"/>
		</g>
		<g>
			<path class="st26" d="M1247.22,65.19L1247.22,65.19c2.67,6.94-0.8,14.74-7.75,17.4l-39.71,15.24l0,0
				C1201.56,84.48,1247.22,65.19,1247.22,65.19z"/>
			<path class="st25" d="M1201.51,93.71c-0.02,0.11-0.05,0.23-0.06,0.34l39.71-15.24c2.78-1.06,4.98-2.95,6.48-5.27
				c-1.09,4.01-3.99,7.46-8.16,9.06l-39.71,15.24C1199.94,96.51,1200.56,95.12,1201.51,93.71z"/>
		</g>
		<g>
			<polygon class="st25" points="1273.11,281.13 1260.06,281.13 1263.79,63.04 1269.38,63.04 			"/>
			<polygon class="st27" points="1269.38,63.04 1265.93,63.04 1269.66,281.13 1273.11,281.13 			"/>
			<path class="st27" d="M1273.11,281.13c0,1.61-2.92,2.91-6.53,2.91c-3.61,0-6.53-1.3-6.53-2.91c0-1.61,2.92-2.91,6.53-2.91
				C1270.19,278.22,1273.11,279.52,1273.11,281.13z"/>
		</g>
		<path class="st25" d="M1287.51,64.6c0,3.89-15.4,7.05-34.4,7.05c-19,0-34.4-3.15-34.4-7.05c0-3.89,15.4-7.05,34.4-7.05
			C1272.11,57.55,1287.51,60.71,1287.51,64.6z"/>
		<path class="st26" d="M1286.37,62.82c-3.85,3.03-17.26,5.27-33.25,5.27c-16,0-29.41-2.24-33.26-5.27
			c-0.72,0.57-1.15,1.16-1.15,1.78c0,3.89,15.4,7.05,34.4,7.05c19,0,34.4-3.15,34.4-7.05C1287.51,63.99,1287.09,63.39,1286.37,62.82
			z"/>
		<path class="st28" d="M1218.71,64.6c0,2.1,4.51,3.99,11.66,5.28c0.84-1.72,1.33-3.64,1.33-5.68c0-1.76-0.35-3.43-0.99-4.95
			C1223.37,60.55,1218.71,62.46,1218.71,64.6z"/>
		<path class="st29" d="M1219.09,65.58c0.12,0.17,0.23,0.33,0.4,0.5c0.09,0.09,0.22,0.18,0.33,0.26c0.19,0.15,0.37,0.3,0.6,0.44
			c0.14,0.09,0.31,0.17,0.47,0.26c0.25,0.14,0.51,0.28,0.81,0.41c0.18,0.08,0.38,0.17,0.58,0.25c0.32,0.13,0.65,0.27,1.01,0.39
			c0.22,0.08,0.45,0.15,0.68,0.23c0.39,0.13,0.79,0.25,1.22,0.37c0.25,0.07,0.5,0.14,0.76,0.21c0.46,0.12,0.94,0.24,1.43,0.35
			c0.27,0.06,0.54,0.12,0.81,0.18c0.53,0.11,1.08,0.22,1.64,0.33c0.18,0.03,0.36,0.07,0.54,0.1c0.51-1.05,0.87-2.18,1.09-3.36
			c-5.59-0.93-9.73-2.22-11.6-3.69c0,0-0.01,0.01-0.01,0.01c-0.17,0.13-0.31,0.26-0.45,0.4c-0.16,0.16-0.3,0.32-0.4,0.49
			c-0.05,0.07-0.08,0.15-0.11,0.23c-0.1,0.22-0.18,0.44-0.18,0.66c0,0.25,0.07,0.5,0.2,0.75
			C1218.95,65.43,1219.03,65.51,1219.09,65.58z"/>
		<g>
			<g>
				<path class="st25" d="M1247.22,65.19L1247.22,65.19c5.15-5.37,13.67-5.56,19.05-0.42l30.73,29.41l0,0
					C1284.15,98.26,1247.22,65.19,1247.22,65.19z"/>
				<path class="st26" d="M1292.52,94.37c0.11-0.03,0.23-0.05,0.33-0.09l-30.73-29.41c-2.15-2.05-4.8-3.24-7.53-3.61
					c4.09-0.72,8.45,0.43,11.68,3.52l30.73,29.41C1295.72,94.59,1294.21,94.63,1292.52,94.37z"/>
			</g>
		</g>
	</g>
	<g>
		<g>
			<path class="st25" d="M1320.94,104.54L1320.94,104.54c-5.23-2.55-7.4-8.86-4.84-14.09l14.6-29.89l0,0
				C1336.78,69.16,1320.94,104.54,1320.94,104.54z"/>
			<path class="st26" d="M1331.89,63.86c-0.05-0.08-0.09-0.15-0.14-0.23l-14.6,29.89c-1.02,2.09-1.27,4.35-0.89,6.47
				c-1.51-2.87-1.69-6.39-0.16-9.53l14.6-29.89C1331.3,61.42,1331.68,62.54,1331.89,63.86z"/>
		</g>
		<g>
			<path class="st26" d="M1320.94,104.54L1320.94,104.54c2.08,5.43-0.63,11.52-6.06,13.61l-31.05,11.92l0,0
				C1285.23,119.62,1320.94,104.54,1320.94,104.54z"/>
			<path class="st25" d="M1285.19,126.84c-0.02,0.09-0.04,0.18-0.05,0.27l31.05-11.92c2.17-0.83,3.89-2.31,5.06-4.12
				c-0.85,3.13-3.12,5.83-6.38,7.08l-31.05,11.92C1283.97,129.02,1284.45,127.94,1285.19,126.84z"/>
		</g>
		<g>
			<polygon class="st25" points="1341.18,281.76 1330.97,281.76 1333.89,102.86 1338.26,102.86 			"/>
			<polygon class="st27" points="1338.26,102.86 1334.15,102.86 1337.07,281.76 1341.18,281.76 			"/>
			<path class="st27" d="M1341.18,281.76c0,1.26-2.29,2.28-5.11,2.28c-2.82,0-5.1-1.02-5.1-2.28c0-1.26,2.29-2.28,5.1-2.28
				C1338.9,279.49,1341.18,280.51,1341.18,281.76z"/>
		</g>
		<path class="st25" d="M1352.44,104.07c0,3.04-12.04,5.51-26.9,5.51c-14.86,0-26.9-2.47-26.9-5.51c0-3.04,12.04-5.51,26.9-5.51
			C1340.4,98.56,1352.44,101.03,1352.44,104.07z"/>
		<path class="st26" d="M1351.55,102.68c-3.01,2.37-13.49,4.12-26,4.12s-22.99-1.75-26-4.12c-0.56,0.44-0.9,0.91-0.9,1.39
			c0,3.04,12.04,5.51,26.9,5.51c14.86,0,26.9-2.47,26.9-5.51C1352.44,103.59,1352.11,103.13,1351.55,102.68z"/>
		<path class="st28" d="M1298.64,104.07c0,1.65,3.53,3.12,9.11,4.13c0.66-1.34,1.04-2.84,1.04-4.44c0-1.37-0.28-2.68-0.77-3.87
			C1302.28,100.91,1298.64,102.4,1298.64,104.07z"/>
		<path class="st29" d="M1298.94,104.84c0.09,0.13,0.18,0.26,0.31,0.39c0.07,0.07,0.17,0.14,0.26,0.21
			c0.14,0.12,0.29,0.23,0.47,0.34c0.11,0.07,0.24,0.14,0.37,0.2c0.2,0.11,0.4,0.22,0.63,0.32c0.14,0.07,0.3,0.13,0.46,0.19
			c0.25,0.1,0.51,0.21,0.79,0.31c0.17,0.06,0.35,0.12,0.53,0.18c0.3,0.1,0.62,0.2,0.95,0.29c0.19,0.05,0.39,0.11,0.59,0.16
			c0.36,0.09,0.73,0.19,1.12,0.28c0.21,0.05,0.42,0.1,0.64,0.14c0.41,0.09,0.84,0.17,1.29,0.26c0.14,0.03,0.28,0.05,0.42,0.08
			c0.4-0.82,0.68-1.71,0.85-2.63c-4.37-0.73-7.61-1.73-9.07-2.88c0,0,0,0-0.01,0.01c-0.13,0.1-0.25,0.21-0.35,0.31
			c-0.12,0.13-0.23,0.25-0.31,0.38c-0.04,0.06-0.06,0.12-0.09,0.18c-0.08,0.17-0.14,0.34-0.14,0.52c0,0.2,0.06,0.39,0.16,0.59
			C1298.83,104.72,1298.89,104.78,1298.94,104.84z"/>
		<g>
			<g>
				<path class="st25" d="M1320.94,104.54L1320.94,104.54c4.02-4.2,10.69-4.35,14.89-0.32l24.03,23l0,0
					C1349.81,130.39,1320.94,104.54,1320.94,104.54z"/>
				<path class="st26" d="M1356.36,127.35c0.09-0.02,0.18-0.04,0.26-0.07l-24.03-23c-1.68-1.61-3.75-2.54-5.89-2.82
					c3.2-0.57,6.61,0.33,9.13,2.75l24.03,23C1358.86,127.53,1357.68,127.55,1356.36,127.35z"/>
			</g>
		</g>
	</g>
	<g>
		<g>
			<path class="st25" d="M1390.74,127.8L1390.74,127.8c-4.37-2.13-6.17-7.4-4.04-11.76l12.19-24.96l0,0
				C1403.97,98.26,1390.74,127.8,1390.74,127.8z"/>
			<path class="st26" d="M1399.88,93.83c-0.04-0.06-0.08-0.13-0.12-0.19l-12.19,24.96c-0.85,1.74-1.06,3.63-0.75,5.4
				c-1.26-2.4-1.41-5.34-0.13-7.96l12.19-24.96C1399.39,91.8,1399.71,92.73,1399.88,93.83z"/>
		</g>
		<g>
			<path class="st26" d="M1390.74,127.8L1390.74,127.8c1.74,4.54-0.53,9.62-5.06,11.36l-25.93,9.95l0,0
				C1360.92,140.4,1390.74,127.8,1390.74,127.8z"/>
			<path class="st25" d="M1360.89,146.43c-0.01,0.07-0.03,0.15-0.04,0.22l25.93-9.95c1.81-0.69,3.25-1.93,4.23-3.44
				c-0.71,2.62-2.61,4.87-5.33,5.92l-25.93,9.95C1359.86,148.25,1360.26,147.35,1360.89,146.43z"/>
		</g>
		<g>
			<polygon class="st25" points="1407.64,282.14 1399.11,282.14 1401.55,126.4 1405.2,126.4 			"/>
			<polygon class="st27" points="1405.2,126.4 1402.55,126.4 1404.99,282.14 1407.64,282.14 			"/>
			<path class="st27" d="M1407.64,282.14c0,1.05-1.91,1.9-4.26,1.9c-2.36,0-4.26-0.85-4.26-1.9c0-1.05,1.91-1.9,4.26-1.9
				C1405.73,280.24,1407.64,281.09,1407.64,282.14z"/>
		</g>
		<path class="st25" d="M1417.04,127.42c0,2.54-10.06,4.6-22.46,4.6c-12.41,0-22.46-2.06-22.46-4.6c0-2.54,10.06-4.6,22.46-4.6
			C1406.99,122.82,1417.04,124.88,1417.04,127.42z"/>
		<path class="st26" d="M1416.3,126.26c-2.51,1.98-11.27,3.44-21.71,3.44c-10.45,0-19.2-1.46-21.72-3.44
			c-0.47,0.37-0.75,0.76-0.75,1.16c0,2.54,10.06,4.6,22.46,4.6c12.41,0,22.46-2.06,22.46-4.6
			C1417.04,127.02,1416.77,126.63,1416.3,126.26z"/>
		<path class="st28" d="M1372.12,127.42c0,1.37,2.95,2.61,7.61,3.45c0.55-1.12,0.86-2.37,0.86-3.71c0-1.15-0.23-2.24-0.64-3.23
			C1375.16,124.77,1372.12,126.02,1372.12,127.42z"/>
		<path class="st29" d="M1372.36,128.06c0.07,0.11,0.15,0.22,0.26,0.32c0.06,0.06,0.14,0.12,0.22,0.17c0.12,0.1,0.24,0.19,0.39,0.29
			c0.09,0.06,0.2,0.11,0.31,0.17c0.16,0.09,0.33,0.18,0.53,0.27c0.12,0.05,0.25,0.11,0.38,0.16c0.21,0.09,0.43,0.17,0.66,0.26
			c0.14,0.05,0.29,0.1,0.44,0.15c0.26,0.08,0.52,0.16,0.8,0.24c0.16,0.05,0.32,0.09,0.49,0.14c0.3,0.08,0.61,0.16,0.94,0.23
			c0.18,0.04,0.35,0.08,0.53,0.12c0.35,0.07,0.7,0.15,1.07,0.21c0.12,0.02,0.23,0.04,0.35,0.07c0.33-0.68,0.57-1.42,0.71-2.2
			c-3.65-0.61-6.35-1.45-7.58-2.41c0,0,0,0-0.01,0c-0.11,0.09-0.21,0.17-0.29,0.26c-0.1,0.1-0.19,0.21-0.26,0.32
			c-0.03,0.05-0.05,0.1-0.07,0.15c-0.07,0.14-0.12,0.28-0.12,0.43c0,0.17,0.05,0.33,0.13,0.49
			C1372.28,127.96,1372.33,128.01,1372.36,128.06z"/>
		<g>
			<g>
				<path class="st25" d="M1390.74,127.8L1390.74,127.8c3.36-3.51,8.93-3.63,12.44-0.27l20.06,19.21l0,0
					C1414.85,149.4,1390.74,127.8,1390.74,127.8z"/>
				<path class="st26" d="M1420.31,146.86c0.07-0.02,0.15-0.04,0.22-0.06l-20.06-19.21c-1.4-1.34-3.13-2.12-4.92-2.36
					c2.67-0.47,5.52,0.28,7.63,2.3l20.06,19.21C1422.4,147,1421.42,147.02,1420.31,146.86z"/>
			</g>
		</g>
	</g>
</g>
<path class="st22" d="M690.58,115.73c-6.31,1.26-71.38,1.09-91.12,0.74c-7.62-0.35-6.2-15.98,3.08-19.29
	c9.28-3.31,15.39-1.76,15.39-1.76s0.92-21.42,18.85-19.05c17.93,2.37,20.73,18.97,20.73,18.97s10.46-12.28,24.06-4.55
	S690.58,115.73,690.58,115.73z"/>
<path class="st22" d="M433.58,78.73c-6.31,1.26-71.38,1.09-91.12,0.74c-7.62-0.35-6.2-15.98,3.08-19.29
	c9.28-3.31,15.39-1.76,15.39-1.76s0.92-21.42,18.85-19.05c17.93,2.37,20.73,18.97,20.73,18.97s10.46-12.28,24.06-4.55
	C438.17,61.53,433.58,78.73,433.58,78.73z"/>
</svg>
