<?xml version="1.0" encoding="utf-8"?>
<!-- Generator: Adobe Illustrator 24.3.0, SVG Export Plug-In . SVG Version: 6.00 Build 0)  -->
<svg version="1.1" id="Layer_1" xmlns="http://www.w3.org/2000/svg" xmlns:xlink="http://www.w3.org/1999/xlink" x="0px" y="0px"
	 viewBox="0 0 1920 940" style="enable-background:new 0 0 1920 940;" xml:space="preserve">
<style type="text/css">
	.st0{fill:#DEF6FC;}
	.st1{fill:#8CBF62;}
	.st2{fill:#73AF4D;}
	.st3{fill:#3B722F;}
	.st4{fill:#275B1E;}
	.st5{fill:#64A03D;}
	.st6{fill:#FFFFFF;stroke:#000000;stroke-miterlimit:10;}
	.st7{fill:#CED1EF;}
	.st8{fill:#B7BDE5;}
	.st9{fill:#B7BDE2;}
	.st10{fill:#609E51;}
	.st11{fill:#48823B;}
	.st12{fill:#36A29C;}
	.st13{opacity:0.45;}
	.st14{fill:none;stroke:#9F4CB1;stroke-linecap:round;stroke-miterlimit:10;}
	.st15{fill:#FFB15E;}
	.st16{fill:none;stroke:#FFFF83;stroke-linecap:round;stroke-miterlimit:10;}
	.st17{opacity:0.2;clip-path:url(#XMLID_2_);fill:#D1597C;}
	.st18{fill:#7B727E;}
	.st19{fill:#4B3E4F;}
	.st20{clip-path:url(#XMLID_3_);fill:#5D5261;}
	.st21{fill:#6ABA73;}
	.st22{fill:#FFE06D;}
	.st23{fill:#FFFFFF;}
	.st24{fill:#FFB2B9;}
	.st25{fill:#7E4747;}
	.st26{fill:#C9ADB4;}
	.st27{clip-path:url(#XMLID_4_);fill:#FF705F;}
	.st28{fill:#FFB25F;}
	.st29{fill:#C26D68;}
	.st30{fill:#BCB2C4;}
	.st31{display:none;}
	.st32{display:inline;}
	.st33{opacity:0.2;clip-path:url(#XMLID_5_);fill:#D1597C;}
	.st34{fill:#5D418B;}
	.st35{fill:#DAC6CB;}
	.st36{opacity:0.2;clip-path:url(#XMLID_6_);fill:#A3597C;}
	.st37{fill:#4F4268;}
	.st38{opacity:0.3;clip-path:url(#XMLID_7_);fill:#DB5240;}
	.st39{opacity:0.3;clip-path:url(#XMLID_8_);fill:#DB5240;}
	.st40{opacity:0.3;clip-path:url(#XMLID_9_);fill:#DB5240;}
	.st41{opacity:0.3;clip-path:url(#XMLID_10_);fill:#7A5240;}
	.st42{fill:#FFB240;}
	.st43{fill:#FF4A40;}
	.st44{fill:#FF7D40;}
	.st45{display:inline;fill:#CDE3FF;}
	.st46{fill:#CDE3FF;}
	.st47{opacity:0.2;clip-path:url(#XMLID_11_);fill:#D1597C;}
	.st48{clip-path:url(#XMLID_12_);fill:#2D9194;}
	.st49{fill:#277389;}
	.st50{fill:#2D9194;}
	.st51{fill:#F69592;}
	.st52{fill:#CE7040;}
	.st53{opacity:0.2;clip-path:url(#XMLID_13_);fill:#D1597C;}
	.st54{fill:#CEB2B8;}
	.st55{fill:#D2BAC0;}
	.st56{opacity:0.2;clip-path:url(#XMLID_14_);fill:#D1597C;}
	.st57{opacity:0.2;clip-path:url(#XMLID_15_);fill:#D1597C;}
	.st58{opacity:0.2;clip-path:url(#XMLID_16_);fill:#D1597C;}
	.st59{opacity:0.2;clip-path:url(#XMLID_17_);fill:#AE597C;}
	.st60{opacity:0.2;clip-path:url(#XMLID_22_);fill:#D1597C;}
	.st61{fill:#E8DBDE;}
	.st62{fill:#3B2D57;}
	.st63{clip-path:url(#XMLID_23_);fill:#FF705F;}
	.st64{fill:#FFBB35;}
	.st65{fill:#FFD637;}
</style>
<path class="st0" d="M1415.31,2c0,0-604.48,155.95-434.94,200.62c169.54,44.67,166.18,77.62,40.29,135.29
	S560.71,505.76,651.36,554.16S763.82,653.41,507,715h1416.17V2H1415.31z"/>
<path class="st1" d="M1355.58,595.14C1047.87,500.32,27.46,691.32,26,693c-22.49,27.62-92.72,57.97-72,76
	c73.53,64,275.34,93.56,67,175h1909V565.02C1930,565.02,1664.92,690.46,1355.58,595.14z"/>
<path class="st2" d="M12,945h1903v-77.54c0,0-152.97-116.09-411.92-34.39S881.37,833.82,793,745h-36
	C-520.57,718.81-28.5,868.43,12,945z"/>
<g>
	<path class="st3" d="M1792.68,539.55c0,0,22.69-48.46-21.71-65.01c0,0,14.36-28.72-16.52-52.01c0,0,0.41-35.29-20.89-54.53
		c-21.3,19.24-20.88,54.53-20.88,54.53c-30.89,23.29-16.53,52.01-16.53,52.01c-44.4,16.54-21.71,65.01-21.71,65.01
		c-54.81,44.95,59.12,91.08,59.12,91.08S1847.49,584.5,1792.68,539.55z"/>
	<path class="st4" d="M1743.66,427.96c0,0,23.17,17.52,17.23,49.16c0,0,33.34,22.04,10.17,60.74c0,0,16.2,34.66-19.21,62.53
		c-34.95,27.51-85.38-16.58-86.68-17.72c17.23,27.22,68.39,47.97,68.39,47.97s113.93-46.14,59.12-91.08c0,0,22.69-48.46-21.71-65.01
		c0,0,14.36-28.72-16.52-52.01c0,0,0.41-35.29-20.89-54.53C1733.56,368,1750.44,396.6,1743.66,427.96z"/>
</g>
<g>
	<path class="st2" d="M1915.33,581.5c0,0,17.19-36.72-16.45-49.26c0,0,10.89-21.76-12.52-39.41c0,0,0.32-26.74-15.82-41.32
		c-16.14,14.58-15.83,41.32-15.83,41.32c-23.4,17.65-12.52,39.41-12.52,39.41c-33.65,12.54-16.45,49.26-16.45,49.26
		c-41.53,34.06,44.8,69.02,44.8,69.02S1956.86,615.56,1915.33,581.5z"/>
	<path class="st5" d="M1878.18,496.95c0,0,17.56,13.27,13.06,37.25c0,0,25.26,16.69,7.71,46.02c0,0,12.28,26.26-14.55,47.38
		c-26.49,20.85-64.7-12.56-65.69-13.43c13.06,20.63,51.83,36.35,51.83,36.35s86.33-34.96,44.8-69.02c0,0,17.19-36.72-16.45-49.26
		c0,0,10.89-21.76-12.52-39.41c0,0,0.32-26.74-15.82-41.32C1870.53,451.51,1883.32,473.18,1878.18,496.95z"/>
</g>
<g>
	<path class="st3" d="M1429.43,535.79c0,0,22.69-48.46-21.71-65.01c0,0,14.36-28.72-16.52-52.01c0,0,0.42-35.29-20.89-54.53
		c-21.3,19.24-20.88,54.53-20.88,54.53c-30.89,23.29-16.53,52.01-16.53,52.01c-44.4,16.54-21.71,65.01-21.71,65.01
		c-54.81,44.95,59.12,91.08,59.12,91.08S1484.24,580.74,1429.43,535.79z"/>
	<path class="st4" d="M1380.41,424.2c0,0,23.17,17.52,17.23,49.16c0,0,33.34,22.04,10.17,60.74c0,0,16.2,34.66-19.21,62.53
		c-34.95,27.51-85.38-16.58-86.68-17.72c17.23,27.22,68.39,47.97,68.39,47.97s113.93-46.14,59.12-91.08c0,0,22.69-48.46-21.71-65.01
		c0,0,14.36-28.72-16.52-52.01c0,0,0.42-35.29-20.89-54.53C1370.31,364.24,1387.19,392.84,1380.41,424.2z"/>
</g>
<g>
	<path class="st2" d="M1552.08,577.74c0,0,17.19-36.72-16.45-49.26c0,0,10.89-21.76-12.52-39.41c0,0,0.32-26.74-15.82-41.32
		c-16.14,14.58-15.83,41.32-15.83,41.32c-23.4,17.65-12.52,39.41-12.52,39.41c-33.65,12.54-16.45,49.26-16.45,49.26
		c-41.53,34.06,44.8,69.02,44.8,69.02S1593.61,611.8,1552.08,577.74z"/>
	<path class="st5" d="M1514.93,493.19c0,0,17.56,13.27,13.06,37.25c0,0,25.26,16.69,7.71,46.02c0,0,12.28,26.26-14.55,47.38
		c-26.49,20.85-64.7-12.56-65.69-13.43c13.06,20.63,51.83,36.35,51.83,36.35s86.33-34.96,44.8-69.02c0,0,17.19-36.72-16.45-49.26
		c0,0,10.89-21.76-12.52-39.41c0,0,0.32-26.74-15.82-41.32C1507.28,447.75,1520.07,469.42,1514.93,493.19z"/>
</g>
<path class="st6" d="M-0.5,939.5"/>
<path class="st6" d="M0,0"/>
<g>
	<g>
		<g>
			<path class="st7" d="M1341.52,212.56L1341.52,212.56c-12.4-6.06-17.54-21.02-11.48-33.42l34.63-70.9l0,0
				C1379.11,128.64,1341.52,212.56,1341.52,212.56z"/>
			<path class="st8" d="M1367.51,116.05c-0.12-0.18-0.22-0.37-0.35-0.54l-34.63,70.9c-2.42,4.95-3.03,10.31-2.12,15.35
				c-3.59-6.81-4.01-15.17-0.38-22.62l34.63-70.9C1366.1,110.26,1367.01,112.92,1367.51,116.05z"/>
		</g>
		<g>
			<path class="st8" d="M1341.52,212.56L1341.52,212.56c4.95,12.88-1.49,27.34-14.37,32.28l-73.67,28.27l0,0
				C1256.82,248.34,1341.52,212.56,1341.52,212.56z"/>
			<path class="st7" d="M1256.73,265.46c-0.04,0.21-0.09,0.42-0.12,0.63l73.66-28.27c5.15-1.97,9.24-5.48,12.01-9.78
				c-2.02,7.43-7.4,13.84-15.14,16.81l-73.67,28.27C1253.81,270.65,1254.96,268.09,1256.73,265.46z"/>
		</g>
		<g>
			<polygon class="st7" points="1389.54,613.13 1365.32,613.13 1372.24,208.58 1382.62,208.58 			"/>
			<polygon class="st9" points="1382.62,208.58 1376.22,208.58 1383.15,613.13 1389.54,613.13 			"/>
			<path class="st9" d="M1389.54,613.13c0,2.99-5.42,5.41-12.11,5.41c-6.69,0-12.11-2.42-12.11-5.41c0-2.98,5.42-5.4,12.11-5.4
				C1384.12,607.73,1389.54,610.15,1389.54,613.13z"/>
		</g>
		<path class="st7" d="M1416.26,211.46c0,7.22-28.57,13.07-63.81,13.07c-35.25,0-63.82-5.85-63.82-13.07
			c0-7.22,28.57-13.07,63.82-13.07C1387.69,198.39,1416.26,204.24,1416.26,211.46z"/>
		<path class="st8" d="M1414.14,208.17c-7.14,5.62-32.01,9.78-61.69,9.78c-29.68,0-54.55-4.16-61.69-9.78
			c-1.34,1.05-2.13,2.16-2.13,3.29c0,7.22,28.57,13.07,63.82,13.07c35.24,0,63.81-5.85,63.81-13.07
			C1416.26,210.32,1415.48,209.22,1414.14,208.17z"/>
		<path class="st10" d="M1288.63,211.46c0,3.9,8.37,7.41,21.62,9.8c1.56-3.18,2.46-6.75,2.46-10.53c0-3.26-0.65-6.36-1.83-9.19
			C1297.27,203.95,1288.63,207.5,1288.63,211.46z"/>
		<path class="st11" d="M1289.33,213.29c0.21,0.31,0.43,0.62,0.74,0.92c0.17,0.17,0.41,0.33,0.61,0.49
			c0.34,0.27,0.69,0.55,1.11,0.82c0.26,0.16,0.57,0.32,0.87,0.48c0.47,0.26,0.95,0.52,1.49,0.77c0.34,0.16,0.71,0.31,1.08,0.46
			c0.6,0.25,1.21,0.49,1.88,0.73c0.4,0.14,0.83,0.29,1.26,0.43c0.72,0.24,1.47,0.47,2.26,0.69c0.46,0.13,0.92,0.26,1.4,0.38
			c0.85,0.23,1.74,0.44,2.66,0.66c0.5,0.12,1,0.23,1.51,0.34c0.98,0.21,2,0.41,3.05,0.61c0.33,0.06,0.66,0.13,1,0.19
			c0.95-1.95,1.62-4.05,2.02-6.24c-10.37-1.73-18.05-4.11-21.52-6.84c-0.01,0.01-0.01,0.01-0.02,0.01
			c-0.31,0.24-0.58,0.49-0.83,0.74c-0.29,0.3-0.55,0.6-0.74,0.9c-0.09,0.14-0.14,0.28-0.21,0.42c-0.18,0.4-0.33,0.81-0.33,1.22
			c0,0.47,0.14,0.94,0.37,1.39C1289.08,213,1289.23,213.15,1289.33,213.29z"/>
		<g>
			<g>
				<path class="st7" d="M1341.52,212.56L1341.52,212.56c9.55-9.97,25.36-10.31,35.33-0.77l57,54.56l0,0
					C1410.02,273.9,1341.52,212.56,1341.52,212.56z"/>
				<path class="st8" d="M1425.54,266.68c0.21-0.05,0.42-0.1,0.62-0.16l-57-54.56c-3.98-3.81-8.9-6.02-13.97-6.69
					c7.58-1.34,15.67,0.79,21.66,6.52l57,54.56C1431.48,267.1,1428.68,267.16,1425.54,266.68z"/>
			</g>
		</g>
	</g>
	<g>
		<g>
			<path class="st7" d="M1478.27,285.55L1478.27,285.55c-9.7-4.74-13.72-16.44-8.98-26.13l27.08-55.44l0,0
				C1507.66,219.93,1478.27,285.55,1478.27,285.55z"/>
			<path class="st8" d="M1498.58,210.08c-0.09-0.14-0.17-0.29-0.27-0.42l-27.08,55.44c-1.89,3.87-2.36,8.06-1.66,12
				c-2.81-5.33-3.14-11.86-0.3-17.69l27.08-55.44C1497.48,205.56,1498.2,207.63,1498.58,210.08z"/>
		</g>
		<g>
			<path class="st8" d="M1478.27,285.55L1478.27,285.55c3.87,10.07-1.17,21.38-11.24,25.24l-57.6,22.11l0,0
				C1412.03,313.52,1478.27,285.55,1478.27,285.55z"/>
			<path class="st7" d="M1411.96,326.91c-0.03,0.16-0.07,0.33-0.09,0.49l57.6-22.11c4.02-1.54,7.22-4.29,9.4-7.65
				c-1.58,5.81-5.79,10.82-11.84,13.14l-57.6,22.11C1409.68,330.97,1410.57,328.97,1411.96,326.91z"/>
		</g>
		<g>
			<polygon class="st7" points="1515.82,614.31 1496.88,614.31 1502.29,282.43 1510.4,282.43 			"/>
			<polygon class="st9" points="1510.4,282.43 1502.77,282.43 1508.19,614.31 1515.82,614.31 			"/>
			<path class="st9" d="M1515.82,614.31c0,2.34-4.24,4.23-9.47,4.23c-5.23,0-9.47-1.89-9.47-4.23c0-2.33,4.24-4.23,9.47-4.23
				C1511.58,610.09,1515.82,611.98,1515.82,614.31z"/>
		</g>
		<path class="st7" d="M1536.71,284.69c0,5.65-22.34,10.22-49.9,10.22c-27.56,0-49.9-4.58-49.9-10.22c0-5.64,22.34-10.22,49.9-10.22
			C1514.36,274.47,1536.71,279.04,1536.71,284.69z"/>
		<path class="st8" d="M1535.04,282.11c-5.58,4.39-25.03,7.64-48.24,7.64c-23.21,0-42.65-3.25-48.24-7.64
			c-1.05,0.82-1.66,1.69-1.66,2.58c0,5.65,22.34,10.22,49.9,10.22c27.56,0,49.9-4.58,49.9-10.22
			C1536.71,283.8,1536.09,282.94,1535.04,282.11z"/>
		<path class="st10" d="M1436.91,284.69c0,3.05,6.55,5.79,16.91,7.67c1.22-2.49,1.92-5.28,1.92-8.23c0-2.55-0.51-4.97-1.43-7.18
			C1443.66,278.81,1436.91,281.59,1436.91,284.69z"/>
		<path class="st11" d="M1437.45,286.12c0.16,0.24,0.33,0.48,0.58,0.72c0.14,0.13,0.32,0.26,0.48,0.38
			c0.27,0.21,0.54,0.43,0.87,0.64c0.2,0.13,0.45,0.25,0.68,0.38c0.37,0.2,0.74,0.4,1.17,0.6c0.26,0.12,0.56,0.24,0.84,0.36
			c0.46,0.19,0.95,0.38,1.46,0.57c0.32,0.11,0.65,0.22,0.99,0.33c0.57,0.18,1.15,0.37,1.77,0.54c0.36,0.1,0.72,0.2,1.1,0.3
			c0.67,0.18,1.36,0.35,2.08,0.51c0.39,0.09,0.78,0.18,1.18,0.27c0.77,0.16,1.57,0.32,2.39,0.48c0.26,0.05,0.52,0.1,0.78,0.15
			c0.74-1.52,1.27-3.17,1.58-4.88c-8.11-1.35-14.12-3.21-16.83-5.35c0,0-0.01,0.01-0.01,0.01c-0.24,0.19-0.46,0.38-0.65,0.58
			c-0.22,0.23-0.43,0.47-0.58,0.7c-0.07,0.11-0.11,0.22-0.16,0.33c-0.14,0.32-0.26,0.63-0.26,0.96c0,0.37,0.11,0.73,0.29,1.09
			C1437.26,285.89,1437.37,286,1437.45,286.12z"/>
		<g>
			<g>
				<path class="st7" d="M1478.27,285.55L1478.27,285.55c7.46-7.8,19.83-8.06,27.62-0.6l44.57,42.66l0,0
					C1531.83,333.51,1478.27,285.55,1478.27,285.55z"/>
				<path class="st8" d="M1543.97,327.87c0.16-0.04,0.33-0.08,0.48-0.13l-44.57-42.66c-3.11-2.98-6.96-4.71-10.93-5.23
					c5.93-1.05,12.26,0.62,16.94,5.1l44.57,42.66C1548.61,328.19,1546.42,328.24,1543.97,327.87z"/>
			</g>
		</g>
	</g>
	<g>
		<g>
			<path class="st7" d="M1607.74,328.71L1607.74,328.71c-8.1-3.96-11.45-13.73-7.5-21.82l22.61-46.3l0,0
				C1632.29,273.91,1607.74,328.71,1607.74,328.71z"/>
			<path class="st8" d="M1624.71,265.69c-0.07-0.12-0.14-0.24-0.22-0.35l-22.61,46.3c-1.58,3.23-1.98,6.73-1.39,10.02
				c-2.34-4.45-2.62-9.91-0.25-14.77l22.61-46.3C1623.79,261.91,1624.39,263.65,1624.71,265.69z"/>
		</g>
		<g>
			<path class="st8" d="M1607.74,328.71L1607.74,328.71c3.23,8.41-0.97,17.85-9.39,21.08l-48.1,18.46l0,0
				C1552.43,352.07,1607.74,328.71,1607.74,328.71z"/>
			<path class="st7" d="M1552.37,363.25c-0.03,0.14-0.06,0.27-0.08,0.41l48.1-18.46c3.36-1.29,6.03-3.58,7.84-6.39
				c-1.32,4.85-4.83,9.04-9.89,10.98l-48.1,18.46C1550.47,366.65,1551.21,364.97,1552.37,363.25z"/>
		</g>
		<g>
			<polygon class="st7" points="1639.1,615.01 1623.29,615.01 1627.8,326.11 1634.58,326.11 			"/>
			<polygon class="st9" points="1634.58,326.11 1629.66,326.11 1634.18,615.01 1639.1,615.01 			"/>
			<path class="st9" d="M1639.1,615.01c0,1.95-3.54,3.53-7.91,3.53c-4.37,0-7.91-1.58-7.91-3.53c0-1.95,3.54-3.53,7.91-3.53
				C1635.56,611.48,1639.1,613.06,1639.1,615.01z"/>
		</g>
		<path class="st7" d="M1656.54,327.99c0,4.71-18.66,8.54-41.67,8.54c-23.02,0-41.67-3.82-41.67-8.54s18.66-8.53,41.67-8.53
			C1637.89,319.46,1656.54,323.28,1656.54,327.99z"/>
		<path class="st8" d="M1655.16,325.84c-4.66,3.67-20.9,6.38-40.28,6.38c-19.38,0-35.62-2.71-40.28-6.38
			c-0.87,0.69-1.39,1.41-1.39,2.15c0,4.71,18.66,8.53,41.67,8.53c23.01,0,41.67-3.82,41.67-8.53
			C1656.54,327.25,1656.03,326.53,1655.16,325.84z"/>
		<path class="st10" d="M1573.21,327.99c0,2.55,5.46,4.84,14.12,6.4c1.02-2.08,1.6-4.41,1.6-6.88c0-2.13-0.43-4.15-1.19-6
			C1578.84,323.09,1573.21,325.4,1573.21,327.99z"/>
		<path class="st11" d="M1573.66,329.19c0.14,0.2,0.28,0.4,0.48,0.6c0.11,0.11,0.27,0.21,0.4,0.32c0.22,0.18,0.45,0.36,0.73,0.53
			c0.17,0.11,0.37,0.21,0.57,0.32c0.31,0.17,0.62,0.34,0.97,0.5c0.22,0.1,0.46,0.2,0.7,0.3c0.39,0.16,0.79,0.32,1.23,0.48
			c0.27,0.09,0.55,0.19,0.82,0.28c0.47,0.15,0.96,0.3,1.48,0.45c0.3,0.09,0.6,0.17,0.91,0.25c0.56,0.15,1.14,0.29,1.74,0.43
			c0.33,0.08,0.65,0.15,0.99,0.22c0.64,0.14,1.31,0.27,1.99,0.4c0.22,0.04,0.43,0.08,0.65,0.12c0.62-1.27,1.06-2.64,1.32-4.07
			c-6.77-1.13-11.79-2.68-14.06-4.47c0,0-0.01,0.01-0.01,0.01c-0.2,0.16-0.38,0.32-0.54,0.48c-0.19,0.19-0.36,0.39-0.48,0.59
			c-0.06,0.09-0.09,0.18-0.14,0.27c-0.12,0.26-0.22,0.53-0.22,0.8c0,0.31,0.09,0.61,0.24,0.91
			C1573.5,329,1573.59,329.09,1573.66,329.19z"/>
		<g>
			<g>
				<path class="st7" d="M1607.74,328.71L1607.74,328.71c6.23-6.51,16.56-6.74,23.07-0.5l37.22,35.63l0,0
					C1652.47,368.77,1607.74,328.71,1607.74,328.71z"/>
				<path class="st8" d="M1662.61,364.05c0.14-0.04,0.27-0.07,0.4-0.11l-37.22-35.63c-2.6-2.49-5.81-3.93-9.12-4.37
					c4.95-0.88,10.23,0.52,14.15,4.26l37.22,35.63C1666.49,364.32,1664.65,364.36,1662.61,364.05z"/>
			</g>
		</g>
	</g>
</g>
<g>
	<g>
		<path class="st12" d="M1353.71,641.58c0,0,22.28-92.96,1.92-115.73c-20.36-22.77-35.24,24.88-35.24,24.88
			s-8.28-99.02-36.29-106.22c-28-7.2-26.01,75.4-26.01,75.4s-20.21-35.99-42.54-23.47c-22.34,12.53,24.05,145.2,24.05,145.2"/>
		<g class="st13">
			<path class="st14" d="M1287.7,474.84c0.96,16.94,1.91,33.89,2.87,50.83c0.8,14.18,1.6,28.38,3.87,42.17
				c1.98,12.05,5.08,23.75,6.66,35.93"/>
			<path class="st14" d="M1343.46,542.47c-5.94,12.41-4.39,25.42-7.16,38.23c-1.84,8.51-5.59,16.92-7.71,25.42
				c-1.86,7.48-2.46,15.02-5.15,22.42"/>
			<path class="st14" d="M1228.48,521.61c8.05,5.89,9.62,16.72,12.08,26.39c5.41,21.3,16.96,39.82,26.22,59.37
				c4.57,9.66,8.62,19.68,10.53,30.47"/>
			<path class="st14" d="M1272.08,620.47c2.92-5.72,5.77-11.47,8.55-17.23"/>
			<path class="st14" d="M1257.8,587.99c2.05-5.38,3.48-9.44,5.53-14.82"/>
			<path class="st14" d="M1245.58,563.12c3.7-4.92,6.75-10.19,9.03-15.61"/>
			<path class="st14" d="M1249.16,574.59c-6.8-0.91-13.06-3.34-18.14-7.04"/>
			<path class="st14" d="M1266.43,608.72c-7.06-0.28-13.9-1.45-20.27-3.46"/>
			<path class="st14" d="M1300.86,599.98c7.54-6.19,14.39-13.14,20.32-20.63"/>
			<path class="st14" d="M1296.15,580.45c-3.25-0.95-6.27-2.34-8.96-4.12"/>
			<path class="st14" d="M1292.23,547.05c0.9-0.76,1.71-1.61,2.51-2.46c4.33-4.55,8.67-9.1,13-13.64"/>
			<path class="st14" d="M1290.14,530.74c-6.02-2.56-11.6-5.8-16.6-9.65"/>
			<path class="st14" d="M1289.5,508.93c-4.15-2.62-7.42-6.28-9.47-10.6"/>
			<path class="st14" d="M1290.44,517.44c4.41-5.39,8.25-11.13,11.41-17.08"/>
			<path class="st14" d="M1238.87,540.77c0.96-2.97,1.91-5.94,2.87-8.92"/>
			<path class="st14" d="M1337.76,564.45c-3.8-2.52-6.61-6.19-8.02-10.46"/>
			<path class="st14" d="M1333.44,591.53c7.86-3.9,16.27-8.27,20.86-15.39"/>
		</g>
	</g>
</g>
<g>
	<g>
		<path class="st15" d="M1067.74,624.35c0,0,30.19-90.58,5.03-105.67s-30.19,45.29-30.19,45.29s8.39-107.35-18.45-112.38
			c-26.84-5.03-20.13,95.61-20.13,95.61s-25.16-53.68-55.35-21.81c-30.19,31.87,26.84,100.64,26.84,100.64L1067.74,624.35z"/>
		<path class="st16" d="M1023.12,476.89c-6.43,32.83,4.18,66.36,5.9,99.77c1.22,23.61-2.08,47.45-9.65,69.85"/>
		<path class="st16" d="M1066.04,536.94c-3.11,7.95-1.78,16.83-1.56,25.37c0.24,9.53-0.96,19.02-2.16,28.47
			c-1.29,10.17-2.74,20.76-8.52,29.22c-8.79,12.86-25.4,17.8-36.57,28.66"/>
		<path class="st16" d="M967.38,537.74c8.3,21.77,26.11,38.62,36.06,59.68c4.96,10.49,7.86,21.84,10.02,33.23
			c1.34,7.05,2.91,14.97,8.88,18.94"/>
		<path class="st16" d="M979.76,560.68c1.08-0.78,1.57-2.11,1.98-3.37c1.64-4.99,2.96-10.08,3.96-15.24"/>
		<path class="st16" d="M990.85,575.81c0.91-5.83,1.83-11.65,2.74-17.48"/>
		<path class="st16" d="M1002.27,595.16c0.08-5.35-0.11-10.71-0.57-16.05"/>
		<path class="st16" d="M996.93,585.68c-6.31,1.54-12.76,2.48-19.24,2.8"/>
		<path class="st16" d="M975.88,554.95c-4.04-0.28-8.08-0.57-12.12-0.85c-0.17-0.01-0.39-0.06-0.43-0.23
			c-0.04-0.17,0.33-0.2,0.25-0.04"/>
		<path class="st16" d="M1013.28,486.75c2.72,2.67,5.14,5.64,7.2,8.85"/>
		<path class="st16" d="M1022.29,510.18c2.57-3.52,5.37-6.89,8.36-10.06"/>
		<path class="st16" d="M1023.47,531.46c-3.98-1.02-7.87-2.38-11.62-4.06"/>
		<path class="st16" d="M1027.52,553.67c2.77-5.03,5.71-9.97,8.81-14.8"/>
		<path class="st16" d="M1028.5,570.77c-2.7-0.57-5.32-1.58-7.7-2.98c-1.52-0.9-3.03-1.98-4.79-2.16"/>
		<path class="st16" d="M1064.49,571.63c-3.02-1.59-5.84-3.57-8.36-5.88"/>
		<path class="st16" d="M1063.72,583.2c3.04-1.99,5.97-4.15,8.77-6.47"/>
		<path class="st16" d="M1061.72,597.32c-2.52-1.95-5.05-3.9-7.57-5.84"/>
		<path class="st16" d="M1064.75,554.13c1.68-1.1,3.36-2.2,5.03-3.3"/>
	</g>
	<g>
		<defs>
			<path id="XMLID_20_" d="M728.83,628.35c-16.1,14.26,109.26,9.86,163.42,17.62c-9.27,5.85-8.81,12.75-4.84,13.49
				c39.14,8.08,79.61,5.39,119.47,2.38c113.87-8.6,227.09-2.13,340.52-15.34c14.72-4.14,6.05-19.4-13.4-24.41
				c-31.91-8.21-75.3-7.03-108.19-5.1c5.85-4.01,39.17-4.71,38.97-10.71c-1.37-8.28-47.29-11.07-73.05-9.23
				c-24.64,1.76-56.31,2.58-81,2.06c-50.43-1.07-100.89-0.46-151.27,1.82c-44.87,2.03-90.33,9.09-135.16,6.75
				C788.47,605.81,757.25,602.61,728.83,628.35z"/>
		</defs>
		<use xlink:href="#XMLID_20_"  style="overflow:visible;fill:#DAA59C;"/>
		<clipPath id="XMLID_2_">
			<use xlink:href="#XMLID_20_"  style="overflow:visible;"/>
		</clipPath>
		<path class="st17" d="M693.48,643.84c36.7,18.3,82.94,15.8,117.45-6.34c15.54-9.97,28.61-23.45,44.18-33.37
			c39.78-25.33,93.11-24.05,135.21-2.81c-34.6-0.49-69.26,3.28-102.96,11.18c-25.76,6.04-54.76,18.36-60.98,44.08
			c-1.46,6.04-1.26,13.02,2.79,17.73c8.07,9.4,23.05,3.52,35.42,3.02c31.94-1.29,55.51,38.16,87.3,34.73
			c13.98-1.51,25.71-11.37,34.37-22.45c8.66-11.08,15.21-23.74,24.36-34.41c20.87-24.33,53.86-35.98,85.91-36.32
			c32.05-0.34,63.41,9.53,92.78,22.36c15.46,6.75,31.27,14.96,40.58,29.04c3.64,5.5,4.18,15.55-2.38,16.22
			c-1.75,0.18-3.46-0.51-5.03-1.31c-8.59-4.38-14.73-12.26-21.5-19.14c-19.91-20.24-47.35-32.88-75.67-34.87
			c-28.32-1.99-57.26,6.7-79.8,23.96c-7.49,5.73-14.92,14.36-12.58,23.5c2.03,7.94,10.45,12.2,17.97,15.46
			c32.5,14.09,65.23,28.26,99.75,36.22c34.52,7.96,71.32,9.42,104.93-1.77c10.58-3.52,20.98-8.43,28.77-16.41
			c7.79-7.98,12.6-19.47,10.43-30.4c-3.84-19.42-25.74-28.38-44.2-35.53c-22.81-8.83-44.82-19.73-65.68-32.5
			c-7.34-4.49-14.97-9.75-18.01-17.79c-3.47-9.18,0.22-19.96,7.15-26.91c6.93-6.95,16.52-10.6,26.12-12.66
			c-4.88,14.9-21.34,27.87-16.08,42.64c3.35,9.41,14.02,13.58,23.37,17.11c20.7,7.82,40.54,17.89,59.06,29.99
			c10.42,6.81,20.71,14.55,27.01,25.29c6.3,10.73,7.78,25.13,0.65,35.33"/>
	</g>
	<g>
		<path class="st18" d="M944.93,354.85c-4.02,3.11-22.04,99.74-22.04,99.74l27.45,2.13c0,0,18.78-78.03,17.12-88.44
			C965.8,357.88,951.83,349.51,944.93,354.85z"/>
		<path class="st19" d="M999.76,255.02l15.69,172.64c0,0,11.34,1.74,11.34-0.87c0-2.62-12.21-168.28-12.21-168.28"/>
		<polyline class="st19" points="1042.48,258.51 1061.66,432.02 1073.87,433.77 1060.79,261.99 		"/>
		<g>
			<defs>
				<path id="XMLID_18_" d="M1074.74,415.46c2.94,15.14,10.7,105.28,0.57,116.62c-10.13,11.34-382.89,16.85-393.02-5.83
					c-10.13-22.68-9.37-106.91,0.98-120.71c9.8-13.07,143.15-35.38,147.32-31.06c3.68,3.81,7.32,40.45,9.59,52.32
					C841.01,431.07,1068.64,384.07,1074.74,415.46z"/>
			</defs>
			<use xlink:href="#XMLID_18_"  style="overflow:visible;fill:#7CCE81;"/>
			<clipPath id="XMLID_3_">
				<use xlink:href="#XMLID_18_"  style="overflow:visible;"/>
			</clipPath>
			<polygon class="st20" points="761.6,553.36 953.65,553.36 951.54,496.38 822.81,500.6 816.47,471.05 706.73,471.05 
				706.73,373.97 647.64,384.52 624.42,544.92 			"/>
		</g>
		<polygon class="st21" points="863.2,484.47 864.64,561.14 913.24,559.71 913.24,548.68 874.67,548.68 874.67,484.47 		"/>
		<polygon class="st21" points="863.2,478.34 864.64,531.49 913.24,530.05 913.24,519.02 874.67,519.02 874.67,478.34 		"/>
		<path class="st21" d="M883.35,483.48c0,0,31.59-90.81,141.48-88.36c109.89,2.45,120.87,92.04,120.87,92.04
			s-39.83-76.09-122.25-72.4S883.35,483.48,883.35,483.48z"/>
		<g>
			<path class="st19" d="M1127.51,537.74l8.7-2.32l-6.33-29.55l-10.97-2c-1.4-3.2-2.94-6.32-4.63-9.36l9.28-8.7l-17.94-16.88
				l-10.08,0.96c-2.59-2.55-5.32-4.97-8.16-7.26l3.46-7.42l-25.33-14.77l-8.08,5.1c-3.89-1.46-7.88-2.69-11.97-3.7v-10.9
				l-34.82-3.17l-4.9,11.75c-3.69,0.46-7.33,1.11-10.9,1.93l-4.26-9.46l-31.66,11.61l3.15,11.35c-1.46,0.91-2.9,1.85-4.31,2.82
				l-10.45-7.84l-22.16,24.27l7.53,7.53c-1.09,1.43-2.14,2.89-3.15,4.38l-14.93-1.36l-12.66,33.77l9.89,12.97
				c-0.42,2.88-0.71,5.8-0.9,8.75l-11.09-0.62l4.22,32.71l10.91,5.17c0.84,2.89,1.78,5.73,2.85,8.52l-9.54,6.36l15.83,24.27
				l10.1-1.89c1.41,1.77,2.85,3.51,4.36,5.19l-3.91,10.43l23.21,20.05l9.68-7.6c1.8,0.98,3.64,1.89,5.49,2.76l0.66,11.17l40.1,7.39
				l6.88-8.25c1.71-0.02,3.4-0.07,5.09-0.17l2.81,8.43l29.55-4.22l2.12-12c2.14-0.87,4.25-1.78,6.31-2.78l10.56,6.34l21.1-18.99
				l-3.51-7.02c1.88-1.82,3.71-3.69,5.46-5.64h11.77l11.61-17.94l-4.23-12.09c1.12-2.63,2.12-5.33,3.03-8.07l7.53,1.16l5.28-28.49
				l-7.2-7.2C1127.95,544.02,1127.78,540.87,1127.51,537.74z"/>
			
				<ellipse transform="matrix(0.9239 -0.3827 0.3827 0.9239 -131.202 432.3514)" class="st18" cx="1021.19" cy="545.97" rx="63.31" ry="63.31"/>
			<circle class="st22" cx="1021.19" cy="545.97" r="53.71"/>
			<circle class="st23" cx="1021.19" cy="545.97" r="24.45"/>
		</g>
		<g>
			<path class="st19" d="M801.53,567.14l5.51-1.47l-4.01-18.73l-6.96-1.26c-0.89-2.03-1.87-4.01-2.94-5.93l5.88-5.51l-11.37-10.7
				l-6.39,0.61c-1.64-1.62-3.37-3.15-5.17-4.6l2.2-4.7l-16.05-9.37l-5.12,3.24c-2.47-0.92-5-1.71-7.59-2.35v-6.91l-22.07-2.01
				l-3.1,7.45c-2.34,0.29-4.65,0.7-6.91,1.22l-2.7-5.99l-20.07,7.36l2,7.2c-0.93,0.57-1.84,1.17-2.73,1.79l-6.63-4.97l-14.05,15.39
				l4.77,4.77c-0.69,0.91-1.36,1.83-2,2.78l-9.46-0.86l-8.03,21.41l6.27,8.22c-0.27,1.83-0.45,3.68-0.57,5.54l-7.03-0.39l2.68,20.74
				l6.92,3.28c0.53,1.83,1.13,3.64,1.81,5.4l-6.05,4.03l10.03,15.39l6.4-1.2c0.89,1.12,1.81,2.22,2.76,3.29l-2.48,6.61l14.72,12.71
				l6.13-4.82c1.14,0.62,2.3,1.2,3.48,1.75l0.42,7.08l25.42,4.68l4.36-5.23c1.08-0.01,2.16-0.05,3.22-0.11l1.78,5.34l18.73-2.68
				l1.34-7.61c1.35-0.55,2.69-1.13,4-1.76l6.7,4.02l13.38-12.04l-2.23-4.45c1.19-1.15,2.35-2.34,3.46-3.58h7.46l7.36-11.37
				l-2.68-7.66c0.71-1.67,1.34-3.38,1.92-5.11l4.77,0.73l3.34-18.06l-4.56-4.56C801.81,571.12,801.7,569.12,801.53,567.14z"/>
			<circle class="st18" cx="734.13" cy="572.35" r="40.14"/>
			<circle class="st22" cx="734.13" cy="572.35" r="34.05"/>
			<circle class="st23" cx="734.13" cy="572.35" r="15.5"/>
		</g>
		<path class="st19" d="M856.76,241.07c0,0-31.39,152.59,0.87,259.84c-16.57,0-16.57,0-16.57,0s-30.52-132.53,1.74-257.22"/>
		<path class="st21" d="M1070.38,268.1l-236.3-24.41c0,0,6.98-18.31,18.31-16.57c11.34,1.74,213.63,23.54,213.63,23.54
			L1070.38,268.1z"/>
		<path class="st19" d="M811.42,341.34c-1.74,2.62-4.36,28.77,1.74,34.01c6.1,5.23,20.05-1.74,20.05-1.74l-1.74-31.39L811.42,341.34
			z"/>
		<path class="st19" d="M785.26,401.51l2.62-91.55l-10.46-1.74c0,0-6.98,101.15-2.62,108.12c4.36,6.98,23.54,0,23.54,0v-14.82
			H785.26z"/>
		<polyline class="st19" points="840.19,402.38 864.61,382.32 868.97,389.3 842.81,414.58 		"/>
		<polygon class="st19" points="854.14,373.6 877.69,405.86 885.53,401.51 861.12,366.63 		"/>
		<path class="st18" d="M952,314.22c-3.42,7.85-7.1,25.77-5.51,30.59c1.59,4.82,18.85,11.03,22.69,7.71
			c3.83-3.32,8.08-24.04,6.86-30.22C974.82,316.13,955.97,305.1,952,314.22z"/>
		<polygon class="st19" points="741.2,419 727.13,456.98 735.57,458.39 749.64,421.81 		"/>
		<polygon class="st19" points="759.49,419 745.42,456.98 753.86,458.39 767.93,421.81 		"/>
	</g>
	<g>
		<path class="st24" d="M1281.34,432.7c0,0,16.83,29.35,16.83,37.74c0,8.39-31.93,40.26-31.93,40.26l2.39-20.71l14.39-21.22
			l-13.42-25.16"/>
		<path class="st24" d="M1199.24,439.87l-3.6,32.3c0,0-19.67,21.35-23.03,23.03c-6.71-0.84-11.99,5.16-10.32,8.51
			c1.68,3.35,4.79,12.34,8.14,12.34s6.15-9.92,6.15-9.92l33.55-24.32l5.87-36.9"/>
		<path class="st25" d="M1222.39,384.04c0,0-10.57-6.04-4.53-15.47C1223.9,359.13,1222.39,384.04,1222.39,384.04z"/>
		<g>
			<path class="st22" d="M1206.17,596.5l2.12,26.2c0,0-14.87,7.08-15.58,9.91c-0.71,2.83,30.45,0,30.45,0l2.12-34.7"/>
			<path class="st22" d="M1266.34,596.5l-2.12,26.2c0,0,14.87,7.08,15.58,9.91s-30.45,0-30.45,0l-2.12-34.7"/>
			<path class="st25" d="M1271.32,492.2c-0.1-2.24-0.24,27.63-0.24,56.14c0,22.59,2.29,49.13-3.04,53.23
				c-5.33,4.1-22.94,6.96-26.22-3.69c-3.28-10.65-3.28-78.65-3.28-78.65l-2.46,0.82c0,0-0.82,74.14-5.33,79.47
				c-4.51,5.33-24.18,4.9-27.87-2.47c-3.69-7.37-0.31-70.8,5.75-108.95C1232,484,1271.32,492.2,1271.32,492.2z"/>
			<path class="st26" d="M1244.04,409.89c30.1,3.73,43.51,12.89,47.17,32.3c-8.28,2.85-21.61,4.67-21.72,5.65l2.23,45.59
				c0,0-44.69,8.38-63.74-3.56c1.27-14.22,1.32-40.78,1.32-40.78l-15.1-8.39C1194.2,440.71,1206.22,405.19,1244.04,409.89z"/>
			<path class="st24" d="M1249.48,395.36c-4.94,9.4-3.75,6.65-13.8,6.65c-10.97,0-18.28-9.23-18.13-17.37
				c0.08-4.18-0.07-15.04,2.79-18.03C1230.17,356.36,1266.14,363.68,1249.48,395.36z"/>
			<path class="st24" d="M1248.93,389.76l3.14,18.87l2.52,6.71c0,0-8.12,14.69-17.98,19.67c-7.95-4.54-10.12-20.92-10.12-20.92
				l3.86-6.27l1.23-13.52"/>
			<path class="st24" d="M1246,380.33l0.25,6.35c0,0,5.84-1.52,5.59-5.84C1251.58,376.52,1247.27,374.99,1246,380.33z"/>
		</g>
		<path class="st25" d="M1245.93,367.85c0,0-2.99,15.14-2.58,15.96c0.53,1.06,4.46,1.03,4.46,1.03l2.97-16.01"/>
		<path class="st25" d="M1217.26,373.21c0,0,8.03-1.11,12.45-5.81c-1.94,5.53-2.49,6.64-2.49,6.64s8.3-1.66,12.18-4.7
			c3.32,1.94,6.36,4.15,6.36,4.15s8.18-7.86-8.15-10.08C1221.29,361.2,1217.54,367.68,1217.26,373.21z"/>
		<g>
			<defs>
				<path id="XMLID_19_" d="M1219.73,359.17c0,0,2.3-13.06,10.37-14.98c8.06-1.92,24.58,4.99,26.88,9.98
					c2.3,4.99-0.77,15.75-0.77,15.75"/>
			</defs>
			<use xlink:href="#XMLID_19_"  style="overflow:visible;fill:#FFB25F;"/>
			<clipPath id="XMLID_4_">
				<use xlink:href="#XMLID_19_"  style="overflow:visible;"/>
			</clipPath>
			<path class="st27" d="M1212.43,362.63c0,0,10.37-16.13,29.57-10.37c19.2,5.76,19.2,18.82,19.2,18.82L1212.43,362.63z"/>
		</g>
		<path class="st28" d="M1217.43,369.36c0,0,6.54-7.51,19.02-4.67c12.48,2.84,16.9,14.72,16.9,14.72s12.2,1.13,14.46-2.55
			c2.27-3.69-13.33-17.58-33.18-20.42c-19.85-2.84-28.88,2.28-29.78,6.52C1203.83,367.77,1217.43,369.36,1217.43,369.36z"/>
		<path class="st24" d="M1249.33,378.35c0,0-0.18-6.5,4.39-5.85c4.57,0.65,5.88,13.72-2.61,13.07"/>
		<path class="st12" d="M1216.28,414.13c0,0-10.28,18.32-12.07,49.61c-1.44,25.13,1.45,39.33,1.45,39.33s13.71-12.08,13-27.42
			c-1.57-33.84,6.56-65.54,6.56-65.54S1221.32,410.77,1216.28,414.13z"/>
		<path class="st12" d="M1259.01,411.56c0,0,7.74-0.83,9.4,4.42c1.66,5.25,9.4,77.11,3.04,87.06c-9.12,0-14.87-19.02-15.42-28.69
			C1255.47,464.67,1259.01,411.56,1259.01,411.56z"/>
		<path class="st29" d="M1185.78,619.04l-37.7-193.43l6.71-2.52l38.85,197.53c0.3,1.51-0.86,2.91-2.39,2.91l0,0
			C1188.58,623.54,1186.29,621.66,1185.78,619.04z"/>
		<path class="st30" d="M1120.64,382.41c0,0,9.68,37.22,11.17,42.8c1.49,5.58,38.71-1.12,37.59-8.19
			c-1.12-7.07-9.68-44.67-9.68-44.67l-1.58,0.86l6.79,39.34l-7.82,4.47l-10.01-41.55l-0.9,0.11l7.93,41.81l-9.31,2.18l-9.21-42.3
			l-1.13,0.23l6.98,42.5h-7.82l-11.55-37.66L1120.64,382.41z"/>
		<path class="st24" d="M1159.57,497.65c0,0,0.61,14.55,3.94,16.97c3.33,2.42,5.76-3.94,5.15-8.18
			C1168.05,502.19,1164.42,493.1,1159.57,497.65z"/>
	</g>
</g>
<g class="st31">
	<g class="st32">
		<defs>
			<path id="XMLID_99_" d="M210.73,564.95c-6.42-0.54-12.89-1.35-19.29-0.55c-6.4,0.79-12.86,3.41-16.79,8.52
				c-1.86,2.41-3.11,5.59-2.23,8.51c1.4,4.65,7.07,6.24,11.87,6.95c12.35,1.83,24.83,2.76,37.31,2.77
				c20.37,0.02,40.75-2.4,61.07-0.97c16.59,1.17,32.95,4.88,49.56,5.62c17.9,0.79,35.77-1.9,53.38-5.22
				c10.42-1.96,20.8-4.15,31.12-6.56c7.33-1.71,20.94-2.44,21.14-9.97c0.12-4.66-15.97-6.89-21.67-7.11
				c-7.93-0.31-15.95,0.05-23.75-1.44c-6.31-1.21-12.38-3.61-18.76-4.33c-10.07-1.13-19.91,1.93-29.8,3.21
				c-10,1.29-19.96,0.01-29.98-0.36c-22.01-0.8-44,0.98-66,1.6C235.52,565.98,223.1,565.98,210.73,564.95z"/>
		</defs>
		<use xlink:href="#XMLID_99_"  style="overflow:visible;fill:#7CCE81;"/>
		<clipPath id="XMLID_5_">
			<use xlink:href="#XMLID_99_"  style="overflow:visible;"/>
		</clipPath>
		<path class="st33" d="M207.76,550c-4.31,4.31-10.58,5.96-15.55,9.48c-4.97,3.52-8.46,10.98-4.45,15.56
			c3.14,3.58,8.68,3.11,13.42,3.47c6.14,0.46,12.12,2.87,16.87,6.79c6.52,5.38,10.54,13.3,16.95,18.81
			c13.21,11.35,32.76,9.93,50.05,7.87c3.45-0.41,7.59-1.35,8.66-4.66c-11.99-6.9-26.96-5.25-40.28-9.01
			c-6.77-1.91-13.06-5.21-19.29-8.49c-12.58-6.62-25.16-13.23-37.74-19.85c-1.28-0.67-2.7-1.54-2.93-2.96
			c-0.17-1.09,0.43-2.14,1.04-3.05c8.41-12.46,23.46-18.85,38.26-21.46c20.07-3.53,41.14-1.19,59.95,6.65
			c1.53,0.64,3.17,1.42,3.89,2.92c1.9,3.95-3.72,6.99-6.45,10.41c-3.74,4.67-1.71,12.1,2.89,15.94s10.88,4.87,16.85,5.19
			c10.11,0.55,20.54-0.59,29.6-5.1c9.06-4.52,16.6-12.77,18.56-22.71c0.2-1.04,0.34-2.16-0.11-3.11c-0.96-2.05-4.07-2.1-5.87-0.72
			c-1.79,1.38-2.65,3.61-3.64,5.65c-5.49,11.38-17.69,19.19-30.32,19.42c-5.43,0.1-11.1-1.22-15.21-4.77s-6.27-9.64-4.23-14.68
			c2.06-5.08,7.48-7.8,12.49-10.02c8.11-3.6,16.29-7.04,24.54-10.31c18.45-7.33,39.34-13.82,57.67-6.2c4.14,1.72,8.29,4.5,9.57,8.79
			c2.24,7.51-5.04,14.09-10.99,19.19c-12.07,10.37-21.72,23.54-27.98,38.16c-2.22,5.18-3.47,12.35,1.23,15.46
			c2.62,1.73,6.06,1.34,9.17,0.86c3.59-0.55,7.93-1.79,8.7-5.34c0.34-1.55-0.16-3.16-0.71-4.65c-1.85-5.01-4.42-9.93-4.58-15.27
			c-0.25-8.39,5.52-15.81,12.07-21.07c6.54-5.26,14.15-9.21,20.02-15.22c5.87-6,9.79-15.07,6.6-22.83"/>
	</g>
	<g class="st32">
		<path class="st22" d="M240.42,401.05c0,0-1.17-11.7-8.06-11.96c-4.79-0.18-17.17,14.7-8.06,24.19
			c1.82-5.72,12.42-12.55,12.42-12.55l2.41,0.71"/>
		<path class="st34" d="M244.49,398.15c0,0-7.5-4.74-9.36,2.73c-1.43,5.72,7.02,2.73,7.02,2.73"/>
		<path class="st35" d="M268.48,533.13c0,0,5.93,34.71,5.99,34.79c0.07,0.08-1.07,1.88-1.05,1.99c0.23,1.69-3.87,2.63-3.87,2.63
			l-12.8-37.26"/>
		<path class="st19" d="M271.73,543.17l-11.81,3.1l9.55,29.55c0,0,17.29-4.19,17.7-4.41c0.41-0.23-6.7-3.39-10.8-2.4
			C275.83,567.01,271.73,543.17,271.73,543.17z"/>
		<path class="st35" d="M242.97,534.38c0,0-7.22,34.47-7.18,34.56c0.04,0.1-1.68,1.36-1.71,1.47c-0.41,1.65-4.57,1.03-4.57,1.03
			l1.76-39.36"/>
		<path class="st19" d="M241.93,547.05l-12.12-1.09l-1.59,28.49c0,0,17.62,2.45,18.09,2.39c0.47-0.06-4.99-5.61-9.17-6.2
			C237.38,568.6,241.93,547.05,241.93,547.05z"/>
		<g>
			<defs>
				<path id="XMLID_21_" d="M234.17,476.56c0,0-8.98,6.5-8.98,20.31c0,20.03,0.48,38.86,0.48,38.86s10.12,4.45,23.48,5.26
					c13.36,0.81,25.91-6.71,25.91-6.71s-10-42-10.99-57.73"/>
			</defs>
			<use xlink:href="#XMLID_21_"  style="overflow:visible;fill:#FFB240;"/>
			<clipPath id="XMLID_6_">
				<use xlink:href="#XMLID_21_"  style="overflow:visible;"/>
			</clipPath>
			<path class="st36" d="M234.6,459.36c-6.68,1.08-10.32,9.29-8.59,15.84c1.73,6.54,7.24,11.4,13.04,14.9
				c4.26,2.58,8.83,4.66,13.57,6.18c4.35,1.4,9.19,2.3,13.39,0.5c4.43-1.9,7.25-6.56,7.95-11.33c0.7-4.77-0.42-9.63-2.07-14.17
				c-1.35-3.73-3.12-7.41-5.97-10.17c-2.61-2.52-5.97-4.1-9.27-5.62c-4.96-2.28-9.93-4.52-14.92-6.72"/>
		</g>
		<path class="st24" d="M239.21,405.04c-2,3.57-2.35,15.72,1.75,18.56c4.09,2.83,1.17,9.51-6.07,11.4
			c-3.72,0.97,4.01,7.48,10.62,7.79c6.61,0.31,22.03-4.11,14.62-6.58c-6.61-2.2-7.15-10.08-5.1-12.13
			c3.27-3.27,2.44-14.01,1.18-18.73C254.95,400.63,243.62,397.17,239.21,405.04z"/>
		<path class="st37" d="M233.19,434.03c0,0-16.26,13.59-16.26,24.75c0,8.38,12.05,12.58,12.05,12.58l2.4,6.53
			c0,0,3.67,4.89,16.17,7.89s18.15,0.65,18.15,0.65l1.7-11.4c0,0,8.61,0.22,8.98-6.31c0.36-6.53-3.34-29.84-15.29-34.21
			C253.5,442.47,233.19,434.03,233.19,434.03z"/>
		<path class="st24" d="M234.26,466.99c0,0,1.38,3.22,2.3,3.9c0.92,0.69,8.27,0,9.88-3.9"/>
		<path class="st24" d="M254.48,467.91c0,0,2.3,4.59,6.2,5.28c3.9,0.69,4.36-4.59,4.36-4.59"/>
		<path class="st12" d="M262.65,437.09c0.23-0.69,0.63-1.33,0.77-2.05c0.16-0.83-0.05-1.67-0.26-2.48
			c-0.74-2.82-1.57-5.84-0.56-8.57c0.22-0.58,0.52-1.15,0.57-1.77c0.06-0.65-0.16-1.29-0.14-1.94c0.02-0.65,0.42-1.38,1.06-1.41
			c0.84-0.03,1.2,1.04,1.3,1.88c0.36,2.98,0.73,5.97,0.53,8.96c-0.23,3.45-1.2,6.94-0.38,10.3c0.34,1.37,0.97,2.77,0.62,4.14
			c0.53-3.73,1.06-7.46,1.6-11.19c0.34-2.4,0.68-4.88,0.01-7.2c-0.25-0.86-0.62-1.68-0.81-2.55c-0.63-2.89,1.19-6.11,3.99-7.07
			c-0.79,2.31-0.31,4.84-0.06,7.27c0.22,2.07,0.27,4.16,0.32,6.25c0.09,3.77,0.11,7.75-1.77,11.02c-0.61,1.06-1.4,2-2.18,2.92
			c1.64-0.88,2.19-2.95,3.51-4.26c1.79-1.79,4.89-2.06,6.23-4.21c0.46-0.75,0.65-1.64,1.1-2.39s1.35-1.38,2.18-1.08
			c0.82,0.3,1.11,1.39,0.82,2.22c-0.28,0.83-0.97,1.45-1.63,2.02c-3.15,2.77-6.22,5.67-9.46,8.33c-2.67,2.2-4.92,1.52-6.45-1.45
			C262.66,441.06,262,439.02,262.65,437.09z"/>
		<path class="st12" d="M249.61,440.82c-0.99-0.96-2.08-1.88-2.73-3.1c-1.07-2.01-0.76-4.44-0.33-6.68c1.2,1.65,2.31,3.37,3.3,5.15
			c0.84,1.5,1.62,3.06,2.85,4.25c0.74,0.71,1.62,1.27,2.32,2.02c0.99,1.06,1.57,2.44,2.12,3.78c0.5-2.91-1.29-5.77-1.21-8.72
			c0.05-1.98,0.95-3.85,1.19-5.81c0.18-1.51-0.02-3.03,0-4.55c0.03-1.52,0.33-3.12,1.35-4.24c0.81,1.42,0.81,3.14,0.78,4.77
			c-0.04,2.88-0.09,5.76-0.13,8.64c-0.02,1.32-0.04,2.65,0.24,3.94c0.17,0.77,0.44,1.51,0.56,2.29c0.33,2.15-0.04,7.76-3.47,5.77
			C253.65,446.7,251.92,443.07,249.61,440.82z"/>
		<path class="st12" d="M238.81,439.95c-0.69-2.5-0.12-5.17-0.39-7.76c-0.14-1.31-0.58-2.72-1.69-3.43c-0.63-0.4-1.39-0.53-2.09-0.8
			c-1.25-0.48-2.31-1.45-2.9-2.66c0,4.51,2.66,8.52,4,12.82c0.58,1.85,0.95,3.86,2.22,5.34c1.22,1.42,3.21,2.3,3.71,4.11
			c0.08,0.27,0.04,0.66-0.24,0.7c-0.17,0.02-0.31-0.1-0.43-0.22c-2.01-2.01-4.02-4.03-5.68-6.33c-0.76-1.06-1.45-2.18-2.38-3.09
			c-1.64-1.61-4.02-2.46-6.29-2.13c-2.27,0.33-4.35,1.89-5.19,4.03c1.46,0.38,2.91-0.48,4.3-1.06c1.49-0.62,3.22-0.95,4.7-0.32
			c2.17,0.91,3.1,3.44,3.71,5.72c0.24,0.89,0.48,1.81,1.06,2.53c0.77,0.94,2.01,1.37,3.21,1.54c1.12,0.16,2.27,0.14,3.38-0.06
			c0.2-0.04,0.41-0.08,0.56-0.22c0.19-0.17,0.24-0.45,0.26-0.7c0.16-1.8-0.41-3.57-0.73-5.35c-0.32-1.78-0.34-3.77,0.76-5.21
			c0.22-0.29,0.58-0.56,0.9-0.41c0.28,0.13,0.34,0.49,0.37,0.8c0.17,1.89,0.3,3.79,0.41,5.69c0.05,0.89,0.72,3.45-0.51,3.46
			c-1,0-2.18-1.89-2.67-2.57C240.2,442.99,239.26,441.58,238.81,439.95z"/>
		<g>
			<defs>
				<path id="XMLID_97_" d="M253.56,452.06c0,0-1.15-6.2,3.9-6.43c5.05-0.23,2.76,7.12,2.76,7.12"/>
			</defs>
			<use xlink:href="#XMLID_97_"  style="overflow:visible;fill:#FFB240;"/>
			<clipPath id="XMLID_7_">
				<use xlink:href="#XMLID_97_"  style="overflow:visible;"/>
			</clipPath>
			<path class="st38" d="M262.07,447.1c0.04,0.13,0.09,0.25,0.13,0.38c-0.1-0.28-7.78,1.83-8.54,1.84
				C253.49,447.68,260.79,447.2,262.07,447.1z"/>
		</g>
		<g>
			<defs>
				<path id="XMLID_98_" d="M250.11,451.61c0,0-5.05-7.12-8.5-5.97c-3.45,1.15-0.69,7.12-0.69,7.12"/>
			</defs>
			<use xlink:href="#XMLID_98_"  style="overflow:visible;fill:#FFB240;"/>
			<clipPath id="XMLID_8_">
				<use xlink:href="#XMLID_98_"  style="overflow:visible;"/>
			</clipPath>
			<path class="st39" d="M247.67,444.6c-3.97,2.57-7.94,5.14-11.9,7.72c-0.13,0.08-0.27,0.2-0.25,0.36
				c0.04,0.19,0.29,0.22,0.48,0.19c1.54-0.22,2.89-1.12,4.18-2c2.63-1.79,5.25-3.57,7.88-5.36c0.3-0.2,0.62-0.41,0.98-0.44
				c0.36-0.02,0.76,0.22,0.77,0.58c0.01,0.27-0.19,0.49-0.38,0.69c-2.01,2.08-4.02,4.16-6.04,6.25c1.14-0.56,2.22-1.25,3.21-2.03
				c1.25-0.98,2.36-2.12,3.47-3.26c0.04-0.04,0.07-0.07,0.11-0.11"/>
		</g>
		<g>
			<defs>
				<path id="XMLID_96_" d="M262.51,452.52c0-0.69-0.23-10.8,4.13-10.8c4.36,0,1.38,11.25,1.38,11.25"/>
			</defs>
			<use xlink:href="#XMLID_96_"  style="overflow:visible;fill:#FFB240;"/>
			<clipPath id="XMLID_9_">
				<use xlink:href="#XMLID_96_"  style="overflow:visible;"/>
			</clipPath>
			<path class="st40" d="M261.33,448.94c2.15-0.92,4.58-0.69,6.91-0.9c1.04-0.1,2.07-0.28,3.07-0.56c0.31-0.09,0.69-0.28,0.63-0.6
				c-3.64-0.19-7.27,1.33-10.88,0.76c0.03-0.49,0.06-0.98,0.09-1.48c0.01-0.1,0.01-0.21,0.07-0.29c0.07-0.1,0.21-0.14,0.33-0.17
				c3.08-0.71,6.29-0.39,9.43-0.03c0.23,0.03,0.47,0.05,0.68-0.05c0.21-0.1,0.35-0.37,0.24-0.57c-3.49-0.11-6.98-0.22-10.46-0.33"/>
		</g>
		<g>
			<defs>
				<polygon id="XMLID_95_" points="230.2,450.49 231.05,467.4 268,469.99 269.51,449.65 				"/>
			</defs>
			<use xlink:href="#XMLID_95_"  style="overflow:visible;fill:#CE7040;"/>
			<clipPath id="XMLID_10_">
				<use xlink:href="#XMLID_95_"  style="overflow:visible;"/>
			</clipPath>
			<path class="st41" d="M224.64,454.78c19.08-0.81,38.17-1.62,57.26-1.2c-18.93,1.55-37.91,2.41-56.9,2.58
				c-0.65,0.01-1.33,0.02-1.88,0.37c-1.31,0.83-0.85,3.04,0.45,3.9c1.3,0.86,2.97,0.78,4.52,0.72c3.91-0.14,7.83,0.07,11.74,0.28
				c13.83,0.73,27.66,1.46,41.5,2.18c-0.56-0.38-1.11-0.75-1.67-1.13c-1.71,2.56-5.44,2.45-8.5,2.11
				c-15.2-1.71-30.52-2.04-45.81-2.38"/>
		</g>
		<path class="st22" d="M247.48,403.87c0,0-7.02,7.67-10.27,9.23c-1.17-4.81-3.38-11.31,2.47-14.57c5.85-3.25,13.14-3.38,16.39,1.56
			c3.25,4.94,1.55,11.97,1.55,11.97S251.44,407.81,247.48,403.87z"/>
		<path class="st24" d="M238.11,412.44c0,0-1.38-1.51-2.51,0.38c-1.13,1.88,0.88,6.41,3.39,4.65"/>
		<path class="st24" d="M256.73,411.53c0,0,2.36-0.59,2.76,1.26c0.44,2.01-1.26,5.53-3.27,4.52"/>
	</g>
	<g class="st32">
		<path class="st42" d="M308.06,525.14c-1.96,1.49-3.44,7.92,1.16,9.76c-0.82,4.46-1.72,18.62,14.76,23.46
			c18.11,5.32,25.39-12.76,25.39-12.76s8.17-1.46,7.83-3.16c-0.34-1.71-7.3,0.3-7.3,0.3s6.5-6.7,4.77-8.01
			c-1.73-1.31-6.64,5.69-6.64,5.69s1.85-8.22-0.56-7.67c-2.4,0.54-2.68,7.4-2.68,7.4s-6.2,1.49-16.33-0.71
			c-10.13-2.2-11.46-14.62-11.46-14.62S311.89,522.23,308.06,525.14z"/>
		<path class="st43" d="M315.24,525.56c0,0,1.48-4.6-0.11-5.37c-1.59-0.76-2.37,1.76-2.37,1.76s-1.03-3.81-2.52-2.51
			c-1.5,1.3-0.5,2.74-0.5,2.74s-2.65-2.69-3.97,0.21s3.3,3.44,3.3,3.44L315.24,525.56z"/>
		<path class="st43" d="M308.39,533.73c0,0-5.01,5.84-0.97,7.84c4.03,2,2.8-7.5,2.8-7.5"/>
		<path class="st44" d="M307.79,530.16l-4.7,4.16c0,0,5.9,1.25,7.12-0.26C309.96,531.19,307.79,530.16,307.79,530.16z"/>
		<path class="st44" d="M330,543.54c0.49-0.06,8.16,0.09,8.69,1.45c0.54,1.36-2.91,2.14-2.91,2.14s2.82,1.78,2.11,3.06
			c-0.71,1.28-4.67-0.23-4.67-0.23s2.54,3.3,0.61,4.36c-1.92,1.06-7.48-5.47-7.48-5.47S325.34,544.09,330,543.54z"/>
		<polyline class="st44" points="328.56,560.72 328.96,568.28 330.3,568.02 329.96,560.82 		"/>
		<polyline class="st44" points="334.2,560.82 334.06,567.75 335.54,567.88 335.6,560.92 		"/>
		<path class="st42" d="M326.18,557.45c0,0,1.26,5.11,3.38,4.71s1.63-4.57,1.63-4.57"/>
		<path class="st42" d="M331.9,557.09c0,0,1.26,5.11,3.38,4.71c2.12-0.4,1.63-4.57,1.63-4.57"/>
	</g>
	<g class="st32">
		<path class="st42" d="M386.84,522.36c-2.28,0.93-5.39,6.75-1.43,9.72c-1.96,4.09-6.54,17.52,8.11,26.51
			c16.09,9.87,27.04-5.47,27.04-5.47s6.7,4.12,7.67,2.67c1.33-2-5.5-4.67-5.5-4.67s8-1.12,6.67-2.83c-1.33-1.72-7-0.83-7-0.83
			s5.8-5.23,3.33-5.33c-2.46-0.1-7.36,4.34-7.36,4.34s-6.37-0.19-15.57-4.96c-9.2-4.77-9.13-16.86-9.13-16.86
			S391.3,520.55,386.84,522.36z"/>
		<path class="st43" d="M393.65,524.64c0,0,3.75-2.99,2.42-4.14c-1.33-1.15-3.22,0.27-3.22,0.27s0.67-3.49-1.07-3.36
			c-1.97,0.15-2.55,2.53-2.55,2.53s-1.31-3.01-2.55-1.32c-1.07,1.48,0.94,4.66,0.94,4.66L393.65,524.64z"/>
		<path class="st43" d="M384.9,530.73c0,0-6.36,4.32-2.99,7.31c3.37,2.99,4.67-6.51,4.67-6.51"/>
		<path class="st44" d="M385.26,527.13l-5.62,2.79c0,0,5.37,2.75,6.94,1.62C387.08,528.69,385.26,527.13,385.26,527.13z"/>
		<path class="st44" d="M400.16,543.19c0.47-0.4,8.61-5.58,10.11-4.53c1.5,1.05-1.56,4.26-1.56,4.26s4.19-0.1,4.34,1.74
			c0.15,1.84-5.06,3.01-5.06,3.01s4.95,1.69,3.67,4.14c-1.28,2.45-11.64-0.53-11.64-0.53S395.67,547.02,400.16,543.19z"/>
		<polyline class="st44" points="397.31,562.06 397.1,566.91 394.04,571.21 394.52,572.17 399.21,566.91 398.63,562.53 		"/>
		<polyline class="st44" points="402.73,563.63 402.74,568.34 399.4,573.6 400.83,574.18 404.33,568.86 404.05,564.1 		"/>
		<path class="st42" d="M395.86,558.28c0,0-0.12,5.26,2.02,5.43c2.15,0.17,2.77-3.99,2.77-3.99"/>
		<path class="st42" d="M401.48,559.44c0,0-0.12,5.26,2.02,5.43c2.15,0.17,2.77-3.99,2.77-3.99"/>
	</g>
	<path class="st45" d="M440.29,472.24c-7.45,1.49-84.37,1.29-107.7,0.88c-9.01-0.41-7.33-18.88,3.64-22.8
		c10.96-3.92,18.19-2.08,18.19-2.08s1.09-25.32,22.28-22.51c21.19,2.81,24.51,22.42,24.51,22.42s12.37-14.51,28.44-5.38
		C445.71,451.9,440.29,472.24,440.29,472.24z"/>
</g>
<path class="st46" d="M1418.64,60.42c-7.45,1.49-84.37,1.29-107.7,0.88c-9.01-0.41-7.33-18.88,3.64-22.8
	c10.96-3.92,18.19-2.08,18.19-2.08s1.09-25.32,22.28-22.51c21.19,2.81,24.51,22.42,24.51,22.42s12.37-14.51,28.44-5.38
	C1424.07,40.08,1418.64,60.42,1418.64,60.42z"/>
<g class="st31">
	<g class="st32">
		<defs>
			<path id="XMLID_101_" d="M511.44,740.38c-12.34,1.26-24.68,2.51-37.01,3.77c-15.75,1.6-31.6,3.21-47.35,1.61
				c-10.73-1.09-21.34-3.65-32.1-4.03c-11.56-0.41-23.05,1.72-34.56,3c-23.89,2.66-47.95,1.72-71.94,1.4
				c-11.38-0.15-24.85,1.12-30.71,12.41c-0.38,0.74-0.73,1.54-0.77,2.41c-0.14,3.44,4,4.39,6.97,4.27
				c37.22-1.55,72.89,21.45,110.08,19.16c13.95-0.86,27.6-5.28,41.56-6.12c13-0.79,26.11,1.53,39-0.51
				c20.34-3.21,38.9-17.06,59.42-17.91c8.55-0.36,18.22,1.2,24.68-5.3c1.88-1.89,3.29-5.4,1.59-7.52c-0.72-0.9-1.8-1.24-2.82-1.55
				c-6.23-1.89-12.46-3.79-18.69-5.68"/>
		</defs>
		<use xlink:href="#XMLID_101_"  style="overflow:visible;fill:#DAA59C;"/>
		<clipPath id="XMLID_11_">
			<use xlink:href="#XMLID_101_"  style="overflow:visible;"/>
		</clipPath>
		<path class="st47" d="M349.49,729.34c-5.64-0.84-11.04,2.78-15.47,6.91c-4.43,4.12-8.54,8.99-13.83,11.39
			c-6.43,2.92-13.61,1.78-20.51,1.79c-6.56,0.01-13.25,1.17-19.04,4.74c-5.78,3.57-10.56,9.84-11.77,17.3
			c-1.2,7.46,1.77,15.94,7.67,19.25c2.81,1.58,6.95,1.43,8.24-1.87c1.42-3.63-1.66-7.26-3.37-10.71c-3.36-6.77-0.83-16.55,5.2-20.05
			c11.3-6.57,25.42,8.49,36.91,2.39c4.67-2.48,7.56-7.87,11.2-12.06c11.08-12.72,30.98-12.96,42.29-0.53
			c1.74,1.91,3.39,4.62,2.65,7.26c-0.47,1.66-1.78,2.8-3.1,3.67c-4.56,2.99-9.85,4-14.97,5.32c-5.11,1.32-10.38,3.13-14.18,7.3
			c-3.81,4.17-5.64,11.33-2.85,16.47c2.86,5.28,8.99,6.35,14.35,6.91c11.93,1.24,25.1,2.1,34.64-6.29c-6.3-9.58-20-4.9-28.98-10.99
			c-1.31-0.89-2.6-2.2-2.73-3.95c-0.21-2.78,2.47-4.54,4.76-5.4c8.06-3.03,16.69-3.98,25.1-2.76c3.56,0.51,8.5,0.37,9.15-3.72
			c0.17-1.06-0.05-2.16-0.38-3.17c-1.6-4.93-5.6-8.22-9.55-10.84c-1.1-0.73-2.27-1.51-2.81-2.83c-1.54-3.76,3.01-6.85,6.55-7.58
			c26.73-5.52,54.11-0.88,81.17,1.66c10.3,0.97,20.85,1.6,30.81-1.63c4.94-1.61,11.14-3.77,14.5,0.72
			c3.58,4.77-0.37,12.79-5.62,14.52c-5.25,1.73-10.77-0.52-16.05-2.15c-21.12-6.5-44.84-2.47-62.51,12.43
			c-2.93,2.47-5.82,5.45-6.85,9.46c-1.03,4.02,0.61,9.2,4.14,10.15c2.99,0.8,5.96-1.64,7.71-4.55c1.75-2.91,2.76-6.37,4.58-9.22
			c3.73-5.82,10.21-8.18,16.33-9.67c11.81-2.87,24.49-3.68,35.61,1.74c7.07,3.44,13.91,11.69,11.6,20.16
			c6.61-2.98,15.76-2.59,18.54-10.15c0.81-2.19,0.83-4.65,0.85-7.04c0.05-9.42,0.1-18.84,0.16-28.26c0.02-4.3,0.02-8.76-1.54-12.66
			c-3.23-8.05-11.77-10.95-19.39-11.89c-19.47-2.41-39,2.09-58.36,5.41c-29.5,5.06-59.35,7.42-89.17,7.06"/>
	</g>
	<g class="st32">
		<g>
			<defs>
				<path id="XMLID_100_" d="M359.74,753.27c0,0-21.82-11.08-18.71-32.79c3.11-21.7,24.84-16.32,24.84-16.32s-16.38-29.4,2.83-41.08
					c19.21-11.68,29.61-1.57,29.61-1.57s-0.4-27.35,20.1-28.79c20.5-1.44,22.03,25.9,22.03,25.9s7.83-10.37,13.58-7.04
					c5.75,3.34,0.23,15.95,0.23,15.95s19.32-3.7,27.42,4.16s-0.78,25.09-0.78,25.09s9.03-5.83,12.52-1.32
					c3.48,4.51-2.11,11.43-2.11,11.43s28.62,8.71,19.92,37.33C480.69,761.78,359.74,753.27,359.74,753.27z"/>
			</defs>
			<use xlink:href="#XMLID_100_"  style="overflow:visible;fill:#36A29C;"/>
			<clipPath id="XMLID_12_">
				<use xlink:href="#XMLID_100_"  style="overflow:visible;"/>
			</clipPath>
			<path class="st48" d="M366.38,758.88c0,0-10.99-10.95-5.11-18.73c5.87-7.78,17.07-1.96,17.07-1.96s-4.24-17.04,13.9-23.85
				c18.14-6.82,24.58,7.46,24.58,7.46s-0.05-25.2,13.57-29.38s20.1,10.82,20.1,10.82s13.29-7.32,23.07-0.9
				c9.78,6.41,7.1,18.13,7.1,18.13s17.78-11.94,27.52-8.09c9.74,3.85,9.05,34.92,9.05,34.92s-55.02,18.46-92.9,19.29
				C386.45,767.42,366.38,758.88,366.38,758.88z"/>
		</g>
		<path class="st49" d="M377.41,718.48c0,0-1.46-5.49,1.49-5.73c2.95-0.24,1.66,5.49,1.66,5.49L377.41,718.48z"/>
		<path class="st49" d="M452.77,699.82c0,0,0.8-5.63,3.61-4.7c2.81,0.93-0.62,5.7-0.62,5.7L452.77,699.82z"/>
		<path class="st43" d="M384.67,721.17c0.04,3.03-2.38,5.52-5.41,5.57c-3.03,0.04-5.52-2.38-5.57-5.41s2.38-5.52,5.41-5.57
			C382.14,715.71,384.63,718.14,384.67,721.17z"/>
		<g>
			<path class="st49" d="M414.16,683.01c0,0-1.46-5.49,1.49-5.73c2.95-0.24,1.66,5.49,1.66,5.49L414.16,683.01z"/>
			<path class="st43" d="M421.6,686.75c0.04,3.03-2.38,5.52-5.41,5.57s-5.52-2.38-5.57-5.41c-0.04-3.03,2.38-5.52,5.41-5.57
				C419.06,681.3,421.56,683.72,421.6,686.75z"/>
		</g>
		<g>
			<path class="st49" d="M411.29,733.61c0,0-3.01-4.82-0.26-5.92c2.75-1.1,3.2,4.76,3.2,4.76L411.29,733.61z"/>
			<path class="st43" d="M419.5,735c0.93,2.88-0.65,5.98-3.53,6.91s-5.98-0.65-6.91-3.53c-0.93-2.88,0.65-5.98,3.53-6.91
				C415.48,730.53,418.57,732.11,419.5,735z"/>
		</g>
		<g>
			<path class="st49" d="M446.67,721.29c0,0-3.01-4.82-0.26-5.92c2.75-1.1,3.2,4.76,3.2,4.76L446.67,721.29z"/>
			<path class="st43" d="M454.88,722.68c0.93,2.88-0.65,5.98-3.53,6.91c-2.88,0.93-5.98-0.65-6.91-3.53
				c-0.93-2.88,0.65-5.98,3.53-6.91C450.86,718.21,453.95,719.8,454.88,722.68z"/>
		</g>
		<path class="st43" d="M458.16,706.17c-1.14,2.81-4.34,4.16-7.15,3.02c-2.81-1.14-4.16-4.34-3.02-7.15
			c1.14-2.81,4.34-4.16,7.15-3.02C457.95,700.16,459.3,703.36,458.16,706.17z"/>
		<path class="st50" d="M370.09,686.24c0.69,1.83,2.36,3.42,4.31,3.46c1.85,0.04,3.52-1.34,4.31-3.01c0.79-1.67,0.86-3.6,0.75-5.45
			c-0.2-3.33-2.3-9.19-6.76-7.15C369.04,675.76,368.92,683.16,370.09,686.24z"/>
		<path class="st50" d="M381.63,690.37c0.47,0.38,0.97,0.77,1.56,0.86c0.76,0.12,1.52-0.27,2.07-0.82c1.1-1.11,1.43-2.98,0.61-4.32
			C383.37,681.99,377.47,687.02,381.63,690.37z"/>
		<path class="st50" d="M435.62,664.28c0.51,0.17,1.09-0.01,1.49-0.37c0.4-0.35,0.64-0.85,0.81-1.36c0.6-1.83-0.17-10.29-3.49-7.18
			C432.61,657.07,433.11,663.42,435.62,664.28z"/>
		<path class="st50" d="M423.17,654.65c0.38,1.75,1.41,3.42,2.98,4.3c0.4,0.22,0.84,0.4,1.3,0.34c0.6-0.08,1.08-0.55,1.44-1.04
			c1.9-2.52,2.07-6.21,0.43-8.91c-0.68-1.12-1.74-2.11-3.05-2.24C422.8,646.76,422.7,652.49,423.17,654.65z"/>
		<path class="st50" d="M457.27,679.44c0.43,0.23,0.92,0.39,1.41,0.36c1.19-0.08,2.05-1.2,2.42-2.34c0.23-0.72,0.33-1.52,0.05-2.22
			c-0.22-0.56-0.67-1-1.14-1.36c-0.8-0.61-1.81-1.07-2.81-0.93C453.89,673.41,455.16,678.3,457.27,679.44z"/>
		<path class="st50" d="M357.42,727.56c0.38,0.07,0.78,0.05,1.13-0.12c0.4-0.19,0.67-0.57,0.89-0.95c1.67-2.92,0.82-7.02-1.88-9.03
			c-2.43-1.8-5.44-0.68-4.97,2.44C352.97,722.46,354.46,727.04,357.42,727.56z"/>
		<g>
			<path class="st49" d="M384.47,670.06c0,0-1.46-5.49,1.49-5.73c2.95-0.24,1.66,5.49,1.66,5.49L384.47,670.06z"/>
			<path class="st43" d="M391.91,673.8c0.04,3.03-2.38,5.52-5.41,5.57c-3.03,0.04-5.52-2.38-5.57-5.41
				c-0.04-3.03,2.38-5.52,5.41-5.57C389.37,668.34,391.86,670.77,391.91,673.8z"/>
		</g>
	</g>
	<g class="st32">
		<path class="st35" d="M346.81,726.46c0,0,5.93,34.71,5.99,34.79c0.07,0.08-1.07,1.88-1.05,1.99c0.23,1.69-3.87,2.63-3.87,2.63
			l-12.8-37.26"/>
		<path class="st42" d="M350.06,736.51l-11.81,3.1l9.55,29.55c0,0,17.29-4.19,17.7-4.41c0.41-0.23-6.7-3.39-10.8-2.4
			C354.16,760.35,350.06,736.51,350.06,736.51z"/>
		<path class="st35" d="M321.3,727.71c0,0-7.22,34.46-7.18,34.56c0.04,0.1-1.68,1.36-1.71,1.47c-0.41,1.65-4.57,1.03-4.57,1.03
			l1.76-39.36"/>
		<path class="st42" d="M320.26,740.38l-12.12-1.09l-1.59,28.49c0,0,17.62,2.45,18.09,2.39c0.47-0.06-4.99-5.61-9.17-6.2
			C315.71,761.94,320.26,740.38,320.26,740.38z"/>
		<g>
			<path class="st51" d="M378.16,656.67c0,0,6.95-1.11,9.98,0.48c3.03,1.6,4.17,6.19,3.14,7.23c-1.03,1.04-4.67,1.72-4.67,1.72
				l-10.45-3.5"/>
			<g>
				<path class="st49" d="M361.22,673.29c0,0,0.85-4.91,3.29-4.03c2.44,0.89-0.69,4.98-0.69,4.98L361.22,673.29z"/>
				<path class="st43" d="M368.23,676.19c-1.07,2.43-3.92,3.53-6.35,2.46c-2.43-1.07-3.53-3.92-2.46-6.35
					c1.07-2.43,3.92-3.53,6.35-2.46C368.2,670.92,369.3,673.76,368.23,676.19z"/>
			</g>
			<path class="st51" d="M356.04,662.79c0,0,6.95-1.11,9.98,0.48c3.03,1.6,4.17,6.19,3.14,7.23c-0.6,0.6-2.06,1.08-3.2,1.38
				c-0.91,0.24-1.87,0.21-2.76-0.09l-9.16-3.07"/>
			<path class="st34" d="M337.52,617.94c0,0-4.82,2.68-7.31-0.82c-2.49-3.5-1.05-5.9-1.05-5.9s-4.27-0.03-4.73-3.43
				c-0.46-3.4,2.5-4.67,2.5-4.67s-3.26-1.93-2.35-5.89c0.91-3.96,4.27-4.05,4.27-4.05s-2.34-4.59,1.36-7.24
				c3.7-2.65,5.82-0.5,5.82-0.5s2.95-6.65,7.17-6.25c4.22,0.39,5.74,4.13,5.74,4.13s2.33-2.09,5.33-0.94c3,1.15,2.34,4.59,2.34,4.59
				s4.07-2.6,5.99,1.01s-0.25,5.9-0.25,5.9s2.92,1.7,3.12,4.33c0.2,2.63-2.31,4.69-2.31,4.69s2.41,2.74,0.89,5.69
				c-1.52,2.95-4.4,3.66-4.4,3.66s1.42,3.16-1.01,4.69c-2.44,1.52-8.64-0.63-8.64-0.63"/>
			<path class="st35" d="M342,621.06c-1.81-0.19-16.9-0.94-22.76,11.6c-5.86,12.54-2.76,34.16-2.76,34.16l29.38-0.13l6.06-24.02
				c0,0,8.19,18.28,24.33,21.42c1.17-1.71,2.07-3.49,2.74-5.01c0.88-2,0.08-4.34-1.85-5.37c-2.65-1.41-6.52-3.94-10.18-8.04
				C358.79,636.5,350.14,621.92,342,621.06z"/>
			<path class="st51" d="M335,601.69c-1.54,3.83,0.4,13.86,3.37,15.65c2.98,1.79,16.08,3.59,18.63-1.58
				c2.55-5.17,2.48-18.07-0.04-19.8S340.6,587.73,335,601.69z"/>
			<path class="st51" d="M337.68,608.96l-2.7,15.31c0,0,5.33,4.44,10.53,1.41c0.88-3.37,2.44-14.39,2.44-14.39"/>
			<path class="st34" d="M360.04,597.27c0,0-1.6,2.19-5.11,2.08c-3.51-0.11-4.39-3.2-4.39-3.2s-0.58,2.89-3.18,2.9
				s-3.81-3.31-3.81-3.31s-0.01,2.78-1.44,3.7c-1.43,0.92-3.98-0.73-3.98-0.73s1.37,7.61-4.06,9.28c0,0-2.76-5.58-0.06-11.7
				c2.7-6.13,10.62-8.38,17.8-6.65C358.99,591.37,360.04,597.27,360.04,597.27z"/>
			<path class="st51" d="M339.27,603.88c0,0-2.01-5.66-5.63-2.26c-3.62,3.4,0.16,9.67,3.58,7.73"/>
			<path class="st37" d="M326.76,624.18c0,0,8.88,20.24-0.13,38.95c3.84,3.29,4.48,0.92,4.48,0.92s8.51-28.88-1.1-41.55"/>
			<path class="st37" d="M349.26,624.67c0,0,1.77,28.93-8.27,39.52c4.05,1.78,6.06,0.53,6.06,0.53s8.41-26.09,5.72-37.81"/>
			<path class="st37" d="M315.93,664.38c0,0-10.06,10.17-12.04,68.07c26.01,7.18,46.67-1.33,46.67-1.33l-5.85-63.73l5.67-19.26
				l-19.56-3.87l-3.22,16.99L315.93,664.38z"/>
			<path class="st35" d="M318.75,650.29c0,0,4.67,10.34,7.87,12.84c3.2,2.51,27.35,8.25,28.59,7.82c1.24-0.42,4.6-7.64,2.72-9.08
				c-1.87-1.44-21.7-7.71-21.7-7.71l-9.76-21.44"/>
		</g>
	</g>
	<g class="st32">
		<path class="st52" d="M393.61,729c0,0-7.3-11.1-1.17-17.82c6.13-6.72,12.56,16.07,12.56,16.07l-3.21,0.29
			c0,0-3.8-17.23-7.01-12.85c-3.21,4.38,2.63,13.73,2.63,13.73"/>
		<path class="st52" d="M425.45,728.41c0,0-1.46-16.36,6.72-17.82c8.18-1.46,3.21,18.11,3.21,18.11l-3.21-0.88
			c0,0,3.51-14.61-0.29-13.14c-3.8,1.46-3.8,14.02-3.8,14.02"/>
		<path class="st43" d="M430.45,721.36c2.25,2.03,2.43,5.5,0.39,7.75c-2.03,2.25-5.5,2.43-7.75,0.4c-2.25-2.03-2.43-5.5-0.39-7.75
			C424.73,719.51,428.2,719.33,430.45,721.36z"/>
		<path class="st43" d="M422.85,717.92c2.25,2.03,2.43,5.5,0.39,7.75c-2.03,2.25-5.5,2.43-7.75,0.39c-2.25-2.03-2.43-5.5-0.4-7.75
			C417.13,716.07,420.6,715.89,422.85,717.92z"/>
		
			<ellipse transform="matrix(1 -4.255482e-03 4.255482e-03 1 -3.0919 1.7641)" class="st43" cx="413.01" cy="727.44" rx="5.49" ry="5.49"/>
		<path class="st43" d="M408.23,721.36c2.25,2.03,2.43,5.5,0.39,7.75c-2.03,2.25-5.5,2.43-7.75,0.4c-2.25-2.03-2.43-5.5-0.39-7.75
			C402.51,719.51,405.98,719.33,408.23,721.36z"/>
		<g>
			<defs>
				<path id="XMLID_102_" d="M391.41,725.95l7.63,43.22c0,0,7.72,2.18,17.65,2.18c9.93,0,14.31-3.27,14.31-3.27l5.81-42.49
					L391.41,725.95z"/>
			</defs>
			<use xlink:href="#XMLID_102_"  style="overflow:visible;fill:#CE7040;"/>
			<clipPath id="XMLID_13_">
				<use xlink:href="#XMLID_102_"  style="overflow:visible;"/>
			</clipPath>
			<path class="st53" d="M394.67,773.69c11.41-4.37,22.44-9.69,33.44-15.01c4.54-2.19,9.52-4.88,11.01-9.7
				c-5.2,3.14-10.43,6.23-15.69,9.27c-11.28,6.51-22.99,12.9-35.86,14.92"/>
			<path class="st53" d="M396.13,761.13c11.41-4.37,22.44-9.69,33.44-15.01c4.54-2.19,9.52-4.88,11.01-9.7
				c-5.2,3.14-10.43,6.23-15.69,9.27c-11.28,6.51-22.99,12.9-35.86,14.92"/>
			<path class="st53" d="M397.59,748.57c11.41-4.37,22.44-9.69,33.44-15.01c4.54-2.19,9.52-4.88,11.01-9.7
				c-5.2,3.14-10.43,6.23-15.69,9.27c-11.28,6.51-22.99,12.9-35.86,14.92"/>
			<path class="st53" d="M399.05,736.01c11.41-4.37,22.44-9.69,33.44-15.01c4.54-2.19,9.52-4.88,11.01-9.7
				c-5.2,3.14-10.43,6.23-15.69,9.27c-11.28,6.51-22.99,12.9-35.86,14.92"/>
			<path class="st53" d="M369.35,735.02c11,10.63,22.87,20.31,34.72,29.97c4.89,3.98,10.58,8.21,16.82,7.35
				c-6.31-4.23-12.58-8.53-18.81-12.88c-13.35-9.34-26.8-19.24-35.9-32.76"/>
			<path class="st53" d="M384.36,730.02c11,10.63,22.87,20.31,34.72,29.97c4.89,3.98,10.58,8.21,16.82,7.35
				c-6.31-4.23-12.58-8.53-18.81-12.88c-13.35-9.34-26.8-19.24-35.9-32.76"/>
			<path class="st53" d="M399.38,725.03c11,10.63,22.87,20.31,34.72,29.97c4.89,3.98,10.58,8.21,16.82,7.35
				c-6.31-4.23-12.58-8.53-18.81-12.88c-13.35-9.34-26.8-19.24-35.9-32.76"/>
			<path class="st53" d="M414.39,720.03c11,10.63,22.87,20.31,34.72,29.97c4.89,3.98,10.58,8.21,16.82,7.35
				c-6.31-4.23-12.58-8.53-18.81-12.88c-13.35-9.34-26.8-19.24-35.9-32.76"/>
		</g>
	</g>
</g>
<g>
	<path class="st54" d="M1623.1,559.42l36.81-31.49c0,0,27.23,10.91,27.83,13.34c0.59,2.43-1.93,3.94-1.93,3.94L1661,533.7
		l-37.07,32.12"/>
	<path class="st42" d="M1672.9,532.24l-2.23,6.88c0,0,17.54,10.95,20.12,11.55c2.58,0.6,6.17-5.42,5.32-8.17
		C1695.26,539.75,1672.9,532.24,1672.9,532.24z"/>
	<path class="st51" d="M1694.21,528.24c0,0-19.96,8.21-19.67,12.13c0.45,6.16,7.17,8.1,10.18,9.41
		c3.01,1.31,15.51-10.88,15.51-10.88"/>
	<path class="st55" d="M1691.43,528.7c0,0,3.94,12.27,9.73,12.5c5.85,0.23,39.65-6.64,46.23-14.24
		c6.17-7.12,20.39-50.68,20.39-50.68s-9.33-19.84-18.23-13.67c-8.9,6.16-19.84,45.83-19.84,45.83S1692.11,522.54,1691.43,528.7z"/>
	<path class="st51" d="M1747.65,456.18l-14.99-10.85c0,0-3.83-12.76-9.57-15.95c-5.74-3.19-20.87,1.07-20.73,16.91
		c0.16,18.75,8.41,26.07,12.88,26.38c4.47,0.32,11.37-5.97,11.37-5.97l10.53,6.38"/>
	<g>
		<defs>
			<path id="XMLID_103_" d="M1562.15,638.95c-83.99-8.08-168.18-20.87-250.89-3.21c-6.87,1.47-15.07,4.44-16.33,11.73
				c-1.24,7.19,5.33,13.08,11.52,16.37c34.64,18.4,75.87,8.94,114.51,5.56c32.92-2.88,66.22-0.98,98.65,5.65
				c26.1,5.33,52.07,13.74,78.63,12.64c24.96-1.03,48.82-10.38,72.99-17.01c40.76-11.19,63.69,9.47,105.62,13.75
				c13.52,1.38,100.15-16.35,90.38-49.16c-4.79-16.08-50.57-15.06-61.56-13.3C1710.34,637.27,1649.71,647.37,1562.15,638.95z"/>
		</defs>
		<use xlink:href="#XMLID_103_"  style="overflow:visible;fill:#7CCE81;"/>
		<clipPath id="XMLID_14_">
			<use xlink:href="#XMLID_103_"  style="overflow:visible;"/>
		</clipPath>
		<path class="st56" d="M1492.55,590.78c-36.28,2.92-73.13,8.32-105.64,24.69c-32.51,16.37-60.38,45.37-67.4,81.08
			c6.51,8.49,20.91,2.32,26.12-7.03c5.21-9.35,6.06-20.91,12.59-29.4c5.02-6.53,12.72-10.34,20.2-13.78
			c30.24-13.93,61.53-25.59,93.51-34.87c19.74-5.73,46.45-7.7,55.46,10.77c-5.48,15.3-31.38,9.93-41.06,22.99
			c-2.5,3.37-3.55,7.6-4.09,11.76c-2.67,20.46,6.34,42.04,22.77,54.52c8.97-12.95-9.5-30.59-4.28-45.45
			c2.22-6.32,8.23-10.4,13.86-14.02c24.82-15.95,49.64-31.9,74.46-47.85c7.59-4.88,15.41-9.85,24.24-11.7
			c14.87-3.11,29.93,3.06,43.87,9.09c27.18,11.77,55.04,23.99,76.13,44.79c18.83,18.58,38.4,45.98,64.09,39.68
			c-23.87-28.23-49.74-54.77-77.35-79.36"/>
	</g>
	<g>
		<path class="st12" d="M1573.49,544.3c-0.52-2.49-2.74-4.28-5.06-5.31c-2.32-1.02-4.87-1.48-7.19-2.5
			c-0.94-0.41-1.88-0.94-2.48-1.78c-0.71-1.01-0.84-2.3-1.02-3.52c-0.45-3.1-1.5-6.3-3.84-8.38s-6.26-2.62-8.57-0.49
			c-2.1,1.94-2.67,5.66-5.44,6.37c0.2,1.62,0.39,3.24,0.59,4.86c-4.78-0.3-9.45,3.61-9.99,8.37c-0.08,0.68-0.09,1.42-0.47,1.99
			c-0.47,0.72-1.37,0.99-2.16,1.32c-4.98,2.05-7.71,7.7-7.92,13.08c-0.2,5.38,1.63,10.61,3.44,15.69
			c12.91-4.89,25.53-10.57,37.74-17.01"/>
		<path class="st12" d="M1617.04,544.48c2.7-4.27,4.41-9.16,4.95-14.17c0.21-1.92,0.09-4.21-1.5-5.32c-1.53-1.07-3.9-0.61-5.14-2.02
			c-0.89-1.01-0.76-2.54-0.47-3.85c0.8-3.59,2.45-6.97,3.06-10.59c0.61-3.63-0.11-7.85-3.1-9.99c-3.57-2.55-9.44-0.31-10.41,3.97
			c-0.33-3.48-1.47-7.01-3.92-9.5c-2.46-2.48-6.43-3.65-9.59-2.16c-4.78,2.26-5.37,9.16-3.01,13.9c0.52,1.04,1.15,2.26,0.62,3.29
			c-0.32,0.64-1,1-1.56,1.43c-2.01,1.56-2.7,4.59-1.56,6.87c0.52,1.05,1.39,1.96,1.6,3.11c0.43,2.29-1.75,4.11-3.4,5.76
			c-5.15,5.16-6.35,13.81-2.82,20.19c3.54,6.37,11.51,9.93,18.62,8.3"/>
		<polyline class="st54" points="1626.69,585.35 1642.1,622.19 1637.01,624.93 1591.43,608.14 1599.5,603.02 1636.1,619.15 
			1620.64,588.73 		"/>
		<g>
			<defs>
				<path id="XMLID_105_" d="M1613.72,548.74c0,0-7.26-24.43-29.33-18.39c-22.06,6.04-24.34,29.41-14.06,40.58"/>
			</defs>
			<use xlink:href="#XMLID_105_"  style="overflow:visible;fill:#FFB240;"/>
			<clipPath id="XMLID_15_">
				<use xlink:href="#XMLID_105_"  style="overflow:visible;"/>
			</clipPath>
			<path class="st57" d="M1579.73,524.76c12.86,4.32,22.95,16.02,25.31,29.39c0.22,1.24,0.33,2.67-0.5,3.62
				c-3.21-6.68-3.05-14.86-7.46-20.82c-3.19-4.31-8.29-6.73-13.27-8.72c-5.51-2.2-11.15-4.07-16.88-5.61
				c-0.5-0.13-1.05-0.26-1.5-0.03c-0.32,0.16-0.54,0.48-0.71,0.8c-1.17,2.25-0.51,5.11,0.97,7.17c1.48,2.06,3.66,3.5,5.78,4.89
				c5.75,3.76,11.49,7.52,17.24,11.28c2.88,1.89,5.84,3.86,7.71,6.75c1.86,2.89,2.32,6.99,0.14,9.65c-1.51-1.85-2.22-4.21-3.25-6.36
				c-2.64-5.49-7.47-9.68-12.82-12.61c-5.34-2.92-11.22-4.71-17.05-6.47c-0.67-0.2-1.45-0.4-2.04-0.01
				c-1.01,0.65-0.55,2.2,0.01,3.26c2.48,4.68,4.97,9.36,7.45,14.03c1.05,1.97,2.11,3.97,3.69,5.55c3.66,3.67,9.41,4.48,13.33,7.88
				c-4.44-1.02-8.78-2.49-12.93-4.38c-2.46-1.12-4.89-2.42-6.83-4.3c-2.2-2.14-3.66-4.91-5.07-7.64
				c-3.11-5.99-6.23-11.98-9.34-17.98"/>
		</g>
		<g>
			<defs>
				<path id="XMLID_104_" d="M1549.33,583.61c0,0-23.9-21.8-38.04-19.57c-14.14,2.23-17.03,16.33-14.19,23.55
					c2.84,7.22,17.55,19.39,17.55,19.39"/>
			</defs>
			<use xlink:href="#XMLID_104_"  style="overflow:visible;fill:#FF4A40;"/>
			<clipPath id="XMLID_16_">
				<use xlink:href="#XMLID_104_"  style="overflow:visible;"/>
			</clipPath>
			<path class="st58" d="M1508.45,554.89c11.29,8.8,20.17,20.67,25.4,34c1.69,4.31,2.96,9.39,0.64,13.39
				c-10.61-13.07-12.15-32.46-24.79-43.57c-1.49-1.31-3.2-2.51-5.17-2.71c0.11,2.17,1.54,4.03,2.91,5.71
				c4.42,5.45,8.97,10.83,12.59,16.83c3.62,6.01,6.3,12.74,6.6,19.74c0.07,1.73-0.52,4.02-2.25,4.04c-0.82,0.01-1.52-0.56-2.14-1.11
				c-3.85-3.43-7.4-7.2-10.6-11.23c-2.81-3.54-5.44-7.37-9.21-9.86c-5.57-3.67-12.72-3.81-18.88-6.39
				c3.18,6.18,10.21,9.09,16.24,12.55c12.43,7.15,22.34,18.6,27.63,31.92"/>
		</g>
		<g>
			<defs>
				<polyline id="XMLID_106_" points="1624.5,546.48 1639.3,588.92 1526.88,638.58 1505.12,613.23 				"/>
			</defs>
			<use xlink:href="#XMLID_106_"  style="overflow:visible;fill:#E8DBDE;"/>
			<clipPath id="XMLID_17_">
				<use xlink:href="#XMLID_106_"  style="overflow:visible;"/>
			</clipPath>
			<polygon class="st59" points="1624.11,537.55 1632.08,556.13 1507.89,632.27 1498.54,623.68 			"/>
		</g>
		
			<ellipse transform="matrix(0.8514 -0.5246 0.5246 0.8514 -110.0679 907.8988)" class="st19" cx="1547.12" cy="648.18" rx="22.34" ry="22.34"/>
		<path class="st18" d="M1540.32,650.23c1.13,3.75,5.09,5.88,8.84,4.75c3.75-1.13,5.88-5.09,4.75-8.84
			c-1.13-3.75-5.09-5.88-8.84-4.75C1541.32,642.52,1539.19,646.48,1540.32,650.23z"/>
		<path class="st25" d="M1505,568.92c0,0-8.35-10.68-14.64-8.35c-2.99,3.58-2.14,6.11-2.14,6.11s10.79,3.63,13,6.39
			C1505.61,572.82,1505,568.92,1505,568.92z"/>
		<path class="st25" d="M1579.94,535.33c0,0-7.75-4.11-7.94-10.89c-0.18-6.78,6.31-1.29,6.31-1.29s-2.52-8.48-8.23-5.22
			c-5.7,3.27-5.42,14.47,6.03,19.48C1579.06,537.25,1579.94,535.33,1579.94,535.33z"/>
		<g>
			<defs>
				<path id="XMLID_107_" d="M1577.73,561.01c0,0-12.37-25.19-35.22-14.58c-22.85,10.61-21.03,36.41-7.82,46.64"/>
			</defs>
			<use xlink:href="#XMLID_107_"  style="overflow:visible;fill:#FF9D40;"/>
			<clipPath id="XMLID_22_">
				<use xlink:href="#XMLID_107_"  style="overflow:visible;"/>
			</clipPath>
			<path class="st60" d="M1536.41,541.22c14.76,2.32,27.86,13.19,32.88,27.26c0.47,1.31,0.85,2.84,0.13,4.03
				c-4.71-6.66-6.04-15.58-11.93-21.24c-4.26-4.09-10.23-5.79-16.01-7.03c-6.39-1.37-12.85-2.37-19.36-2.99
				c-0.56-0.05-1.18-0.09-1.64,0.25c-0.32,0.24-0.5,0.62-0.62,1c-0.86,2.66,0.38,5.64,2.37,7.61c1.99,1.97,4.61,3.13,7.18,4.25
				c6.93,3.03,13.86,6.06,20.79,9.09c3.47,1.52,7.05,3.11,9.61,5.91c2.55,2.8,3.8,7.16,1.92,10.46c-1.98-1.73-3.18-4.16-4.7-6.31
				c-3.87-5.48-9.89-9.14-16.23-11.34c-6.34-2.2-13.05-3.05-19.71-3.89c-0.77-0.1-1.65-0.16-2.22,0.36
				c-0.97,0.9-0.19,2.49,0.61,3.54c3.56,4.62,7.11,9.25,10.67,13.87c1.5,1.95,3.02,3.92,5.02,5.35c4.65,3.32,11.04,3.14,15.92,6.11
				c-5.01-0.29-9.99-1.09-14.84-2.38c-2.88-0.77-5.75-1.73-8.21-3.41c-2.79-1.92-4.87-4.66-6.91-7.36
				c-4.48-5.93-8.96-11.87-13.45-17.8"/>
		</g>
		<polygon class="st61" points="1624.51,530.67 1629.51,545.46 1503.17,621.17 1494.61,611.38 		"/>
		<path class="st12" d="M1539.2,572.96c1.42-2.67,4.56-3.96,7.55-4.44c6.7-1.09,13.83,0.9,19,5.3c2,1.71,3.7,3.74,5.39,5.75
			c1.92,2.29,3.83,4.58,5.75,6.87c-4.77,3.51-11.37,4.38-16.87,2.2c-3.77-1.49-7.04-4.28-11.02-5.02
			c-2.96-0.56-20.22,6.19-20.22,6.19C1526.67,587.87,1538.06,575.12,1539.2,572.96z"/>
		<path class="st54" d="M1630.88,565.17l29.03-25.29c0,0,27.23,10.91,27.83,13.34c0.59,2.43-1.93,3.94-1.93,3.94l-24.81-11.5
			l-28.3,24.55"/>
		<path class="st42" d="M1672.9,544.2l-2.23,6.88c0,0,17.54,10.95,20.12,11.55c2.58,0.6,6.17-5.42,5.32-8.17
			C1695.26,551.71,1672.9,544.2,1672.9,544.2z"/>
		<path class="st12" d="M1516.12,598.23l-19.5,13.3c0,0-2.57,8.93-6.1,11.76c-3.53,2.83-2.68-9.81-3.09-15.99
			C1487.02,601.12,1505.38,591.4,1516.12,598.23z"/>
	</g>
	<path class="st35" d="M1751.9,454.34c0,0,32.87,10.27,50.68,48.63c-0.68,13.7-41.78,27.39-41.78,27.39l-28.08-47.26
		C1732.73,483.11,1731.36,459.14,1751.9,454.34z"/>
	<path class="st22" d="M1801.39,621.43l8.05,16.12c0,0-13.45,11.99-9.95,16.09c3.5,4.1,26.46-17.12,26.46-17.12l-10.56-20.98"/>
	<path class="st62" d="M1766.92,545.01c0,0-1.41,22.16,5.72,41.74c7.13,19.58,22.8,36.59,26.34,39.45
		c7.08,5.71,19.2-2.41,20.12-9.49c1.08-8.29-23.73-41.75-23.73-41.75l9.26-42.94"/>
	<path class="st22" d="M1750.75,635.58l10.95,14.31c0,0-10.95,14.31-6.74,17.68s24.15-20.17,24.15-20.17l-15.73-20.24"/>
	<path class="st37" d="M1760.81,530.36c0,0-43.88,35.61-43.15,54.1c0.49,12.34,23.78,51.83,28.08,54.79
		c8.08,5.56,20.44-3.07,22.66-10.7c1.55-5.32-18.55-44.77-18.55-44.77s41.09-23.29,52.73-35.61c11.64-12.33,0-45.2,0-45.2
		L1760.81,530.36z"/>
	<path class="st51" d="M1692.84,536.62c0,0-20.16,7.72-19.97,11.63c0.3,6.17,6.97,8.28,9.94,9.66c2.97,1.38,15.78-10.49,15.78-10.49
		"/>
	<path class="st35" d="M1690.05,537.02c0,0,3.63,12.37,9.41,12.74c5.84,0.38,39.8-5.65,46.57-13.08
		c6.34-6.96,21.64-50.16,21.64-50.16s-8.83-20.06-17.88-14.12c-9.05,5.94-20.98,45.32-20.98,45.32S1690.89,530.87,1690.05,537.02z"
		/>
	<path class="st25" d="M1700.19,441.06c0,0-4.52,6.15-2.64,8.95c1.87,2.8,7.83,0.51,7.83,0.51s-0.46,3.32,3.07,4.37
		c3.52,1.05,7.57-3.75,7.57-3.75s0.27,6.24,3.39,6.11c3.12-0.13,4.76-3.86,4.76-3.86s6.2,6.22,11.92,3.62
		c5.72-2.6,3.68-14.45,3.68-14.45L1700.19,441.06z"/>
	<path class="st42" d="M1679.07,441.26c0,0,40.89,16.56,75.28-2.87C1740.63,432.97,1690.55,429.78,1679.07,441.26z"/>
	<g>
		<defs>
			<path id="XMLID_108_" d="M1699.16,438.95c0,0-0.32-13.72,6.06-15.63c6.38-1.91,32.22-5.74,28.39,15.31c0,0-3.83,3.83-16.27,3.51
				C1704.9,441.82,1699.16,438.95,1699.16,438.95z"/>
		</defs>
		<use xlink:href="#XMLID_108_"  style="overflow:visible;fill:#FFB240;"/>
		<clipPath id="XMLID_23_">
			<use xlink:href="#XMLID_108_"  style="overflow:visible;"/>
		</clipPath>
		<path class="st63" d="M1696.61,432.57c0,0,8.93,1.91,22.97,1.91c14.04,0,19.78-6.06,19.78-6.06l0.96,13.4l-44.02,3.83
			L1696.61,432.57z"/>
	</g>
</g>
<g>
	<path class="st64" d="M1704.3,93.43c0,6.68-10.32,11.92-11.97,18.08c-1.7,6.38,4.57,16.06,1.34,21.64
		c-3.28,5.66-14.83,5.05-19.42,9.65c-4.6,4.6-3.99,16.15-9.65,19.42c-5.58,3.23-15.27-3.04-21.64-1.34
		c-6.16,1.65-11.4,11.97-18.08,11.97s-11.92-10.32-18.08-11.97c-6.37-1.7-16.06,4.56-21.64,1.34c-5.66-3.28-5.05-14.83-9.65-19.42
		c-4.6-4.6-16.15-3.99-19.43-9.65c-3.23-5.58,3.04-15.27,1.34-21.64c-1.65-6.16-11.97-11.4-11.97-18.08
		c0-6.68,10.32-11.92,11.97-18.08c1.7-6.37-4.57-16.06-1.34-21.64c3.28-5.66,14.83-5.05,19.42-9.65c4.6-4.6,3.99-16.15,9.65-19.42
		c5.58-3.23,15.27,3.04,21.64,1.34c6.16-1.65,11.4-11.97,18.08-11.97s11.92,10.32,18.08,11.97c6.38,1.7,16.06-4.57,21.64-1.34
		c5.66,3.28,5.06,14.83,9.65,19.42c4.6,4.6,16.15,3.99,19.43,9.65c3.23,5.58-3.04,15.27-1.34,21.64
		C1693.98,81.51,1704.3,86.75,1704.3,93.43z"/>
	<circle class="st65" cx="1624.88" cy="93.43" r="67.54"/>
	<path class="st64" d="M1664.48,38.73c8.07,11.13,12.85,24.81,12.85,39.6c0,37.3-30.24,67.54-67.54,67.54
		c-14.8,0-28.48-4.77-39.61-12.84c12.27,16.92,32.19,27.93,54.69,27.93c37.3,0,67.54-30.24,67.54-67.54
		C1692.42,70.92,1681.4,51.01,1664.48,38.73z"/>
</g>
<path class="st46" d="M1843.36,180.73c-8.49,1.69-96.05,1.46-122.62,1c-10.26-0.47-8.34-21.5,4.14-25.96
	c12.48-4.46,20.71-2.37,20.71-2.37s1.24-28.83,25.36-25.63c24.12,3.2,27.9,25.52,27.9,25.52s14.08-16.52,32.38-6.12
	C1849.53,157.57,1843.36,180.73,1843.36,180.73z"/>
</svg>
