<?xml version="1.0" encoding="utf-8"?>
<!-- Generator: Adobe Illustrator 24.3.0, SVG Export Plug-In . SVG Version: 6.00 Build 0)  -->
<svg version="1.1" id="Layer_1" xmlns="http://www.w3.org/2000/svg" xmlns:xlink="http://www.w3.org/1999/xlink" x="0px" y="0px"
	 viewBox="0 0 1920 800" style="enable-background:new 0 0 1920 800;" xml:space="preserve">
<style type="text/css">
	.st0{fill:#8CBF62;}
	.st1{fill:#73AF4D;}
	.st2{fill:#3B722F;}
	.st3{fill:#275B1E;}
	.st4{fill:#64A03D;}
	.st5{fill:#FFFFFF;stroke:#000000;stroke-miterlimit:10;}
	.st6{fill:#CED1EF;}
	.st7{fill:#B7BDE5;}
	.st8{fill:#B7BDE2;}
	.st9{fill:#609E51;}
	.st10{fill:#48823B;}
	.st11{fill:#36A29C;}
	.st12{opacity:0.45;}
	.st13{fill:none;stroke:#9F4CB1;stroke-linecap:round;stroke-miterlimit:10;}
	.st14{fill:#FFB15E;}
	.st15{fill:none;stroke:#FFFF83;stroke-linecap:round;stroke-miterlimit:10;}
	.st16{opacity:0.2;clip-path:url(#XMLID_2_);fill:#D1597C;}
	.st17{fill:#7B727E;}
	.st18{fill:#4B3E4F;}
	.st19{clip-path:url(#XMLID_3_);fill:#5D5261;}
	.st20{fill:#6ABA73;}
	.st21{fill:#FFE06D;}
	.st22{fill:#FFFFFF;}
	.st23{fill:#C68863;}
	.st24{fill:#004A8B;}
	.st25{fill:#C9ADB4;}
	.st26{clip-path:url(#XMLID_4_);fill:#FF705F;}
	.st27{fill:#FFB25F;}
	.st28{fill:#C26D68;}
	.st29{fill:#BCB2C4;}
	.st30{fill:#CEB2B8;}
	.st31{fill:#FFB240;}
	.st32{fill:#F69592;}
	.st33{fill:#D2BAC0;}
	.st34{opacity:0.2;clip-path:url(#XMLID_5_);fill:#D1597C;}
	.st35{opacity:0.2;clip-path:url(#XMLID_6_);fill:#D1597C;}
	.st36{opacity:0.2;clip-path:url(#XMLID_7_);fill:#D1597C;}
	.st37{opacity:0.2;clip-path:url(#XMLID_8_);fill:#AE597C;}
	.st38{fill:#7E4747;}
	.st39{opacity:0.2;clip-path:url(#XMLID_9_);fill:#D1597C;}
	.st40{fill:#E8DBDE;}
	.st41{fill:#DAC6CB;}
	.st42{fill:#3B2D57;}
	.st43{fill:#4F4268;}
	.st44{clip-path:url(#XMLID_10_);fill:#FF705F;}
</style>
<path class="st0" d="M1317.83,547.27c-322.58-63.8-1250,42.28-1388.82,71.16c-52.04,9.54-89.43,58.65-67.72,70.78
	c77.09,43.06,98.08,31.27,132.96,69.98L1920,782V527C1920,527,1642.11,611.4,1317.83,547.27z"/>
<path class="st1" d="M-77.32,796c0.44,0.03,148.28-6,148.72-6c54.88-1.2,137.79-11.63,236.46-12c284.05-1.05,366.62,17,593.38,18
	c277.27,1.22,281.97-20.76,533.9-19c205.25,1.43,371.54,11.24,477.38,19c11.02-0.02,17.49-2.56,19.83-4.16
	c10.24-7.02,4.38-22.15,4.38-39.39v0c0-15.22-11.96-29.29-31.43-37.07c-61.1-24.42-208.85-66.2-421.68-14.55
	c-100.1,24.29-337.9,35.2-602.32,41.95C694.53,747.55-142.01,552.64-257.79,652c-25.89,22.22,35.23,56.12,71.91,93
	C-174.02,756.92-129.37,793-77.32,796z"/>
<g>
	<path class="st2" d="M1815.68,457.49c0,0,19.2-41-18.37-55c0,0,12.15-24.3-13.98-44.01c0,0,0.35-29.86-17.67-46.14
		c-18.02,16.28-17.67,46.14-17.67,46.14c-26.14,19.71-13.98,44.01-13.98,44.01c-37.56,14-18.37,55-18.37,55
		c-46.37,38.03,50.02,77.06,50.02,77.06S1862.05,495.52,1815.68,457.49z"/>
	<path class="st3" d="M1774.2,363.08c0,0,19.6,14.82,14.58,41.59c0,0,28.2,18.64,8.6,51.39c0,0,13.71,29.32-16.25,52.9
		c-29.57,23.28-72.24-14.02-73.34-14.99c14.58,23.03,57.87,40.59,57.87,40.59s96.39-39.04,50.02-77.06c0,0,19.2-41-18.37-55
		c0,0,12.15-24.3-13.98-44.01c0,0,0.35-29.86-17.67-46.14C1765.66,312.35,1779.93,336.55,1774.2,363.08z"/>
</g>
<g>
	<path class="st1" d="M1919.44,492.98c0,0,14.54-31.07-13.92-41.68c0,0,9.21-18.41-10.6-33.34c0,0,0.27-22.62-13.39-34.96
		c-13.65,12.34-13.39,34.96-13.39,34.96c-19.8,14.93-10.59,33.34-10.59,33.34c-28.47,10.61-13.92,41.68-13.92,41.68
		c-35.14,28.82,37.9,58.39,37.9,58.39S1954.58,521.8,1919.44,492.98z"/>
	<path class="st4" d="M1888.01,421.44c0,0,14.85,11.23,11.05,31.51c0,0,21.37,14.12,6.52,38.94c0,0,10.39,22.22-12.31,40.09
		c-22.41,17.64-54.74-10.63-55.58-11.36c11.05,17.45,43.85,30.76,43.85,30.76s73.04-29.58,37.9-58.39c0,0,14.54-31.07-13.92-41.68
		c0,0,9.21-18.41-10.6-33.34c0,0,0.27-22.62-13.39-34.96C1881.54,383,1892.36,401.34,1888.01,421.44z"/>
</g>
<g>
	<path class="st2" d="M1508.35,454.31c0,0,19.2-41-18.37-55c0,0,12.15-24.3-13.98-44.01c0,0,0.35-29.86-17.67-46.14
		c-18.02,16.28-17.67,46.14-17.67,46.14c-26.14,19.71-13.98,44.01-13.98,44.01c-37.56,14-18.37,55-18.37,55
		c-46.37,38.03,50.02,77.06,50.02,77.06S1554.72,492.34,1508.35,454.31z"/>
	<path class="st3" d="M1466.87,359.9c0,0,19.6,14.82,14.58,41.59c0,0,28.2,18.64,8.6,51.39c0,0,13.71,29.32-16.25,52.9
		c-29.57,23.28-72.24-14.02-73.34-14.99c14.58,23.03,57.87,40.59,57.87,40.59s96.39-39.04,50.02-77.06c0,0,19.2-41-18.37-55
		c0,0,12.15-24.3-13.98-44.01c0,0,0.35-29.86-17.67-46.14C1458.33,309.17,1472.61,333.37,1466.87,359.9z"/>
</g>
<g>
	<path class="st1" d="M1612.12,489.8c0,0,14.54-31.07-13.92-41.68c0,0,9.21-18.41-10.6-33.34c0,0,0.27-22.62-13.39-34.96
		c-13.65,12.34-13.39,34.96-13.39,34.96c-19.8,14.93-10.59,33.34-10.59,33.34c-28.47,10.61-13.92,41.68-13.92,41.68
		c-35.14,28.82,37.9,58.39,37.9,58.39S1647.25,518.62,1612.12,489.8z"/>
	<path class="st4" d="M1580.68,418.26c0,0,14.85,11.23,11.05,31.51c0,0,21.37,14.12,6.52,38.94c0,0,10.39,22.22-12.31,40.09
		c-22.41,17.64-54.74-10.63-55.58-11.36c11.05,17.45,43.85,30.76,43.85,30.76s73.04-29.58,37.9-58.39c0,0,14.54-31.07-13.92-41.68
		c0,0,9.21-18.41-10.6-33.34c0,0,0.27-22.62-13.39-34.96C1574.21,379.82,1585.03,398.16,1580.68,418.26z"/>
</g>
<path class="st5" d="M298.54,795.87"/>
<path class="st5" d="M298.96,1"/>
<g>
	<g>
		<g>
			<path class="st6" d="M1435.97,227.84L1435.97,227.84c-10.49-5.13-14.84-17.78-9.72-28.27l29.3-59.98l0,0
				C1467.77,156.84,1435.97,227.84,1435.97,227.84z"/>
			<path class="st7" d="M1457.95,146.19c-0.1-0.15-0.19-0.31-0.29-0.46l-29.3,59.98c-2.05,4.19-2.56,8.72-1.8,12.98
				c-3.04-5.76-3.4-12.83-0.32-19.14l29.3-59.98C1456.76,141.29,1457.54,143.54,1457.95,146.19z"/>
		</g>
		<g>
			<path class="st7" d="M1435.97,227.84L1435.97,227.84c4.18,10.9-1.26,23.13-12.16,27.31l-62.33,23.92l0,0
				C1364.3,258.11,1435.97,227.84,1435.97,227.84z"/>
			<path class="st6" d="M1364.23,272.59c-0.03,0.18-0.07,0.36-0.1,0.53l62.32-23.92c4.36-1.67,7.82-4.64,10.16-8.28
				c-1.71,6.29-6.26,11.71-12.81,14.22l-62.33,23.92C1361.76,276.99,1362.73,274.82,1364.23,272.59z"/>
		</g>
		<g>
			<polygon class="st6" points="1476.6,566.75 1456.11,566.75 1461.96,224.47 1470.74,224.47 			"/>
			<polygon class="st8" points="1470.74,224.47 1465.33,224.47 1471.18,566.75 1476.6,566.75 			"/>
			<path class="st8" d="M1476.6,566.75c0,2.53-4.59,4.57-10.24,4.57c-5.66,0-10.25-2.05-10.25-4.57c0-2.53,4.59-4.57,10.25-4.57
				C1472.01,562.17,1476.6,564.22,1476.6,566.75z"/>
		</g>
		<path class="st6" d="M1499.2,226.91c0,6.11-24.17,11.06-53.99,11.06c-29.82,0-53.99-4.95-53.99-11.06
			c0-6.11,24.17-11.06,53.99-11.06C1475.03,215.85,1499.2,220.8,1499.2,226.91z"/>
		<path class="st7" d="M1497.4,224.12c-6.04,4.76-27.08,8.27-52.19,8.27s-46.15-3.52-52.19-8.27c-1.13,0.89-1.8,1.82-1.8,2.79
			c0,6.11,24.17,11.06,53.99,11.06c29.82,0,53.99-4.95,53.99-11.06C1499.2,225.95,1498.54,225.01,1497.4,224.12z"/>
		<path class="st9" d="M1391.22,226.91c0,3.3,7.08,6.27,18.29,8.29c1.32-2.69,2.08-5.71,2.08-8.91c0-2.75-0.55-5.38-1.55-7.77
			C1398.53,220.55,1391.22,223.56,1391.22,226.91z"/>
		<path class="st10" d="M1391.81,228.46c0.18,0.26,0.36,0.52,0.63,0.78c0.15,0.14,0.35,0.28,0.52,0.41
			c0.29,0.23,0.58,0.46,0.94,0.69c0.22,0.14,0.49,0.27,0.73,0.41c0.4,0.22,0.8,0.44,1.26,0.65c0.29,0.13,0.6,0.26,0.91,0.39
			c0.5,0.21,1.02,0.42,1.59,0.62c0.34,0.12,0.71,0.24,1.07,0.36c0.61,0.2,1.25,0.4,1.92,0.59c0.39,0.11,0.78,0.22,1.19,0.32
			c0.72,0.19,1.47,0.38,2.25,0.55c0.42,0.1,0.84,0.19,1.28,0.29c0.83,0.18,1.7,0.35,2.58,0.52c0.28,0.05,0.56,0.11,0.84,0.16
			c0.8-1.65,1.37-3.42,1.71-5.28c-8.77-1.46-15.27-3.48-18.21-5.79c-0.01,0.01-0.01,0.01-0.02,0.01c-0.26,0.21-0.49,0.41-0.7,0.62
			c-0.24,0.25-0.47,0.5-0.62,0.76c-0.08,0.12-0.12,0.24-0.18,0.36c-0.16,0.34-0.28,0.68-0.28,1.03c0,0.4,0.11,0.79,0.31,1.18
			C1391.6,228.21,1391.72,228.33,1391.81,228.46z"/>
		<g>
			<g>
				<path class="st6" d="M1435.97,227.84L1435.97,227.84c8.08-8.43,21.46-8.73,29.89-0.65l48.22,46.16l0,0
					C1493.92,279.74,1435.97,227.84,1435.97,227.84z"/>
				<path class="st7" d="M1507.05,273.63c0.18-0.05,0.35-0.08,0.52-0.14l-48.22-46.16c-3.37-3.22-7.53-5.09-11.82-5.66
					c6.41-1.14,13.26,0.67,18.33,5.52l48.22,46.16C1512.08,273.98,1509.71,274.03,1507.05,273.63z"/>
			</g>
		</g>
	</g>
	<g>
		<g>
			<path class="st6" d="M1551.66,289.59L1551.66,289.59c-8.2-4.01-11.61-13.91-7.6-22.11l22.91-46.91l0,0
				C1576.53,234.07,1551.66,289.59,1551.66,289.59z"/>
			<path class="st7" d="M1568.85,225.74c-0.08-0.12-0.15-0.24-0.23-0.36l-22.91,46.91c-1.6,3.28-2,6.82-1.4,10.15
				c-2.37-4.51-2.66-10.04-0.25-14.96l22.91-46.91C1567.92,221.91,1568.52,223.67,1568.85,225.74z"/>
		</g>
		<g>
			<path class="st7" d="M1551.66,289.59L1551.66,289.59c3.27,8.52-0.99,18.09-9.51,21.36l-48.73,18.7l0,0
				C1495.62,313.26,1551.66,289.59,1551.66,289.59z"/>
			<path class="st6" d="M1495.56,324.59c-0.03,0.14-0.06,0.28-0.08,0.42l48.73-18.7c3.4-1.31,6.11-3.63,7.95-6.47
				c-1.33,4.92-4.9,9.15-10.02,11.12l-48.73,18.7C1493.63,328.02,1494.39,326.32,1495.56,324.59z"/>
		</g>
		<g>
			<polygon class="st6" points="1583.43,567.74 1567.41,567.74 1571.98,286.95 1578.85,286.95 			"/>
			<polygon class="st8" points="1578.85,286.95 1572.4,286.95 1576.98,567.74 1583.43,567.74 			"/>
			<path class="st8" d="M1583.43,567.74c0,1.98-3.59,3.58-8.01,3.58c-4.42,0-8.01-1.6-8.01-3.58c0-1.97,3.59-3.58,8.01-3.58
				C1579.84,564.17,1583.43,565.77,1583.43,567.74z"/>
		</g>
		<path class="st6" d="M1601.11,288.86c0,4.78-18.9,8.65-42.22,8.65c-23.32,0-42.22-3.87-42.22-8.65c0-4.78,18.9-8.65,42.22-8.65
			C1582.2,280.22,1601.11,284.09,1601.11,288.86z"/>
		<path class="st7" d="M1599.7,286.68c-4.72,3.72-21.18,6.47-40.81,6.47s-36.09-2.75-40.81-6.47c-0.89,0.7-1.41,1.43-1.41,2.18
			c0,4.78,18.9,8.65,42.22,8.65c23.32,0,42.22-3.87,42.22-8.65C1601.11,288.11,1600.58,287.38,1599.7,286.68z"/>
		<path class="st9" d="M1516.67,288.86c0,2.58,5.54,4.9,14.3,6.49c1.03-2.11,1.63-4.46,1.63-6.97c0-2.15-0.43-4.2-1.21-6.08
			C1522.38,283.89,1516.67,286.24,1516.67,288.86z"/>
		<path class="st10" d="M1517.13,290.07c0.14,0.2,0.28,0.41,0.49,0.61c0.11,0.11,0.27,0.22,0.41,0.32c0.23,0.18,0.45,0.36,0.74,0.54
			c0.17,0.11,0.38,0.21,0.57,0.32c0.31,0.17,0.63,0.34,0.99,0.51c0.22,0.1,0.47,0.2,0.71,0.3c0.39,0.16,0.8,0.32,1.24,0.48
			c0.27,0.1,0.55,0.19,0.84,0.28c0.48,0.16,0.97,0.31,1.5,0.46c0.3,0.09,0.61,0.17,0.93,0.25c0.56,0.15,1.15,0.29,1.76,0.43
			c0.33,0.08,0.66,0.15,1,0.23c0.65,0.14,1.32,0.27,2.02,0.4c0.22,0.04,0.44,0.08,0.66,0.12c0.63-1.29,1.07-2.68,1.34-4.13
			c-6.86-1.14-11.94-2.72-14.24-4.53c0,0-0.01,0.01-0.01,0.01c-0.2,0.16-0.39,0.32-0.55,0.49c-0.19,0.2-0.37,0.39-0.49,0.6
			c-0.06,0.09-0.09,0.18-0.14,0.28c-0.12,0.27-0.22,0.54-0.22,0.81c0,0.31,0.09,0.62,0.25,0.92
			C1516.97,289.88,1517.06,289.98,1517.13,290.07z"/>
		<g>
			<g>
				<path class="st6" d="M1551.66,289.59L1551.66,289.59c6.31-6.6,16.78-6.82,23.37-0.51l37.71,36.1l0,0
					C1596.98,330.17,1551.66,289.59,1551.66,289.59z"/>
				<path class="st7" d="M1607.25,325.39c0.14-0.04,0.28-0.07,0.41-0.11l-37.71-36.1c-2.63-2.52-5.89-3.98-9.24-4.43
					c5.02-0.89,10.37,0.52,14.33,4.32l37.71,36.1C1611.18,325.67,1609.32,325.71,1607.25,325.39z"/>
			</g>
		</g>
	</g>
	<g>
		<g>
			<path class="st6" d="M1661.21,326.11L1661.21,326.11c-6.85-3.35-9.69-11.61-6.35-18.46l19.13-39.17l0,0
				C1681.97,279.74,1661.21,326.11,1661.21,326.11z"/>
			<path class="st7" d="M1675.56,272.79c-0.06-0.1-0.12-0.2-0.19-0.3l-19.13,39.17c-1.34,2.74-1.67,5.69-1.17,8.48
				c-1.98-3.76-2.22-8.38-0.21-12.5l19.13-39.17C1674.78,269.59,1675.29,271.06,1675.56,272.79z"/>
		</g>
		<g>
			<path class="st7" d="M1661.21,326.11L1661.21,326.11c2.73,7.12-0.82,15.1-7.94,17.84l-40.7,15.62l0,0
				C1614.41,345.87,1661.21,326.11,1661.21,326.11z"/>
			<path class="st6" d="M1614.36,355.33c-0.02,0.12-0.05,0.23-0.06,0.35l40.7-15.62c2.84-1.09,5.1-3.03,6.64-5.41
				c-1.12,4.11-4.09,7.65-8.36,9.29l-40.7,15.62C1612.75,358.2,1613.38,356.78,1614.36,355.33z"/>
		</g>
		<g>
			<polygon class="st6" points="1687.74,568.33 1674.36,568.33 1678.18,323.91 1683.91,323.91 			"/>
			<polygon class="st8" points="1683.91,323.91 1679.75,323.91 1683.57,568.33 1687.74,568.33 			"/>
			<path class="st8" d="M1687.74,568.33c0,1.65-3,2.99-6.69,2.99c-3.7,0-6.69-1.34-6.69-2.99c0-1.65,2.99-2.99,6.69-2.99
				C1684.74,565.35,1687.74,566.69,1687.74,568.33z"/>
		</g>
		<path class="st6" d="M1702.49,325.5c0,3.99-15.78,7.22-35.25,7.22c-19.47,0-35.26-3.23-35.26-7.22s15.78-7.22,35.26-7.22
			C1686.71,318.28,1702.49,321.51,1702.49,325.5z"/>
		<path class="st7" d="M1701.32,323.68c-3.94,3.11-17.68,5.4-34.08,5.4s-30.14-2.3-34.08-5.4c-0.74,0.58-1.17,1.19-1.17,1.82
			c0,3.99,15.78,7.22,35.26,7.22c19.47,0,35.25-3.23,35.25-7.22C1702.49,324.87,1702.06,324.26,1701.32,323.68z"/>
		<path class="st9" d="M1631.99,325.5c0,2.16,4.62,4.09,11.95,5.42c0.86-1.76,1.36-3.73,1.36-5.82c0-1.8-0.36-3.51-1.01-5.07
			C1636.76,321.35,1631.99,323.31,1631.99,325.5z"/>
		<path class="st10" d="M1632.37,326.51c0.12,0.17,0.24,0.34,0.41,0.51c0.1,0.09,0.23,0.18,0.34,0.27c0.19,0.15,0.38,0.3,0.61,0.45
			c0.15,0.09,0.32,0.18,0.48,0.27c0.26,0.14,0.52,0.29,0.82,0.42c0.19,0.09,0.39,0.17,0.6,0.25c0.33,0.14,0.67,0.27,1.04,0.4
			c0.22,0.08,0.46,0.16,0.7,0.24c0.4,0.13,0.81,0.26,1.25,0.38c0.25,0.07,0.51,0.14,0.77,0.21c0.47,0.12,0.96,0.25,1.47,0.36
			c0.28,0.06,0.55,0.13,0.84,0.19c0.54,0.12,1.11,0.23,1.68,0.34c0.18,0.03,0.37,0.07,0.55,0.1c0.52-1.07,0.9-2.23,1.12-3.45
			c-5.73-0.96-9.97-2.27-11.89-3.78c0,0-0.01,0-0.01,0.01c-0.17,0.14-0.32,0.27-0.46,0.41c-0.16,0.16-0.31,0.33-0.41,0.5
			c-0.05,0.08-0.08,0.15-0.11,0.23c-0.1,0.22-0.18,0.45-0.18,0.67c0,0.26,0.07,0.52,0.21,0.77
			C1632.23,326.35,1632.31,326.43,1632.37,326.51z"/>
		<g>
			<g>
				<path class="st6" d="M1661.21,326.11L1661.21,326.11c5.27-5.51,14.01-5.7,19.52-0.43l31.49,30.14l0,0
					C1699.05,360,1661.21,326.11,1661.21,326.11z"/>
				<path class="st7" d="M1707.62,356.01c0.11-0.03,0.23-0.06,0.34-0.09l-31.49-30.14c-2.2-2.11-4.92-3.33-7.72-3.7
					c4.19-0.74,8.66,0.44,11.97,3.6l31.49,30.14C1710.91,356.24,1709.36,356.27,1707.62,356.01z"/>
			</g>
		</g>
	</g>
</g>
<g>
	<g>
		<path class="st11" d="M1444.28,543.81c0,0,18.85-78.65,1.63-97.91c-17.22-19.26-29.82,21.05-29.82,21.05s-7.01-83.77-30.7-89.87
			c-23.69-6.09-22,63.79-22,63.79s-17.1-30.45-35.99-19.85c-18.9,10.6,20.35,122.85,20.35,122.85"/>
		<g class="st12">
			<path class="st13" d="M1388.43,402.74c0.81,14.34,1.62,28.67,2.43,43.01c0.68,12,1.36,24.01,3.28,35.68
				c1.68,10.2,4.3,20.1,5.63,30.4"/>
			<path class="st13" d="M1435.6,459.96c-5.03,10.5-3.72,21.51-6.06,32.34c-1.55,7.2-4.73,14.31-6.52,21.51
				c-1.58,6.33-2.08,12.7-4.36,18.97"/>
			<path class="st13" d="M1338.33,442.32c6.81,4.99,8.14,14.15,10.22,22.33c4.58,18.02,14.35,33.69,22.18,50.23
				c3.87,8.17,7.29,16.65,8.91,25.78"/>
			<path class="st13" d="M1375.22,525.95c2.47-4.84,4.88-9.7,7.24-14.58"/>
			<path class="st13" d="M1363.14,498.47c1.73-4.55,2.94-7.99,4.68-12.54"/>
			<path class="st13" d="M1352.8,477.43c3.13-4.16,5.71-8.62,7.64-13.21"/>
			<path class="st13" d="M1355.82,487.14c-5.75-0.77-11.05-2.83-15.35-5.96"/>
			<path class="st13" d="M1370.43,516.01c-5.97-0.24-11.76-1.23-17.15-2.93"/>
			<path class="st13" d="M1399.57,508.62c6.38-5.24,12.17-11.12,17.19-17.45"/>
			<path class="st13" d="M1395.58,492.09c-2.75-0.81-5.31-1.98-7.58-3.48"/>
			<path class="st13" d="M1392.26,463.83c0.76-0.65,1.44-1.36,2.13-2.08c3.67-3.85,7.33-7.7,11-11.54"/>
			<path class="st13" d="M1390.49,450.04c-5.09-2.17-9.81-4.91-14.04-8.16"/>
			<path class="st13" d="M1389.96,431.58c-3.51-2.21-6.28-5.31-8.01-8.97"/>
			<path class="st13" d="M1390.75,438.79c3.73-4.56,6.98-9.42,9.66-14.45"/>
			<path class="st13" d="M1347.12,458.52c0.81-2.51,1.62-5.03,2.43-7.54"/>
			<path class="st13" d="M1430.78,478.56c-3.22-2.13-5.59-5.23-6.78-8.85"/>
			<path class="st13" d="M1427.13,501.47c6.65-3.3,13.77-7,17.65-13.02"/>
		</g>
	</g>
</g>
<g>
	<g>
		<path class="st14" d="M1203.34,549.23c0,0,25.54-76.63,4.26-89.41s-25.54,38.32-25.54,38.32s7.1-90.83-15.61-95.08
			c-22.71-4.26-17.03,80.89-17.03,80.89s-21.29-45.41-46.83-18.45c-25.54,26.96,22.71,85.15,22.71,85.15L1203.34,549.23z"/>
		<path class="st15" d="M1165.58,424.47c-5.44,27.77,3.53,56.14,4.99,84.41c1.03,19.98-1.76,40.15-8.17,59.09"/>
		<path class="st15" d="M1201.89,475.28c-2.63,6.73-1.51,14.24-1.32,21.46c0.21,8.06-0.81,16.09-1.83,24.09
			c-1.09,8.6-2.32,17.57-7.21,24.72c-7.44,10.88-21.49,15.06-30.94,24.25"/>
		<path class="st15" d="M1118.42,475.95c7.02,18.41,22.09,32.67,30.51,50.49c4.19,8.88,6.65,18.47,8.48,28.12
			c1.13,5.97,2.46,12.67,7.52,16.03"/>
		<path class="st15" d="M1128.9,495.37c0.91-0.66,1.33-1.79,1.68-2.86c1.38-4.22,2.5-8.53,3.35-12.89"/>
		<path class="st15" d="M1138.28,508.16c0.77-4.93,1.54-9.86,2.32-14.79"/>
		<path class="st15" d="M1147.94,524.54c0.07-4.53-0.09-9.06-0.48-13.58"/>
		<path class="st15" d="M1143.43,516.52c-5.34,1.3-10.8,2.1-16.28,2.37"/>
		<path class="st15" d="M1125.61,490.52c-3.42-0.24-6.84-0.48-10.26-0.72c-0.15-0.01-0.33-0.05-0.36-0.19
			c-0.03-0.14,0.28-0.17,0.21-0.04"/>
		<path class="st15" d="M1157.25,432.82c2.3,2.26,4.35,4.77,6.09,7.49"/>
		<path class="st15" d="M1164.88,452.64c2.18-2.98,4.54-5.83,7.07-8.51"/>
		<path class="st15" d="M1165.88,470.65c-3.37-0.86-6.66-2.01-9.83-3.43"/>
		<path class="st15" d="M1169.31,489.43c2.35-4.25,4.83-8.43,7.45-12.53"/>
		<path class="st15" d="M1170.13,503.9c-2.29-0.48-4.5-1.34-6.51-2.53c-1.29-0.76-2.56-1.68-4.05-1.83"/>
		<path class="st15" d="M1200.58,504.63c-2.56-1.35-4.94-3.02-7.07-4.97"/>
		<path class="st15" d="M1199.93,514.42c2.57-1.68,5.05-3.51,7.42-5.47"/>
		<path class="st15" d="M1198.24,526.37c-2.14-1.65-4.27-3.3-6.41-4.94"/>
		<path class="st15" d="M1200.8,489.83c1.42-0.93,2.84-1.86,4.26-2.79"/>
	</g>
	<g>
		<defs>
			<path id="XMLID_20_" d="M916.6,552.62c-13.63,12.07,92.44,8.34,138.26,14.91c-7.85,4.95-7.46,10.79-4.09,11.41
				c33.12,6.84,67.36,4.56,101.08,2.01c96.34-7.28,192.13-1.8,288.1-12.98c12.46-3.5,5.12-16.41-11.34-20.65
				c-27-6.94-63.71-5.95-91.53-4.31c4.95-3.39,33.14-3.98,32.97-9.06c-1.16-7.01-40.01-9.37-61.81-7.81
				c-20.85,1.49-47.64,2.19-68.53,1.74c-42.66-0.9-85.36-0.39-127.98,1.54c-37.96,1.72-76.42,7.69-114.36,5.71
				C967.05,533.55,940.64,530.85,916.6,552.62z"/>
		</defs>
		<use xlink:href="#XMLID_20_"  style="overflow:visible;fill:#DAA59C;"/>
		<clipPath id="XMLID_2_">
			<use xlink:href="#XMLID_20_"  style="overflow:visible;"/>
		</clipPath>
		<path class="st16" d="M886.69,565.72c31.05,15.48,70.17,13.37,99.37-5.37c13.15-8.44,24.2-19.84,37.38-28.23
			c33.66-21.43,78.78-20.35,114.4-2.38c-29.28-0.41-58.6,2.77-87.11,9.46c-21.79,5.11-46.33,15.54-51.59,37.29
			c-1.24,5.11-1.07,11.01,2.36,15c6.82,7.95,19.5,2.98,29.97,2.55c27.03-1.09,46.97,32.29,73.86,29.38
			c11.83-1.28,21.75-9.62,29.08-18.99c7.33-9.37,12.86-20.08,20.61-29.11c17.66-20.58,45.57-30.44,72.69-30.73
			c27.12-0.29,53.65,8.06,78.5,18.92c13.08,5.71,26.46,12.66,34.34,24.57c3.08,4.66,3.54,13.16-2.02,13.72
			c-1.48,0.15-2.93-0.43-4.26-1.1c-7.27-3.71-12.47-10.38-18.19-16.19c-16.84-17.12-40.06-27.82-64.02-29.5
			c-23.96-1.68-48.44,5.67-67.51,20.27c-6.34,4.85-12.63,12.15-10.65,19.88c1.72,6.72,8.84,10.32,15.2,13.08
			c27.5,11.92,55.19,23.91,84.39,30.64c29.21,6.73,60.34,7.97,88.78-1.5c8.95-2.98,17.75-7.13,24.34-13.88
			c6.59-6.75,10.66-16.47,8.83-25.72c-3.25-16.43-21.78-24.01-37.4-30.06c-19.3-7.47-37.92-16.69-55.57-27.5
			c-6.21-3.8-12.66-8.25-15.24-15.05c-2.94-7.76,0.19-16.89,6.05-22.77c5.86-5.88,13.98-8.97,22.1-10.71
			c-4.13,12.61-18.06,23.58-13.61,36.08c2.83,7.96,11.86,11.49,19.77,14.47c17.51,6.61,34.3,15.14,49.97,25.37
			c8.82,5.76,17.52,12.31,22.85,21.4c5.33,9.08,6.58,21.26,0.55,29.9"/>
	</g>
	<g>
		<path class="st17" d="M1099.43,321.22c-3.4,2.63-18.65,84.39-18.65,84.39l23.22,1.8c0,0,15.89-66.02,14.48-74.82
			C1117.09,323.79,1105.26,316.71,1099.43,321.22z"/>
		<path class="st18" d="M1145.82,236.76l13.28,146.07c0,0,9.59,1.48,9.59-0.74c0-2.21-10.33-142.38-10.33-142.38"/>
		<polyline class="st18" points="1181.96,239.71 1198.19,386.52 1208.52,387.99 1197.45,242.66 		"/>
		<g>
			<defs>
				<path id="XMLID_18_" d="M1209.26,372.5c2.49,12.81,9.05,89.07,0.49,98.67c-8.57,9.6-323.95,14.25-332.52-4.94
					c-8.57-19.19-7.93-90.45,0.83-102.13c8.29-11.06,121.11-29.93,124.64-26.28c3.11,3.22,6.2,34.22,8.11,44.26
					C1011.51,385.71,1204.09,345.94,1209.26,372.5z"/>
			</defs>
			<use xlink:href="#XMLID_18_"  style="overflow:visible;fill:#7CCE81;"/>
			<clipPath id="XMLID_3_">
				<use xlink:href="#XMLID_18_"  style="overflow:visible;"/>
			</clipPath>
			<polygon class="st19" points="944.32,489.17 1106.81,489.17 1105.02,440.96 996.1,444.54 990.75,419.54 897.9,419.54 
				897.9,337.4 847.9,346.33 828.26,482.03 			"/>
		</g>
		<polygon class="st20" points="1030.28,430.89 1031.49,495.76 1072.62,494.55 1072.62,485.21 1039.98,485.21 1039.98,430.89 		"/>
		<polygon class="st20" points="1030.28,425.7 1031.49,470.67 1072.62,469.45 1072.62,460.12 1039.98,460.12 1039.98,425.7 		"/>
		<path class="st20" d="M1047.33,430.05c0,0,26.73-76.83,119.7-74.76c92.97,2.08,102.27,77.87,102.27,77.87
			s-33.7-64.37-103.43-61.26S1047.33,430.05,1047.33,430.05z"/>
		<g>
			<path class="st18" d="M1253.9,475.96l7.36-1.96l-5.36-25l-9.28-1.69c-1.18-2.71-2.49-5.35-3.92-7.92l7.85-7.36l-15.18-14.28
				l-8.53,0.81c-2.19-2.16-4.5-4.21-6.9-6.14l2.93-6.28l-21.43-12.5l-6.84,4.32c-3.29-1.23-6.67-2.28-10.13-3.13v-9.22l-29.46-2.68
				l-4.14,9.94c-3.13,0.39-6.2,0.94-9.22,1.63l-3.6-8l-26.78,9.82l2.67,9.6c-1.23,0.77-2.45,1.56-3.65,2.38l-8.84-6.63l-18.75,20.53
				l6.37,6.37c-0.92,1.21-1.81,2.45-2.67,3.7l-12.63-1.15l-10.71,28.57l8.36,10.98c-0.35,2.44-0.6,4.91-0.76,7.4l-9.38-0.52
				l3.57,27.68l9.23,4.37c0.71,2.45,1.51,4.85,2.41,7.21l-8.07,5.38l13.39,20.53l8.55-1.6c1.19,1.5,2.41,2.97,3.69,4.39l-3.31,8.82
				l19.64,16.96l8.19-6.43c1.52,0.83,3.08,1.6,4.65,2.34l0.56,9.45l33.93,6.25l5.82-6.98c1.44-0.02,2.88-0.06,4.3-0.15l2.38,7.13
				l25-3.57l1.79-10.15c1.81-0.74,3.59-1.51,5.34-2.35l8.94,5.36l17.86-16.07l-2.97-5.94c1.59-1.54,3.14-3.12,4.62-4.77h9.95
				l9.82-15.18l-3.58-10.23c0.95-2.23,1.79-4.51,2.56-6.82l6.37,0.98l4.46-24.11l-6.09-6.09
				C1254.27,481.27,1254.13,478.6,1253.9,475.96z"/>
			
				<ellipse transform="matrix(0.9239 -0.3827 0.3827 0.9239 -96.2073 482.1837)" class="st17" cx="1163.95" cy="482.93" rx="53.57" ry="53.57"/>
			<circle class="st21" cx="1163.95" cy="482.93" r="45.44"/>
			<circle class="st22" cx="1163.95" cy="482.93" r="20.69"/>
		</g>
		<g>
			<path class="st18" d="M978.1,500.83l4.66-1.24l-3.4-15.85l-5.89-1.07c-0.75-1.72-1.58-3.39-2.49-5.02l4.98-4.66l-9.62-9.06
				l-5.41,0.52c-1.39-1.37-2.85-2.67-4.37-3.89l1.86-3.98l-13.58-7.92l-4.33,2.74c-2.09-0.78-4.23-1.44-6.42-1.99v-5.84l-18.68-1.7
				l-2.63,6.3c-1.98,0.25-3.93,0.59-5.85,1.03l-2.28-5.07l-16.98,6.23l1.69,6.09c-0.78,0.49-1.55,0.99-2.31,1.51l-5.61-4.2
				l-11.89,13.02l4.04,4.04c-0.58,0.77-1.15,1.55-1.69,2.35l-8.01-0.73l-6.79,18.11l5.3,6.96c-0.22,1.54-0.38,3.11-0.48,4.69
				l-5.95-0.33l2.26,17.54l5.85,2.77c0.45,1.55,0.96,3.08,1.53,4.57l-5.12,3.41l8.49,13.02l5.42-1.02c0.75,0.95,1.53,1.88,2.34,2.78
				l-2.1,5.59l12.45,10.75l5.19-4.08c0.96,0.52,1.95,1.01,2.95,1.48l0.35,5.99l21.51,3.96l3.69-4.43c0.91-0.01,1.82-0.04,2.73-0.09
				l1.51,4.52l15.85-2.26l1.14-6.43c1.15-0.47,2.28-0.96,3.39-1.49l5.67,3.4l11.32-10.19l-1.88-3.77c1.01-0.98,1.99-1.98,2.93-3.03
				h6.31l6.23-9.62l-2.27-6.48c0.6-1.41,1.13-2.86,1.63-4.33l4.04,0.62l2.83-15.28l-3.86-3.86
				C978.34,504.2,978.25,502.5,978.1,500.83z"/>
			<circle class="st17" cx="921.08" cy="505.24" r="33.96"/>
			<circle class="st21" cx="921.08" cy="505.24" r="28.81"/>
			<circle class="st22" cx="921.08" cy="505.24" r="13.11"/>
		</g>
		<path class="st18" d="M1024.83,224.96c0,0-26.56,129.1,0.74,219.84c-14.02,0-14.02,0-14.02,0s-25.82-112.13,1.48-217.62"/>
		<path class="st20" d="M1205.57,247.83l-199.92-20.66c0,0,5.9-15.49,15.49-14.02c9.59,1.48,180.74,19.92,180.74,19.92
			L1205.57,247.83z"/>
		<path class="st18" d="M986.47,309.79c-1.48,2.21-3.69,24.34,1.48,28.77c5.16,4.43,16.97-1.48,16.97-1.48l-1.48-26.56
			L986.47,309.79z"/>
		<path class="st18" d="M964.34,360.7l2.21-77.46l-8.85-1.48c0,0-5.9,85.57-2.21,91.48c3.69,5.9,19.92,0,19.92,0V360.7H964.34z"/>
		<polyline class="st18" points="1010.81,361.43 1031.47,344.47 1035.16,350.37 1013.03,371.76 		"/>
		<polygon class="st18" points="1022.62,337.09 1042.54,364.38 1049.17,360.7 1028.52,331.19 		"/>
		<path class="st17" d="M1105.41,286.85c-2.89,6.64-6.01,21.81-4.66,25.88c1.35,4.08,15.95,9.33,19.19,6.52
			c3.24-2.81,6.84-20.34,5.81-25.56C1124.72,288.46,1108.77,279.13,1105.41,286.85z"/>
		<polygon class="st18" points="927.06,375.49 915.16,407.63 922.3,408.82 934.2,377.87 		"/>
		<polygon class="st18" points="942.54,375.49 930.63,407.63 937.78,408.82 949.68,377.87 		"/>
	</g>
	<g>
		<path class="st23" d="M1384.05,387.09c0,0,14.24,24.83,14.24,31.93c0,7.1-27.01,34.06-27.01,34.06l2.02-17.52l12.17-17.96
			l-11.35-21.29"/>
		<path class="st23" d="M1314.59,393.16l-3.05,27.33c0,0-16.64,18.06-19.48,19.48c-5.68-0.71-10.15,4.36-8.73,7.2
			c1.42,2.84,4.05,10.44,6.89,10.44s5.21-8.4,5.21-8.4l28.38-20.58l4.97-31.22"/>
		<path d="M1334.18,345.92c0,0-8.94-5.11-3.83-13.09C1335.45,324.85,1334.18,345.92,1334.18,345.92z"/>
		<g>
			<path class="st23" d="M1320.45,525.67l1.8,22.17c0,0-12.58,5.99-13.18,8.39c-0.6,2.4,25.76,0,25.76,0l1.8-29.35"/>
			<path class="st23" d="M1371.36,525.67l-1.8,22.17c0,0,12.58,5.99,13.18,8.39s-25.76,0-25.76,0l-1.8-29.35"/>
			<path class="st24" d="M1375.57,437.43c-0.09-1.89-0.2,23.38-0.2,47.5c0,19.11,1.93,41.57-2.57,45.04
				c-4.51,3.47-19.41,5.89-22.18-3.12c-2.77-9.01-2.77-66.54-2.77-66.54l-2.08,0.69c0,0-0.69,62.73-4.51,67.24
				c-3.81,4.51-20.46,4.15-23.58-2.09c-3.12-6.24-0.26-59.9,4.86-92.18C1342.3,430.5,1375.57,437.43,1375.57,437.43z"/>
			<path class="st25" d="M1352.5,367.79c25.46,3.16,36.81,10.9,39.91,27.33c-7,2.41-18.28,3.95-18.38,4.78l1.89,38.57
				c0,0-37.81,7.09-53.93-3.01c1.07-12.03,1.11-34.5,1.11-34.5l-12.77-7.1C1310.33,393.87,1320.5,363.82,1352.5,367.79z"/>
			<path class="st23" d="M1357.09,355.5c-4.18,7.96-3.17,5.63-11.67,5.63c-9.28,0-15.46-7.81-15.33-14.7
				c0.07-3.53-0.06-12.73,2.36-15.25C1340.76,322.5,1371.19,328.69,1357.09,355.5z"/>
			<path class="st23" d="M1357.83,351.06l2.64,15.84l2.12,5.63c0,0-6.82,12.33-15.09,16.51c-6.68-3.81-8.49-17.57-8.49-17.57
				l3.24-5.26l1.03-11.35"/>
		</g>
		<path d="M1329.84,336.76c0,0,6.79-0.94,10.54-4.92c-1.64,4.68-2.11,5.62-2.11,5.62s7.02-1.4,10.3-3.98
			c2.81,1.64,5.38,3.51,5.38,3.51s6.92-6.65-6.9-8.53C1333.24,326.59,1330.07,332.08,1329.84,336.76z"/>
		<g>
			<defs>
				<path id="XMLID_19_" d="M1331.92,324.88c0,0,1.95-11.05,8.77-12.67c6.82-1.62,20.79,4.22,22.74,8.45
					c1.95,4.22-0.65,13.32-0.65,13.32"/>
			</defs>
			<use xlink:href="#XMLID_19_"  style="overflow:visible;fill:#FFB25F;"/>
			<clipPath id="XMLID_4_">
				<use xlink:href="#XMLID_19_"  style="overflow:visible;"/>
			</clipPath>
			<path class="st26" d="M1325.75,327.8c0,0,8.77-13.65,25.02-8.77c16.25,4.87,16.25,15.92,16.25,15.92L1325.75,327.8z"/>
		</g>
		<path class="st27" d="M1329.98,333.5c0,0,5.53-6.35,16.09-3.96c10.56,2.4,14.3,12.45,14.3,12.45s10.32,0.96,12.24-2.16
			c1.92-3.12-11.28-14.88-28.07-17.28c-16.8-2.4-24.43,1.93-25.19,5.52C1318.47,332.15,1329.98,333.5,1329.98,333.5z"/>
		<path class="st23" d="M1356.97,341.1c0,0-0.15-5.5,3.72-4.95c3.87,0.55,4.97,11.61-2.21,11.05"/>
		<path class="st11" d="M1329.01,371.38c0,0-8.7,15.5-10.21,41.97c-1.21,21.26,1.22,33.28,1.22,33.28s11.6-10.22,11-23.2
			c-1.33-28.63,5.55-55.45,5.55-55.45S1333.27,368.54,1329.01,371.38z"/>
		<path class="st11" d="M1365.16,369.2c0,0,6.55-0.7,7.95,3.74c1.4,4.44,7.95,65.24,2.57,73.66c-7.72,0-12.58-16.09-13.05-24.28
			C1362.17,414.14,1365.16,369.2,1365.16,369.2z"/>
		<path class="st28" d="M1303.2,544.75l-31.9-163.65l5.68-2.13l32.87,167.13c0.25,1.27-0.73,2.46-2.02,2.46l0,0
			C1305.57,548.55,1303.63,546.96,1303.2,544.75z"/>
		<path class="st29" d="M1248.09,344.54c0,0,8.19,31.49,9.45,36.21c1.26,4.72,32.75-0.94,31.81-6.93
			c-0.94-5.98-8.19-37.79-8.19-37.79l-1.34,0.73l5.75,33.28l-6.61,3.78l-8.47-35.15l-0.76,0.1l6.71,35.37l-7.87,1.85l-7.79-35.79
			l-0.95,0.19l5.91,35.96h-6.61l-9.77-31.86L1248.09,344.54z"/>
		<path class="st23" d="M1281.02,442.04c0,0,0.51,12.31,3.33,14.36s4.87-3.33,4.36-6.92
			C1288.2,445.89,1285.13,438.19,1281.02,442.04z"/>
	</g>
</g>
<g>
	<path class="st30" d="M1672.2,495.3l31.14-26.64c0,0,23.04,9.23,23.54,11.28c0.5,2.05-1.63,3.33-1.63,3.33l-20.99-9.73
		l-31.37,27.18"/>
	<path class="st31" d="M1714.33,472.3l-1.88,5.82c0,0,14.84,9.26,17.02,9.77c2.18,0.51,5.22-4.58,4.5-6.91
		C1733.25,478.66,1714.33,472.3,1714.33,472.3z"/>
	<path class="st32" d="M1732.36,468.92c0,0-16.89,6.95-16.64,10.26c0.38,5.22,6.07,6.85,8.61,7.96c2.54,1.11,13.13-9.21,13.13-9.21"
		/>
	<path class="st33" d="M1730.01,469.31c0,0,3.33,10.38,8.23,10.58c4.95,0.2,33.55-5.62,39.11-12.05
		c5.22-6.02,17.25-42.88,17.25-42.88s-7.89-16.78-15.42-11.57c-7.53,5.21-16.79,38.77-16.79,38.77S1730.59,464.1,1730.01,469.31z"/>
	<path class="st32" d="M1777.57,407.95l-12.68-9.18c0,0-3.24-10.8-8.1-13.49c-4.86-2.7-17.66,0.9-17.54,14.3
		c0.14,15.86,7.12,22.05,10.89,22.32c3.78,0.27,9.62-5.05,9.62-5.05l8.91,5.4"/>
	<g>
		<defs>
			<path id="XMLID_103_" d="M1620.63,562.59c-71.06-6.83-142.29-17.66-212.26-2.72c-5.82,1.24-12.75,3.76-13.81,9.92
				c-1.05,6.08,4.51,11.07,9.75,13.85c29.3,15.57,64.19,7.56,96.88,4.7c27.85-2.44,56.02-0.83,83.47,4.78
				c22.09,4.51,44.05,11.62,66.53,10.7c21.12-0.87,41.3-8.78,61.75-14.39c34.49-9.47,53.89,8.01,89.36,11.63
				c11.44,1.17,84.73-13.83,76.47-41.59c-4.05-13.6-42.79-12.74-52.09-11.25C1746.01,561.16,1694.72,569.71,1620.63,562.59z"/>
		</defs>
		<use xlink:href="#XMLID_103_"  style="overflow:visible;fill:#7CCE81;"/>
		<clipPath id="XMLID_5_">
			<use xlink:href="#XMLID_103_"  style="overflow:visible;"/>
		</clipPath>
		<path class="st34" d="M1561.75,521.83c-30.69,2.47-61.87,7.04-89.38,20.88c-27.5,13.85-51.08,38.38-57.02,68.6
			c5.51,7.18,17.69,1.96,22.1-5.95c4.41-7.91,5.13-17.69,10.65-24.87c4.25-5.52,10.76-8.74,17.09-11.66
			c25.59-11.78,52.06-21.65,79.11-29.5c16.7-4.84,39.3-6.51,46.92,9.12c-4.64,12.95-26.55,8.4-34.74,19.45
			c-2.11,2.85-3,6.43-3.46,9.95c-2.26,17.31,5.36,35.57,19.26,46.13c7.59-10.96-8.04-25.88-3.62-38.46
			c1.88-5.35,6.96-8.8,11.73-11.86c21-13.5,42-26.99,63-40.49c6.42-4.13,13.04-8.34,20.51-9.9c12.58-2.63,25.32,2.59,37.11,7.69
			c23,9.96,46.57,20.29,64.41,37.9c15.93,15.72,32.49,38.9,54.23,33.57c-20.19-23.89-42.08-46.34-65.44-67.14"/>
	</g>
	<g>
		<path class="st11" d="M1630.23,482.51c-0.44-2.1-2.32-3.62-4.28-4.49c-1.97-0.87-4.12-1.26-6.09-2.12c-0.8-0.35-1.59-0.8-2.1-1.51
			c-0.6-0.85-0.71-1.94-0.86-2.97c-0.38-2.63-1.27-5.33-3.25-7.09c-1.99-1.76-5.3-2.21-7.25-0.41c-1.78,1.64-2.26,4.78-4.6,5.39
			c0.17,1.37,0.33,2.74,0.5,4.11c-4.05-0.25-7.99,3.05-8.45,7.08c-0.07,0.58-0.08,1.2-0.4,1.68c-0.4,0.61-1.16,0.84-1.83,1.12
			c-4.22,1.73-6.53,6.51-6.7,11.07c-0.17,4.56,1.38,8.98,2.91,13.27c10.93-4.14,21.6-8.94,31.93-14.39"/>
		<path class="st11" d="M1667.07,482.66c2.28-3.61,3.73-7.75,4.19-11.99c0.18-1.63,0.08-3.56-1.27-4.5
			c-1.29-0.91-3.3-0.52-4.35-1.71c-0.75-0.85-0.65-2.15-0.4-3.25c0.67-3.04,2.07-5.89,2.59-8.96c0.52-3.07-0.09-6.64-2.63-8.45
			c-3.02-2.16-7.99-0.26-8.8,3.36c-0.28-2.94-1.24-5.93-3.32-8.04c-2.08-2.1-5.44-3.09-8.11-1.83c-4.04,1.91-4.54,7.75-2.55,11.76
			c0.44,0.88,0.97,1.91,0.53,2.79c-0.27,0.54-0.84,0.84-1.32,1.21c-1.7,1.32-2.28,3.89-1.32,5.81c0.44,0.89,1.17,1.66,1.36,2.63
			c0.37,1.94-1.48,3.48-2.88,4.88c-4.35,4.37-5.38,11.69-2.38,17.08c2.99,5.39,9.74,8.4,15.75,7.02"/>
		<polyline class="st30" points="1675.24,517.24 1688.28,548.41 1683.97,550.73 1645.4,536.52 1652.23,532.19 1683.2,545.84 
			1670.12,520.1 		"/>
		<g>
			<defs>
				<path id="XMLID_105_" d="M1664.27,486.26c0,0-6.14-20.67-24.81-15.56c-18.67,5.11-20.59,24.88-11.89,34.33"/>
			</defs>
			<use xlink:href="#XMLID_105_"  style="overflow:visible;fill:#FFB240;"/>
			<clipPath id="XMLID_6_">
				<use xlink:href="#XMLID_105_"  style="overflow:visible;"/>
			</clipPath>
			<path class="st35" d="M1635.5,465.98c10.88,3.65,19.42,13.56,21.42,24.86c0.19,1.05,0.28,2.26-0.42,3.07
				c-2.72-5.65-2.58-12.58-6.32-17.61c-2.7-3.64-7.01-5.69-11.23-7.37c-4.66-1.86-9.43-3.44-14.28-4.74
				c-0.42-0.11-0.88-0.22-1.27-0.02c-0.27,0.14-0.46,0.41-0.6,0.68c-0.99,1.91-0.43,4.32,0.82,6.07c1.25,1.74,3.09,2.96,4.89,4.14
				c4.86,3.18,9.72,6.37,14.58,9.55c2.44,1.59,4.95,3.26,6.52,5.71c1.58,2.45,1.96,5.91,0.12,8.17c-1.28-1.56-1.88-3.56-2.75-5.38
				c-2.23-4.65-6.32-8.19-10.84-10.67c-4.52-2.47-9.49-3.98-14.43-5.47c-0.57-0.17-1.23-0.33-1.73-0.01
				c-0.85,0.55-0.47,1.86,0.01,2.76c2.1,3.96,4.2,7.92,6.31,11.87c0.88,1.67,1.79,3.36,3.12,4.69c3.1,3.11,7.96,3.79,11.27,6.67
				c-3.76-0.86-7.43-2.1-10.94-3.7c-2.08-0.95-4.14-2.04-5.78-3.64c-1.86-1.81-3.09-4.16-4.29-6.46
				c-2.64-5.07-5.27-10.14-7.91-15.21"/>
		</g>
		<g>
			<defs>
				<path id="XMLID_104_" d="M1609.79,515.77c0,0-20.22-18.45-32.18-16.56c-11.96,1.89-14.41,13.81-12,19.92
					s14.85,16.41,14.85,16.41"/>
			</defs>
			<use xlink:href="#XMLID_104_"  style="overflow:visible;fill:#FF4A40;"/>
			<clipPath id="XMLID_7_">
				<use xlink:href="#XMLID_104_"  style="overflow:visible;"/>
			</clipPath>
			<path class="st36" d="M1575.2,491.46c9.55,7.44,17.06,17.49,21.49,28.76c1.43,3.65,2.5,7.94,0.54,11.33
				c-8.98-11.06-10.28-27.46-20.98-36.86c-1.26-1.1-2.71-2.12-4.38-2.3c0.1,1.84,1.3,3.41,2.46,4.84
				c3.74,4.61,7.59,9.16,10.65,14.24c3.06,5.08,5.33,10.78,5.59,16.7c0.06,1.46-0.44,3.4-1.91,3.42c-0.7,0.01-1.29-0.48-1.81-0.94
				c-3.25-2.9-6.26-6.09-8.97-9.5c-2.38-2.99-4.6-6.24-7.79-8.34c-4.71-3.1-10.77-3.23-15.97-5.41c2.69,5.23,8.64,7.69,13.74,10.62
				c10.52,6.05,18.9,15.73,23.38,27.01"/>
		</g>
		<g>
			<defs>
				<polyline id="XMLID_106_" points="1673.38,484.35 1685.91,520.26 1590.79,562.28 1572.38,540.83 				"/>
			</defs>
			<use xlink:href="#XMLID_106_"  style="overflow:visible;fill:#E8DBDE;"/>
			<clipPath id="XMLID_8_">
				<use xlink:href="#XMLID_106_"  style="overflow:visible;"/>
			</clipPath>
			<polygon class="st37" points="1673.06,476.79 1679.79,492.52 1574.72,556.94 1566.81,549.67 			"/>
		</g>
		
			<ellipse transform="matrix(0.8514 -0.5246 0.5246 0.8514 -60.2299 928.2288)" class="st18" cx="1607.92" cy="570.4" rx="18.9" ry="18.9"/>
		<path class="st17" d="M1602.17,572.13c0.96,3.18,4.31,4.98,7.48,4.02c3.18-0.96,4.98-4.31,4.02-7.48
			c-0.96-3.18-4.31-4.98-7.48-4.02C1603.01,565.61,1601.21,568.96,1602.17,572.13z"/>
		<path class="st38" d="M1572.28,503.34c0,0-7.06-9.03-12.39-7.06c-2.53,3.03-1.81,5.17-1.81,5.17s9.13,3.07,11,5.4
			C1572.8,506.64,1572.28,503.34,1572.28,503.34z"/>
		<path class="st38" d="M1635.68,474.92c0,0-6.56-3.47-6.71-9.21c-0.15-5.74,5.34-1.09,5.34-1.09s-2.13-7.18-6.96-4.41
			c-4.82,2.77-4.58,12.25,5.1,16.48C1634.94,476.54,1635.68,474.92,1635.68,474.92z"/>
		<g>
			<defs>
				<path id="XMLID_107_" d="M1633.82,496.65c0,0-10.47-21.31-29.8-12.34c-19.33,8.97-17.8,30.8-6.61,39.46"/>
			</defs>
			<use xlink:href="#XMLID_107_"  style="overflow:visible;fill:#FF9D40;"/>
			<clipPath id="XMLID_9_">
				<use xlink:href="#XMLID_107_"  style="overflow:visible;"/>
			</clipPath>
			<path class="st39" d="M1598.86,479.9c12.49,1.97,23.57,11.16,27.82,23.07c0.4,1.11,0.72,2.4,0.11,3.41
				c-3.99-5.64-5.11-13.18-10.09-17.97c-3.6-3.46-8.66-4.9-13.54-5.95c-5.4-1.16-10.88-2.01-16.38-2.53c-0.48-0.05-1-0.07-1.38,0.21
				c-0.27,0.2-0.42,0.53-0.52,0.85c-0.73,2.25,0.32,4.77,2,6.44c1.68,1.66,3.9,2.65,6.07,3.6c5.86,2.56,11.73,5.13,17.59,7.69
				c2.94,1.28,5.97,2.63,8.13,5c2.16,2.37,3.22,6.06,1.62,8.85c-1.68-1.46-2.69-3.52-3.97-5.34c-3.28-4.63-8.37-7.73-13.73-9.59
				c-5.36-1.86-11.04-2.58-16.67-3.29c-0.65-0.08-1.4-0.14-1.88,0.31c-0.82,0.76-0.16,2.11,0.52,3c3.01,3.91,6.02,7.82,9.03,11.73
				c1.27,1.65,2.56,3.32,4.25,4.52c3.93,2.81,9.34,2.66,13.47,5.17c-4.24-0.25-8.45-0.92-12.56-2.01c-2.44-0.65-4.87-1.46-6.94-2.89
				c-2.36-1.62-4.12-3.95-5.85-6.23c-3.79-5.02-7.58-10.04-11.38-15.06"/>
		</g>
		<polygon class="st40" points="1673.39,470.98 1677.62,483.49 1570.73,547.55 1563.49,539.26 		"/>
		<path class="st11" d="M1601.22,506.76c1.2-2.26,3.86-3.35,6.39-3.76c5.67-0.93,11.7,0.76,16.07,4.48
			c1.69,1.44,3.13,3.16,4.56,4.87c1.62,1.94,3.24,3.88,4.86,5.82c-4.03,2.97-9.62,3.7-14.28,1.86c-3.19-1.26-5.95-3.62-9.32-4.25
			c-2.5-0.47-17.11,5.24-17.11,5.24C1590.62,519.37,1600.25,508.58,1601.22,506.76z"/>
		<path class="st30" d="M1678.78,500.17l24.57-21.4c0,0,23.04,9.23,23.54,11.28s-1.63,3.33-1.63,3.33l-20.99-9.73l-23.94,20.77"/>
		<path class="st31" d="M1714.33,482.42l-1.88,5.82c0,0,14.84,9.26,17.02,9.77c2.18,0.51,5.22-4.58,4.5-6.91
			C1733.25,488.78,1714.33,482.42,1714.33,482.42z"/>
		<path class="st11" d="M1581.69,528.14l-16.49,11.26c0,0-2.17,7.55-5.16,9.95c-2.99,2.39-2.27-8.3-2.62-13.53
			C1557.07,530.58,1572.6,522.36,1581.69,528.14z"/>
	</g>
	<path class="st41" d="M1781.17,406.4c0,0,27.81,8.69,42.88,41.14c-0.58,11.59-35.35,23.18-35.35,23.18l-23.76-39.98
		C1764.95,430.74,1763.79,410.46,1781.17,406.4z"/>
	<path class="st21" d="M1823.04,547.77l6.81,13.64c0,0-11.38,10.15-8.42,13.62c2.96,3.47,22.38-14.49,22.38-14.49l-8.94-17.75"/>
	<path class="st42" d="M1793.88,483.11c0,0-1.19,18.75,4.84,35.31c6.03,16.57,19.29,30.96,22.29,33.38
		c5.99,4.83,16.25-2.04,17.03-8.03c0.91-7.01-20.08-35.32-20.08-35.32l7.84-36.33"/>
	<path class="st21" d="M1780.2,559.74l9.26,12.11c0,0-9.26,12.11-5.7,14.96s20.43-17.07,20.43-17.07l-13.31-17.13"/>
	<path class="st43" d="M1788.71,470.72c0,0-37.12,30.13-36.5,45.78c0.41,10.44,20.12,43.85,23.76,46.36
		c6.84,4.7,17.29-2.6,19.17-9.05c1.31-4.5-15.69-37.88-15.69-37.88s34.77-19.7,44.62-30.13s0-38.24,0-38.24L1788.71,470.72z"/>
	<path class="st32" d="M1731.21,476.01c0,0-17.05,6.53-16.89,9.84c0.25,5.22,5.89,7,8.41,8.17c2.52,1.17,13.35-8.88,13.35-8.88"/>
	<path class="st41" d="M1728.85,476.35c0,0,3.07,10.46,7.96,10.78c4.94,0.32,33.67-4.78,39.4-11.07
		c5.37-5.89,18.31-42.44,18.31-42.44s-7.47-16.97-15.13-11.95c-7.66,5.03-17.75,38.34-17.75,38.34S1729.55,471.15,1728.85,476.35z"
		/>
	<path d="M1737.42,395.16c0,0-3.82,5.2-2.24,7.57c1.58,2.37,6.62,0.44,6.62,0.44s-0.39,2.81,2.59,3.7c2.98,0.89,6.41-3.18,6.41-3.18
		s0.23,5.28,2.87,5.17c2.64-0.11,4.03-3.26,4.03-3.26s5.24,5.26,10.08,3.06c4.84-2.2,3.12-12.22,3.12-12.22L1737.42,395.16z"/>
	<path class="st31" d="M1719.55,395.33c0,0,34.6,14.01,63.69-2.43C1771.64,388.32,1729.27,385.62,1719.55,395.33z"/>
	<g>
		<defs>
			<path id="XMLID_108_" d="M1736.55,393.38c0,0-0.27-11.6,5.13-13.22c5.4-1.62,27.26-4.86,24.02,12.95c0,0-3.24,3.24-13.76,2.97
				C1741.41,395.81,1736.55,393.38,1736.55,393.38z"/>
		</defs>
		<use xlink:href="#XMLID_108_"  style="overflow:visible;fill:#FFB240;"/>
		<clipPath id="XMLID_10_">
			<use xlink:href="#XMLID_108_"  style="overflow:visible;"/>
		</clipPath>
		<path class="st44" d="M1734.39,387.98c0,0,7.56,1.62,19.43,1.62c11.87,0,16.73-5.13,16.73-5.13l0.81,11.33l-37.24,3.24
			L1734.39,387.98z"/>
	</g>
</g>
<path class="st1" d="M1692,828"/>
</svg>
