<?xml version="1.0" encoding="UTF-8" standalone="no"?>
<!DOCTYPE svg PUBLIC "-//W3C//DTD SVG 1.1//EN" "http://www.w3.org/Graphics/SVG/1.1/DTD/svg11.dtd">
<svg version="1.1" xmlns="http://www.w3.org/2000/svg" xmlns:xlink="http://www.w3.org/1999/xlink" preserveAspectRatio="xMidYMid meet" viewBox="0 0 600 400" width="600" height="400"><defs><path d="M262.73 159.17L409.93 159.17L341.52 266.27L195.35 266.27L262.73 159.17Z" id="m3tNOVehUP"></path><path d="M109.56 158.18L256.76 158.18L188.36 265.28L33.49 267.49L109.56 158.18Z" id="bJ3Umkx8j"></path><path d="M422.68 202.76C426.51 202.74 429.63 205.84 429.63 209.67C429.63 237.61 429.63 314.49 429.63 342.43C429.63 346.27 426.52 349.39 422.68 349.39C361.25 349.39 183.91 349.39 122.48 349.39C118.63 349.39 115.52 346.27 115.52 342.43C115.52 314.88 115.52 239.17 115.52 211.62C115.52 207.77 118.63 204.64 122.48 204.62C183.91 204.24 361.25 203.14 422.68 202.76Z" id="cSGq7mXfc"></path><path d="M222.6 349.39C222.6 373.03 203.41 392.22 179.77 392.22C156.13 392.22 136.94 373.03 136.94 349.39C136.94 325.75 156.13 306.55 179.77 306.55C203.41 306.55 222.6 325.75 222.6 349.39Z" id="a3C11TzC1c"></path><path d="M195.35 349.39C195.35 357.98 188.37 364.96 179.77 364.96C171.17 364.96 164.2 357.98 164.2 349.39C164.2 340.79 171.17 333.81 179.77 333.81C188.37 333.81 195.35 340.79 195.35 349.39Z" id="b9RB479o7"></path><path d="M477.75 184.42C488.18 184.42 497.94 189.56 503.85 198.16C514.07 213.07 533.68 241.65 543.5 255.95C550.97 266.85 554.97 279.75 554.97 292.96C554.97 304.48 554.97 319.69 554.97 331.44C554.97 342 546.41 350.56 535.85 350.56C514.27 350.56 455.6 350.56 430.76 350.56C429.21 350.56 427.95 349.3 427.95 347.75C427.95 315.08 427.95 228.73 427.95 198.27C427.95 190.62 434.15 184.42 441.8 184.42C452.33 184.42 467.79 184.42 477.75 184.42Z" id="cgL4wyRFJ"></path><path d="M480.07 349.39C480.07 373.03 460.88 392.22 437.24 392.22C413.6 392.22 394.4 373.03 394.4 349.39C394.4 325.75 413.6 306.55 437.24 306.55C460.88 306.55 480.07 325.75 480.07 349.39Z" id="b24cQeI4EK"></path><path d="M452.81 349.39C452.81 357.98 445.83 364.96 437.24 364.96C428.64 364.96 421.66 357.98 421.66 349.39C421.66 340.79 428.64 333.81 437.24 333.81C445.83 333.81 452.81 340.79 452.81 349.39Z" id="b1TayAp3GQ"></path><path d="M508.85 211.15C509.66 211.15 510.41 211.55 510.86 212.21C517.41 221.86 536.87 250.51 543.55 260.35C543.58 260.4 543.55 260.45 543.5 260.45C523.85 260.45 477.93 260.45 461.51 260.45C452.52 260.45 445.24 253.17 445.24 244.18C445.24 237.58 445.24 229.96 445.24 222.34C445.24 216.16 450.25 211.15 456.43 211.15C467.17 211.15 496.13 211.15 508.85 211.15Z" id="b83eurSpu"></path><path d="M182.9 44.8L330.1 44.8L261.7 151.89L115.52 151.89L182.9 44.8Z" id="a1vrjjegZf"></path><path d="M336.22 44.8L483.42 44.8L415.01 151.89L268.84 151.89L336.22 44.8Z" id="b1IqRydU7B"></path></defs><g><g><g><use xlink:href="#m3tNOVehUP" opacity="1" fill="#69b121" fill-opacity="1"></use></g><g><use xlink:href="#bJ3Umkx8j" opacity="1" fill="#69b121" fill-opacity="1"></use></g><g><use xlink:href="#cSGq7mXfc" opacity="1" fill="#306000" fill-opacity="1"></use><g><use xlink:href="#cSGq7mXfc" opacity="1" fill-opacity="0" stroke="#ffffff" stroke-width="6" stroke-opacity="1"></use></g></g><g><use xlink:href="#a3C11TzC1c" opacity="1" fill="#373737" fill-opacity="1"></use><g><use xlink:href="#a3C11TzC1c" opacity="1" fill-opacity="0" stroke="#ffffff" stroke-width="5" stroke-opacity="1"></use></g></g><g><use xlink:href="#b9RB479o7" opacity="1" fill="#ffffff" fill-opacity="1"></use><g><use xlink:href="#b9RB479o7" opacity="1" fill-opacity="0" stroke="#ffffff" stroke-width="5" stroke-opacity="1"></use></g></g><g><use xlink:href="#cgL4wyRFJ" opacity="1" fill="#69b121" fill-opacity="1"></use><g><use xlink:href="#cgL4wyRFJ" opacity="1" fill-opacity="0" stroke="#ffffff" stroke-width="5" stroke-opacity="1"></use></g></g><g><use xlink:href="#b24cQeI4EK" opacity="1" fill="#373737" fill-opacity="1"></use><g><use xlink:href="#b24cQeI4EK" opacity="1" fill-opacity="0" stroke="#ffffff" stroke-width="5" stroke-opacity="1"></use></g></g><g><use xlink:href="#b1TayAp3GQ" opacity="1" fill="#ffffff" fill-opacity="1"></use><g><use xlink:href="#b1TayAp3GQ" opacity="1" fill-opacity="0" stroke="#ffffff" stroke-width="5" stroke-opacity="1"></use></g></g><g><use xlink:href="#b83eurSpu" opacity="1" fill="#d6d6d6" fill-opacity="1"></use></g><g><use xlink:href="#a1vrjjegZf" opacity="1" fill="#69b121" fill-opacity="1"></use></g><g><use xlink:href="#b1IqRydU7B" opacity="1" fill="#69b121" fill-opacity="1"></use></g></g></g></svg>