<?xml version="1.0" encoding="UTF-8" standalone="no"?>
<!DOCTYPE svg PUBLIC "-//W3C//DTD SVG 1.1//EN" "http://www.w3.org/Graphics/SVG/1.1/DTD/svg11.dtd">
<svg version="1.1" xmlns="http://www.w3.org/2000/svg" xmlns:xlink="http://www.w3.org/1999/xlink" preserveAspectRatio="xMidYMid meet" viewBox="0 0 600 400" width="600" height="400"><defs><path d="M345.48 393.33C357.8 393.33 367.82 383.31 367.82 370.99C367.82 351.34 367.82 194.1 367.82 174.44C367.82 162.13 357.8 152.11 345.48 152.11C343.99 152.11 336.55 152.11 323.15 152.11C323.15 146.75 323.15 143.77 323.15 143.17C323.15 135.78 317.14 129.77 309.75 129.77C302.36 129.77 296.35 135.78 296.35 143.17C296.35 143.77 296.35 146.75 296.35 152.11L274.01 152.11C274.01 146.75 274.01 143.77 274.01 143.17C274.01 135.78 268 129.77 260.61 129.77C253.22 129.77 247.21 135.78 247.21 143.17C247.21 143.77 247.21 146.75 247.21 152.11L220.41 152.11C220.41 146.75 220.41 143.77 220.41 143.17C220.41 135.78 214.4 129.77 207.01 129.77C199.62 129.77 193.61 135.78 193.61 143.17C193.61 143.77 193.61 146.75 193.61 152.11L171.27 152.11C171.27 146.75 171.27 143.77 171.27 143.17C171.27 135.78 165.26 129.77 157.87 129.77C150.48 129.77 144.47 135.78 144.47 143.17C144.47 143.77 144.47 146.75 144.47 152.11C131.07 152.11 123.62 152.11 122.13 152.11C109.82 152.11 99.8 162.13 99.8 174.44C99.8 194.1 99.8 351.34 99.8 370.99C99.8 383.31 109.82 393.33 122.13 393.33C166.8 393.33 323.15 393.33 345.48 393.33ZM122.13 384.39C114.74 384.39 108.73 378.38 108.73 370.99C108.73 359.97 108.73 304.88 108.73 205.71L358.88 205.71C358.88 304.88 358.88 359.97 358.88 370.99C358.88 378.38 352.87 384.39 345.48 384.39C300.81 384.39 144.47 384.39 122.13 384.39ZM305.28 143.17C305.28 140.71 307.28 138.71 309.75 138.71C312.21 138.71 314.21 140.71 314.21 143.17C314.21 145.85 314.21 167.29 314.21 169.97C314.21 172.44 312.21 174.44 309.75 174.44C307.28 174.44 305.28 172.44 305.28 169.97C305.28 164.61 305.28 148.53 305.28 143.17ZM256.14 143.17C256.14 140.71 258.15 138.71 260.61 138.71C263.08 138.71 265.08 140.71 265.08 143.17C265.08 145.85 265.08 167.29 265.08 169.97C265.08 172.44 263.08 174.44 260.61 174.44C258.15 174.44 256.14 172.44 256.14 169.97C256.14 164.61 256.14 148.53 256.14 143.17ZM202.54 143.17C202.54 140.71 204.54 138.71 207.01 138.71C209.47 138.71 211.47 140.71 211.47 143.17C211.47 145.85 211.47 167.29 211.47 169.97C211.47 172.44 209.47 174.44 207.01 174.44C204.54 174.44 202.54 172.44 202.54 169.97C202.54 164.61 202.54 148.53 202.54 143.17ZM153.4 143.17C153.4 140.71 155.4 138.71 157.87 138.71C160.33 138.71 162.34 140.71 162.34 143.17C162.34 145.85 162.34 167.29 162.34 169.97C162.34 172.44 160.33 174.44 157.87 174.44C155.4 174.44 153.4 172.44 153.4 169.97C153.4 164.61 153.4 148.53 153.4 143.17ZM144.47 161.04C144.47 166.4 144.47 169.38 144.47 169.97C144.47 177.36 150.48 183.38 157.87 183.38C165.26 183.38 171.27 177.36 171.27 169.97C171.27 169.38 171.27 166.4 171.27 161.04L193.61 161.04C193.61 166.4 193.61 169.38 193.61 169.97C193.61 177.36 199.62 183.38 207.01 183.38C214.4 183.38 220.41 177.36 220.41 169.97C220.41 169.38 220.41 166.4 220.41 161.04L247.21 161.04C247.21 166.4 247.21 169.38 247.21 169.97C247.21 177.36 253.22 183.38 260.61 183.38C268 183.38 274.01 177.36 274.01 169.97C274.01 169.38 274.01 166.4 274.01 161.04L296.35 161.04C296.35 166.4 296.35 169.38 296.35 169.97C296.35 177.36 302.36 183.38 309.75 183.38C317.14 183.38 323.15 177.36 323.15 169.97C323.15 169.38 323.15 166.4 323.15 161.04C336.55 161.04 343.99 161.04 345.48 161.04C352.87 161.04 358.88 167.05 358.88 174.44C358.88 175.93 358.88 183.38 358.88 196.78L108.73 196.78C108.73 183.38 108.73 175.93 108.73 174.44C108.73 167.05 114.74 161.04 122.13 161.04C125.11 161.04 132.56 161.04 144.47 161.04Z" id="b1wc62qpCJ"></path><path d="M184.67 214.64C182.2 214.64 180.2 216.64 180.2 219.11C180.2 222.69 180.2 251.27 180.2 254.85C180.2 257.32 182.2 259.32 184.67 259.32C188.24 259.32 216.83 259.32 220.41 259.32C222.88 259.32 224.87 257.32 224.87 254.85C224.87 251.27 224.87 222.69 224.87 219.11C224.87 216.64 222.88 214.64 220.41 214.64C213.26 214.64 188.24 214.64 184.67 214.64ZM215.94 250.38L189.14 250.38L189.14 223.58L215.94 223.58L215.94 250.38Z" id="d5fy1inJ3R"></path><path d="M247.21 214.64C244.74 214.64 242.74 216.64 242.74 219.11C242.74 222.69 242.74 251.27 242.74 254.85C242.74 257.32 244.74 259.32 247.21 259.32C250.78 259.32 279.37 259.32 282.95 259.32C285.41 259.32 287.41 257.32 287.41 254.85C287.41 251.27 287.41 222.69 287.41 219.11C287.41 216.64 285.41 214.64 282.95 214.64C275.8 214.64 250.78 214.64 247.21 214.64ZM278.48 250.38L251.68 250.38L251.68 223.58L278.48 223.58L278.48 250.38Z" id="a549sIbJR"></path><path d="M309.75 214.64C307.28 214.64 305.28 216.64 305.28 219.11C305.28 222.69 305.28 251.27 305.28 254.85C305.28 257.32 307.28 259.32 309.75 259.32C313.32 259.32 341.91 259.32 345.48 259.32C347.95 259.32 349.95 257.32 349.95 254.85C349.95 251.27 349.95 222.69 349.95 219.11C349.95 216.64 347.95 214.64 345.48 214.64C338.34 214.64 313.32 214.64 309.75 214.64ZM341.02 250.38L314.21 250.38L314.21 223.58L341.02 223.58L341.02 250.38Z" id="alV7OVS9L"></path><path d="M122.13 272.72C119.66 272.72 117.67 274.71 117.67 277.18C117.67 280.76 117.67 309.35 117.67 312.92C117.67 315.39 119.66 317.39 122.13 317.39C125.71 317.39 154.3 317.39 157.87 317.39C160.34 317.39 162.34 315.39 162.34 312.92C162.34 309.35 162.34 280.76 162.34 277.18C162.34 274.71 160.34 272.72 157.87 272.72C150.72 272.72 125.71 272.72 122.13 272.72ZM133.68 295.05L126.6 302.14L126.6 287.97L133.68 295.05ZM132.92 281.65L147.09 281.65L140 288.73L132.92 281.65ZM140 301.37L147.09 308.45L132.92 308.45L140 301.37ZM146.32 295.05L153.4 287.97L153.4 302.14L146.32 295.05Z" id="h28aLc9WNQ"></path><path d="M184.67 272.72C182.2 272.72 180.2 274.71 180.2 277.18C180.2 280.76 180.2 309.35 180.2 312.92C180.2 315.39 182.2 317.39 184.67 317.39C188.24 317.39 216.83 317.39 220.41 317.39C222.88 317.39 224.87 315.39 224.87 312.92C224.87 309.35 224.87 280.76 224.87 277.18C224.87 274.71 222.88 272.72 220.41 272.72C213.26 272.72 188.24 272.72 184.67 272.72ZM196.22 295.05L189.14 302.14L189.14 287.97L196.22 295.05ZM195.45 281.65L209.62 281.65L202.54 288.73L195.45 281.65ZM202.54 301.37L209.62 308.45L195.45 308.45L202.54 301.37ZM208.86 295.05L215.94 287.97L215.94 302.14L208.86 295.05Z" id="bVSvAni1I"></path><path d="M247.21 272.72C244.74 272.72 242.74 274.71 242.74 277.18C242.74 280.76 242.74 309.35 242.74 312.92C242.74 315.39 244.74 317.39 247.21 317.39C250.78 317.39 279.37 317.39 282.95 317.39C285.41 317.39 287.41 315.39 287.41 312.92C287.41 309.35 287.41 280.76 287.41 277.18C287.41 274.71 285.41 272.72 282.95 272.72C275.8 272.72 250.78 272.72 247.21 272.72ZM258.76 295.05L251.68 302.14L251.68 287.97L258.76 295.05ZM257.99 281.65L272.16 281.65L265.08 288.73L257.99 281.65ZM265.08 301.37L272.16 308.45L257.99 308.45L265.08 301.37ZM271.39 295.05L278.48 287.97L278.48 302.14L271.39 295.05Z" id="a36pDeRu7"></path><path d="M309.75 272.72C307.28 272.72 305.28 274.71 305.28 277.18C305.28 280.76 305.28 309.35 305.28 312.92C305.28 315.39 307.28 317.39 309.75 317.39C313.32 317.39 341.91 317.39 345.48 317.39C347.95 317.39 349.95 315.39 349.95 312.92C349.95 309.35 349.95 280.76 349.95 277.18C349.95 274.71 347.95 272.72 345.48 272.72C338.34 272.72 313.32 272.72 309.75 272.72ZM341.02 308.45L314.21 308.45L314.21 281.65L341.02 281.65L341.02 308.45Z" id="akf76mB7D"></path><path d="M122.13 330.79C119.66 330.79 117.67 332.79 117.67 335.25C117.67 338.83 117.67 367.42 117.67 370.99C117.67 373.46 119.66 375.46 122.13 375.46C125.71 375.46 154.3 375.46 157.87 375.46C160.34 375.46 162.34 373.46 162.34 370.99C162.34 367.42 162.34 338.83 162.34 335.25C162.34 332.79 160.34 330.79 157.87 330.79C150.72 330.79 125.71 330.79 122.13 330.79ZM153.4 366.52L126.6 366.52L126.6 339.72L153.4 339.72L153.4 366.52Z" id="bIcAhd9nP"></path><path d="M184.67 330.79C182.2 330.79 180.2 332.79 180.2 335.25C180.2 338.83 180.2 367.42 180.2 370.99C180.2 373.46 182.2 375.46 184.67 375.46C188.24 375.46 216.83 375.46 220.41 375.46C222.88 375.46 224.87 373.46 224.87 370.99C224.87 367.42 224.87 338.83 224.87 335.25C224.87 332.79 222.88 330.79 220.41 330.79C213.26 330.79 188.24 330.79 184.67 330.79ZM215.94 366.52L189.14 366.52L189.14 339.72L215.94 339.72L215.94 366.52Z" id="a4BMJb8zeY"></path><path d="M247.21 330.79C244.74 330.79 242.74 332.79 242.74 335.25C242.74 338.83 242.74 367.42 242.74 370.99C242.74 373.46 244.74 375.46 247.21 375.46C250.78 375.46 279.37 375.46 282.95 375.46C285.41 375.46 287.41 373.46 287.41 370.99C287.41 367.42 287.41 338.83 287.41 335.25C287.41 332.79 285.41 330.79 282.95 330.79C275.8 330.79 250.78 330.79 247.21 330.79ZM278.48 366.52L251.68 366.52L251.68 339.72L278.48 339.72L278.48 366.52Z" id="c1GKDyY9GL"></path><path d="M388.76 6.7C387.14 6.67 385.52 6.67 383.9 6.7C346 7.47 311.92 27.7 292.73 60.81C273.12 94.66 272.58 135.31 291.3 169.57C299.14 183.91 361.85 298.71 369.69 313.06C369.73 313.12 369.76 313.19 369.8 313.25C373.25 319.24 379.43 322.82 386.33 322.82C393.23 322.82 399.41 319.24 402.86 313.25C402.9 313.19 402.93 313.12 402.97 313.06C410.81 298.71 473.52 183.91 481.36 169.57C500.08 135.31 499.54 94.66 479.93 60.81C460.74 27.7 426.66 7.47 388.76 6.7ZM341.87 105.47C341.87 80.96 361.82 61.01 386.33 61.01C410.84 61.01 430.79 80.96 430.79 105.47C430.79 129.99 410.85 149.93 386.33 149.93C361.82 149.93 341.87 129.99 341.87 105.47Z" id="jj8p0b5nQ"></path></defs><g><g><g><g><use xlink:href="#b1wc62qpCJ" opacity="1" fill="#306000" fill-opacity="1"></use><g><use xlink:href="#b1wc62qpCJ" opacity="1" fill-opacity="0" stroke="#ffffff" stroke-width="0" stroke-opacity="1"></use></g></g><g><use xlink:href="#d5fy1inJ3R" opacity="1" fill="#306000" fill-opacity="1"></use><g><use xlink:href="#d5fy1inJ3R" opacity="1" fill-opacity="0" stroke="#ffffff" stroke-width="0" stroke-opacity="1"></use></g></g><g><use xlink:href="#a549sIbJR" opacity="1" fill="#306000" fill-opacity="1"></use><g><use xlink:href="#a549sIbJR" opacity="1" fill-opacity="0" stroke="#ffffff" stroke-width="0" stroke-opacity="1"></use></g></g><g><use xlink:href="#alV7OVS9L" opacity="1" fill="#306000" fill-opacity="1"></use><g><use xlink:href="#alV7OVS9L" opacity="1" fill-opacity="0" stroke="#ffffff" stroke-width="0" stroke-opacity="1"></use></g></g><g><use xlink:href="#h28aLc9WNQ" opacity="1" fill="#306000" fill-opacity="1"></use><g><use xlink:href="#h28aLc9WNQ" opacity="1" fill-opacity="0" stroke="#ffffff" stroke-width="0" stroke-opacity="1"></use></g></g><g><use xlink:href="#bVSvAni1I" opacity="1" fill="#306000" fill-opacity="1"></use><g><use xlink:href="#bVSvAni1I" opacity="1" fill-opacity="0" stroke="#ffffff" stroke-width="0" stroke-opacity="1"></use></g></g><g><use xlink:href="#a36pDeRu7" opacity="1" fill="#306000" fill-opacity="1"></use><g><use xlink:href="#a36pDeRu7" opacity="1" fill-opacity="0" stroke="#ffffff" stroke-width="0" stroke-opacity="1"></use></g></g><g><use xlink:href="#akf76mB7D" opacity="1" fill="#306000" fill-opacity="1"></use><g><use xlink:href="#akf76mB7D" opacity="1" fill-opacity="0" stroke="#ffffff" stroke-width="0" stroke-opacity="1"></use></g></g><g><use xlink:href="#bIcAhd9nP" opacity="1" fill="#306000" fill-opacity="1"></use><g><use xlink:href="#bIcAhd9nP" opacity="1" fill-opacity="0" stroke="#ffffff" stroke-width="0" stroke-opacity="1"></use></g></g><g><use xlink:href="#a4BMJb8zeY" opacity="1" fill="#306000" fill-opacity="1"></use><g><use xlink:href="#a4BMJb8zeY" opacity="1" fill-opacity="0" stroke="#ffffff" stroke-width="0" stroke-opacity="1"></use></g></g><g><use xlink:href="#c1GKDyY9GL" opacity="1" fill="#306000" fill-opacity="1"></use><g><use xlink:href="#c1GKDyY9GL" opacity="1" fill-opacity="0" stroke="#ffffff" stroke-width="0" stroke-opacity="1"></use></g></g></g><g><use xlink:href="#jj8p0b5nQ" opacity="1" fill="#ff4e4e" fill-opacity="1"></use><g><use xlink:href="#jj8p0b5nQ" opacity="1" fill-opacity="0" stroke="#ffffff" stroke-width="6" stroke-opacity="1"></use></g></g></g></g></svg>