<?xml version="1.0" encoding="UTF-8" standalone="no"?>
<!DOCTYPE svg PUBLIC "-//W3C//DTD SVG 1.1//EN" "http://www.w3.org/Graphics/SVG/1.1/DTD/svg11.dtd">
<svg version="1.1" xmlns="http://www.w3.org/2000/svg" xmlns:xlink="http://www.w3.org/1999/xlink" preserveAspectRatio="xMidYMid meet" viewBox="0 0 600 400" width="600" height="400"><defs><path d="M255.65 25C161.96 25 109.91 25 99.5 25C74.98 24.97 54.84 44.82 54.81 69.35C54.81 84.96 54.81 209.89 54.81 225.5C54.78 250.03 74.63 270.17 99.16 270.2C114.77 270.2 239.7 270.2 255.31 270.2C279.84 270.23 299.96 250.38 300 225.85C300 210.23 300 85.31 300 69.69C300.03 45.16 280.18 25.04 255.65 25" id="f1dmrNzm5J"></path><path d="M266.68 136.82C266.68 96.87 226.63 64.37 177.4 64.37C128.18 64.37 88.13 96.87 88.13 136.82C88.13 172.63 119.89 202.62 162.79 208.29C165.7 208.92 169.66 210.21 170.66 212.7C171.56 214.95 171.25 218.49 170.94 220.77C170.94 220.77 169.9 227.07 169.67 228.41C169.28 230.67 167.88 237.24 177.4 233.22C186.93 229.21 228.82 202.95 247.54 181.39C247.54 181.39 247.54 181.39 247.54 181.39C260.48 167.2 266.68 152.81 266.68 136.82" id="aaL74lNOl"></path><path d="M159.27 117.52C155.51 117.52 153.42 117.52 153 117.52C152.04 117.52 151.26 118.29 151.26 119.25C151.26 123.14 151.26 154.26 151.26 158.15C151.26 159.11 152.04 159.89 153 159.89C153.63 159.89 158.64 159.89 159.27 159.89C160.23 159.89 161 159.11 161 158.15C161 154.26 161 123.14 161 119.25C161 118.29 160.23 117.52 159.27 117.52" id="c1ip9BCdat"></path><path d="M202.37 117.52C198.61 117.52 196.52 117.52 196.1 117.52C195.14 117.52 194.37 118.29 194.37 119.25C194.37 120.79 194.37 128.5 194.37 142.36C183.67 127.92 177.73 119.89 176.54 118.29C176.5 118.23 176.45 118.17 176.4 118.11C176.4 118.11 176.39 118.1 176.39 118.1C176.36 118.06 176.32 118.03 176.29 117.99C176.28 117.98 176.27 117.97 176.26 117.96C176.23 117.94 176.2 117.91 176.16 117.89C176.15 117.87 176.13 117.86 176.12 117.85C176.09 117.83 176.06 117.81 176.03 117.79C176.01 117.78 175.99 117.77 175.98 117.76C175.94 117.74 175.91 117.72 175.88 117.71C175.86 117.7 175.85 117.69 175.83 117.68C175.8 117.66 175.76 117.65 175.73 117.64C175.71 117.63 175.69 117.62 175.67 117.62C175.64 117.61 175.6 117.59 175.57 117.58C175.55 117.58 175.53 117.57 175.51 117.57C175.47 117.56 175.44 117.55 175.41 117.55C175.38 117.54 175.36 117.54 175.34 117.54C175.3 117.53 175.27 117.53 175.24 117.52C175.21 117.52 175.18 117.52 175.15 117.52C175.13 117.52 175.11 117.52 175.09 117.52C174.47 117.52 169.46 117.52 168.83 117.52C167.87 117.52 167.09 118.29 167.09 119.25C167.09 123.14 167.09 154.26 167.09 158.15C167.09 159.11 167.87 159.89 168.83 159.89C169.46 159.89 174.47 159.89 175.09 159.89C176.05 159.89 176.83 159.11 176.83 158.15C176.83 156.61 176.83 148.91 176.83 135.05C187.54 149.51 193.49 157.54 194.68 159.15C194.8 159.33 194.96 159.47 195.12 159.58C195.13 159.58 195.13 159.59 195.14 159.59C195.17 159.62 195.21 159.64 195.25 159.66C195.26 159.67 195.28 159.68 195.3 159.69C195.32 159.7 195.35 159.71 195.38 159.73C195.41 159.74 195.43 159.75 195.46 159.76C195.48 159.77 195.5 159.78 195.52 159.78C195.56 159.8 195.59 159.81 195.63 159.82C195.64 159.82 195.65 159.82 195.66 159.83C195.8 159.86 195.95 159.89 196.1 159.89C196.73 159.89 201.74 159.89 202.37 159.89C203.33 159.89 204.1 159.11 204.1 158.15C204.1 154.26 204.1 123.14 204.1 119.25C204.1 118.29 203.33 117.52 202.37 117.52" id="b6dwGxzuR"></path><path d="M144.17 150.15L127.16 150.15C127.16 131.61 127.16 121.31 127.16 119.25C127.16 118.29 126.38 117.52 125.42 117.52C124.79 117.52 119.78 117.52 119.16 117.52C118.2 117.52 117.42 118.29 117.42 119.25C117.42 121.85 117.42 134.81 117.42 158.15C117.42 158.15 117.42 158.15 117.42 158.15C117.42 158.62 117.6 159.04 117.9 159.35C117.91 159.36 117.92 159.37 117.93 159.38C117.94 159.38 117.95 159.39 117.95 159.4C118.27 159.7 118.69 159.89 119.15 159.89C119.16 159.89 119.16 159.89 119.16 159.89C134.17 159.89 142.5 159.89 144.17 159.89C145.13 159.89 145.91 159.11 145.91 158.15C145.91 157.52 145.91 152.51 145.91 151.88C145.91 150.92 145.13 150.15 144.17 150.15" id="d5c47755ag"></path><path d="M238.68 125.52C238.68 124.89 238.68 119.88 238.68 119.26C238.68 118.3 237.91 117.52 236.95 117.52C235.28 117.52 226.94 117.52 211.93 117.52C211.93 117.52 211.93 117.52 211.93 117.52C211.46 117.52 211.04 117.7 210.72 118.01C210.72 118.01 210.71 118.02 210.7 118.03C210.69 118.04 210.68 118.05 210.67 118.06C210.38 118.37 210.19 118.79 210.19 119.25C210.19 119.25 210.19 119.25 210.19 119.26L210.19 158.15C210.19 158.15 210.19 158.15 210.19 158.15C210.19 158.62 210.38 159.04 210.68 159.35C210.69 159.36 210.69 159.37 210.7 159.38C210.71 159.38 210.72 159.39 210.73 159.4C211.04 159.7 211.46 159.89 211.93 159.89C211.93 159.89 211.93 159.89 211.93 159.89C226.94 159.89 235.28 159.89 236.95 159.89C237.91 159.89 238.68 159.11 238.68 158.15C238.68 157.52 238.68 152.51 238.68 151.88C238.68 150.93 237.91 150.15 236.95 150.15C235.81 150.15 230.14 150.15 219.93 150.15L219.93 143.57C230.14 143.57 235.81 143.57 236.95 143.57C237.91 143.57 238.68 142.79 238.68 141.83C238.68 141.21 238.68 136.2 238.68 135.57C238.68 134.61 237.91 133.83 236.95 133.83C235.81 133.83 230.14 133.83 219.93 133.83L219.93 127.26L236.95 127.26C238.1 126.74 238.68 126.16 238.68 125.52Z" id="b7j0os3lp9"></path><path d="M419.84 126.84C419.84 124.95 419.84 109.84 419.84 107.95C419.84 95.09 409.38 84.62 396.51 84.62C382.1 84.62 266.75 84.62 252.33 84.62C239.46 84.62 229 95.09 229 107.95C229 133.26 229 335.73 229 361.04C229 373.9 239.46 384.37 252.33 384.37C266.75 384.37 382.1 384.37 396.51 384.37C409.38 384.37 419.84 373.9 419.84 361.04C419.84 352.65 419.84 285.52 419.84 277.13C421.97 277.31 424.1 277.42 426.24 277.42C467.83 277.42 501.67 243.58 501.67 201.98C501.67 160.39 467.83 126.55 426.24 126.55C424.08 126.55 421.95 126.66 419.84 126.84ZM338.75 106.94C342.9 106.94 346.26 110.3 346.26 114.45C346.26 118.6 342.9 121.96 338.75 121.96C335.38 121.96 308.38 121.96 305.01 121.96C300.86 121.96 297.49 118.6 297.49 114.45C297.49 110.3 300.86 106.94 305.01 106.94C311.75 106.94 335.38 106.94 338.75 106.94ZM324.42 361.43C320.27 361.43 316.91 358.07 316.91 353.92C316.91 353.42 316.91 350.91 316.91 346.4L331.93 346.4L331.93 353.92C329.69 358.93 327.19 361.43 324.42 361.43ZM244.02 331.38C244.02 218.45 244.02 155.71 244.02 143.16C244.02 138.58 247.75 134.86 252.33 134.86C266.29 134.86 377.96 134.86 391.91 134.86C367.54 147.37 350.8 172.75 350.8 201.98C350.8 210.92 352.35 219.64 355.41 227.96C354.18 232.84 344.29 271.83 343.05 276.7C342.29 279.72 343.17 282.92 345.37 285.12C347.05 286.8 349.3 287.71 351.62 287.71C352.34 287.71 353.07 287.62 353.79 287.44C357.19 286.58 374.2 282.26 404.82 274.5L404.82 331.38L244.02 331.38ZM408.17 256.84C406.57 256.31 404.86 256.25 403.23 256.67C400.6 257.33 387.47 260.66 363.84 266.65C369.48 244.4 372.62 232.04 373.24 229.57C373.71 227.72 373.57 225.77 372.84 224.02C369.95 217.01 368.48 209.6 368.48 201.98C368.48 170.14 394.39 144.23 426.24 144.23C458.08 144.23 483.99 170.14 483.99 201.98C483.99 233.83 458.08 259.74 426.24 259.74C420.09 259.74 414.01 258.76 408.17 256.84Z" id="cdY19pXjT"></path><path d="M417.95 186.37C417.95 182.74 423.92 181.77 427.45 181.77C430.85 181.77 434.89 182.85 437.28 184.39C437.79 184.72 438.4 184.83 438.99 184.71C439.58 184.58 440.09 184.23 440.42 183.72C440.88 183 444.62 177.21 445.09 176.49C445.42 175.98 445.53 175.37 445.4 174.78C445.27 174.19 444.92 173.68 444.42 173.35C441.54 171.49 437.91 170.09 434.02 169.3C434.02 168.59 434.02 162.87 434.02 162.15C434.02 160.9 433.01 159.89 431.75 159.89C430.89 159.89 424 159.89 423.14 159.89C423.14 159.89 423.14 159.89 423.14 159.89C422.54 159.89 421.96 160.13 421.54 160.55C421.11 160.98 420.87 161.55 420.87 162.15C420.87 162.86 420.87 168.54 420.87 169.25C411.05 171.23 404.81 177.79 404.81 186.37C404.81 200.52 416.89 204.18 424.89 206.6C433.7 209.27 434.95 210.43 434.92 213.31C434.92 214.04 434.75 214.91 433.51 215.77C431.88 216.9 429.1 217.54 425.89 217.55C425.87 217.55 425.85 217.55 425.84 217.55C421.66 217.54 416.97 215.66 414.43 212.98C413.57 212.07 412.13 212.03 411.22 212.89C410.6 213.48 405.59 218.21 404.97 218.81C404.06 219.67 404.02 221.1 404.88 222.01C408.83 226.19 414.7 229.19 420.87 230.26C420.87 230.95 420.87 236.48 420.87 237.17C420.87 238.42 421.89 239.43 423.14 239.43C424 239.43 430.89 239.43 431.75 239.43C433 239.43 434.02 238.42 434.02 237.17C434.02 236.42 434.02 230.45 434.02 229.7C436.65 229.01 438.99 227.96 440.99 226.58C445.55 223.42 448.07 218.72 448.07 213.37C448.18 199.92 436.46 196.37 428.7 194.02C419.66 191.28 417.95 190.07 417.95 186.37Z" id="dsluTwS"></path></defs><g><g><g><use xlink:href="#f1dmrNzm5J" opacity="1" fill="#69b121" fill-opacity="1"></use><g><use xlink:href="#f1dmrNzm5J" opacity="1" fill-opacity="0" stroke="#000000" stroke-width="1" stroke-opacity="0"></use></g></g><g><use xlink:href="#aaL74lNOl" opacity="1" fill="#ffffff" fill-opacity="1"></use><g><use xlink:href="#aaL74lNOl" opacity="1" fill-opacity="0" stroke="#000000" stroke-width="1" stroke-opacity="0"></use></g></g><g><use xlink:href="#c1ip9BCdat" opacity="1" fill="#69b121" fill-opacity="1"></use><g><use xlink:href="#c1ip9BCdat" opacity="1" fill-opacity="0" stroke="#000000" stroke-width="1" stroke-opacity="0"></use></g></g><g><use xlink:href="#b6dwGxzuR" opacity="1" fill="#69b121" fill-opacity="1"></use><g><use xlink:href="#b6dwGxzuR" opacity="1" fill-opacity="0" stroke="#000000" stroke-width="1" stroke-opacity="0"></use></g></g><g><use xlink:href="#d5c47755ag" opacity="1" fill="#69b121" fill-opacity="1"></use><g><use xlink:href="#d5c47755ag" opacity="1" fill-opacity="0" stroke="#000000" stroke-width="1" stroke-opacity="0"></use></g></g><g><use xlink:href="#b7j0os3lp9" opacity="1" fill="#69b121" fill-opacity="1"></use><g><use xlink:href="#b7j0os3lp9" opacity="1" fill-opacity="0" stroke="#000000" stroke-width="1" stroke-opacity="0"></use></g></g><g><use xlink:href="#cdY19pXjT" opacity="1" fill="#306000" fill-opacity="1"></use><g><use xlink:href="#cdY19pXjT" opacity="1" fill-opacity="0" stroke="#ffffff" stroke-width="3" stroke-opacity="1"></use></g></g><g><use xlink:href="#dsluTwS" opacity="1" fill="#00b000" fill-opacity="1"></use><g><use xlink:href="#dsluTwS" opacity="1" fill-opacity="0" stroke="#ffffff" stroke-width="7" stroke-opacity="0"></use></g></g></g></g></svg>