<?xml version="1.0" encoding="UTF-8" standalone="no"?>
<!DOCTYPE svg PUBLIC "-//W3C//DTD SVG 1.1//EN" "http://www.w3.org/Graphics/SVG/1.1/DTD/svg11.dtd">
<svg version="1.1" xmlns="http://www.w3.org/2000/svg" xmlns:xlink="http://www.w3.org/1999/xlink" preserveAspectRatio="xMidYMid meet" viewBox="0 0 600 400" width="600" height="400"><defs><path d="M226.71 160.83L366.42 160.83L301.5 262.48L162.76 262.48L226.71 160.83Z" id="a16I3qIX5i"></path><path d="M79.9 161.38L219.6 161.38L154.68 263.03L7.69 265.12L79.9 161.38Z" id="gftAEa2oE"></path><path d="M377.08 203.69C380.71 203.67 383.68 206.61 383.68 210.25C383.68 236.77 383.68 309.74 383.68 336.26C383.68 339.9 380.72 342.86 377.08 342.86C318.77 342.86 150.46 342.86 92.15 342.86C88.51 342.86 85.55 339.9 85.55 336.26C85.55 310.1 85.55 238.25 85.55 212.1C85.55 208.45 88.5 205.48 92.15 205.46C150.46 205.1 318.77 204.05 377.08 203.69Z" id="c1zEz7JWT1"></path><path d="M187.18 342.86C187.18 365.29 168.97 383.51 146.53 383.51C124.09 383.51 105.88 365.29 105.88 342.86C105.88 320.42 124.09 302.2 146.53 302.2C168.97 302.2 187.18 320.42 187.18 342.86Z" id="aSdCQbRpp"></path><path d="M161.31 342.86C161.31 351.02 154.69 357.64 146.53 357.64C138.37 357.64 131.75 351.02 131.75 342.86C131.75 334.7 138.37 328.07 146.53 328.07C154.69 328.07 161.31 334.7 161.31 342.86Z" id="b1szCV67oZ"></path><path d="M429.87 184.68C439.78 184.68 449.04 189.56 454.65 197.73C464.35 211.87 482.96 239 492.28 252.58C499.37 262.92 503.17 275.16 503.17 287.7C503.17 298.64 503.17 313.07 503.17 324.22C503.17 334.24 495.04 342.37 485.02 342.37C464.54 342.37 408.86 342.37 385.28 342.37C383.81 342.37 382.61 341.17 382.61 339.7C382.61 308.7 382.61 226.74 382.61 197.83C382.61 190.57 388.5 184.68 395.76 184.68C405.75 184.68 420.42 184.68 429.87 184.68Z" id="c52OqSQdR9"></path><path d="M431.55 342.86C431.55 365.29 413.33 383.51 390.89 383.51C368.46 383.51 350.24 365.29 350.24 342.86C350.24 320.42 368.46 302.2 390.89 302.2C413.33 302.2 431.55 320.42 431.55 342.86Z" id="b4wT5ECJVf"></path><path d="M405.68 342.86C405.68 351.02 399.05 357.64 390.89 357.64C382.73 357.64 376.11 351.02 376.11 342.86C376.11 334.7 382.73 328.07 390.89 328.07C399.05 328.07 405.68 334.7 405.68 342.86Z" id="beKAyUQNg"></path><path d="M460.73 211.65C461.49 211.65 462.21 212.03 462.64 212.67C468.86 221.82 487.32 249.01 493.67 258.35C493.69 258.4 493.66 258.45 493.62 258.45C474.96 258.45 431.39 258.45 415.8 258.45C407.27 258.45 400.36 251.54 400.36 243.01C400.36 236.74 400.36 229.51 400.36 222.28C400.36 216.41 405.11 211.65 410.98 211.65C421.18 211.65 448.65 211.65 460.73 211.65Z" id="c6snbWBIOs"></path><path d="M149.5 53.77L289.21 53.77L224.29 155.42L85.55 155.42L149.5 53.77Z" id="h3hs5Wluc"></path><path d="M295.02 53.77L434.72 53.77L369.8 155.42L231.06 155.42L295.02 53.77Z" id="c16pbwP5Hz"></path></defs><g><g><g><use xlink:href="#a16I3qIX5i" opacity="1" fill="#79a64b" fill-opacity="1"></use></g><g><use xlink:href="#gftAEa2oE" opacity="1" fill="#79a64b" fill-opacity="1"></use></g><g><use xlink:href="#c1zEz7JWT1" opacity="1" fill="#306000" fill-opacity="1"></use><g><use xlink:href="#c1zEz7JWT1" opacity="1" fill-opacity="0" stroke="#ffffff" stroke-width="6" stroke-opacity="1"></use></g></g><g><use xlink:href="#aSdCQbRpp" opacity="1" fill="#373737" fill-opacity="1"></use><g><use xlink:href="#aSdCQbRpp" opacity="1" fill-opacity="0" stroke="#ffffff" stroke-width="5" stroke-opacity="1"></use></g></g><g><use xlink:href="#b1szCV67oZ" opacity="1" fill="#ffffff" fill-opacity="1"></use><g><use xlink:href="#b1szCV67oZ" opacity="1" fill-opacity="0" stroke="#ffffff" stroke-width="5" stroke-opacity="1"></use></g></g><g><use xlink:href="#c52OqSQdR9" opacity="1" fill="#69b121" fill-opacity="1"></use><g><use xlink:href="#c52OqSQdR9" opacity="1" fill-opacity="0" stroke="#ffffff" stroke-width="5" stroke-opacity="1"></use></g></g><g><use xlink:href="#b4wT5ECJVf" opacity="1" fill="#373737" fill-opacity="1"></use><g><use xlink:href="#b4wT5ECJVf" opacity="1" fill-opacity="0" stroke="#ffffff" stroke-width="5" stroke-opacity="1"></use></g></g><g><use xlink:href="#beKAyUQNg" opacity="1" fill="#ffffff" fill-opacity="1"></use><g><use xlink:href="#beKAyUQNg" opacity="1" fill-opacity="0" stroke="#ffffff" stroke-width="5" stroke-opacity="1"></use></g></g><g><use xlink:href="#c6snbWBIOs" opacity="1" fill="#d6d6d6" fill-opacity="1"></use></g><g><use xlink:href="#h3hs5Wluc" opacity="1" fill="#79a64b" fill-opacity="1"></use></g><g><use xlink:href="#c16pbwP5Hz" opacity="1" fill="#79a64b" fill-opacity="1"></use></g></g></g></svg>