<?xml version="1.0" encoding="utf-8"?>
<!-- Generator: Adobe Illustrator 24.3.0, SVG Export Plug-In . SVG Version: 6.00 Build 0)  -->
<svg version="1.1" id="Layer_1" xmlns="http://www.w3.org/2000/svg" xmlns:xlink="http://www.w3.org/1999/xlink" x="0px" y="0px"
	 viewBox="0 0 1597 800.16" style="enable-background:new 0 0 1597 800.16;" xml:space="preserve">
<style type="text/css">
	.st0{fill:#DEF6FC;}
	.st1{fill:#CDE3FF;}
	.st2{fill:#FFBB35;}
	.st3{fill:#FFD637;}
</style>
<path class="st0" d="M898.98,0.41c0,0-309.36,174.61-118.18,224.73c191.19,50.13,187.4,87.11,45.43,151.83
	S307.57,565.34,409.79,619.66C512.01,673.97,536.62,731.04,247,800.16h1350v-800L898.98,0.41z"/>
<path class="st1" d="M1050.19,65.56c-8.17,1.67-92.52,1.44-118.11,0.98c-9.88-0.46-8.03-21.19,3.99-25.59
	c12.02-4.4,19.95-2.33,19.95-2.33s1.19-28.41,24.43-25.26c23.24,3.15,26.88,25.16,26.88,25.16s13.56-16.29,31.19-6.04
	C1056.14,42.73,1050.19,65.56,1050.19,65.56z"/>
<g>
	<path class="st2" d="M1363.46,102.6c0,7.5-11.32,13.38-13.12,20.29c-1.87,7.16,5.01,18.02,1.46,24.29
		c-3.59,6.36-16.26,5.67-21.3,10.83c-5.04,5.16-4.37,18.12-10.58,21.8c-6.12,3.62-16.74-3.41-23.73-1.5
		c-6.76,1.85-12.5,13.43-19.83,13.43c-7.33,0-13.07-11.58-19.83-13.43c-6.99-1.91-17.61,5.12-23.73,1.5
		c-6.21-3.68-5.54-16.64-10.58-21.8c-5.04-5.16-17.71-4.47-21.3-10.83c-3.54-6.26,3.33-17.13,1.47-24.29
		c-1.81-6.91-13.12-12.79-13.12-20.29c0-7.5,11.32-13.37,13.12-20.29c1.87-7.15-5.01-18.02-1.46-24.29
		c3.59-6.35,16.26-5.67,21.3-10.83c5.04-5.16,4.37-18.12,10.58-21.8c6.12-3.62,16.74,3.41,23.73,1.5
		c6.76-1.85,12.5-13.43,19.83-13.43c7.33,0,13.07,11.58,19.83,13.43c6.99,1.91,17.62-5.12,23.73-1.5
		c6.21,3.68,5.54,16.64,10.58,21.8c5.04,5.16,17.71,4.47,21.3,10.83c3.54,6.26-3.33,17.13-1.47,24.29
		C1352.15,89.23,1363.46,95.11,1363.46,102.6z"/>
	<ellipse class="st3" cx="1276.36" cy="102.6" rx="74.07" ry="75.8"/>
	<path class="st2" d="M1319.79,41.22c8.85,12.49,14.09,27.84,14.09,44.45c0,41.86-33.16,75.8-74.07,75.8
		c-16.23,0-31.23-5.36-43.43-14.41c13.46,18.99,35.3,31.35,59.98,31.35c40.9,0,74.07-33.93,74.07-75.8
		C1350.42,77.35,1338.35,55,1319.79,41.22z"/>
</g>
<path class="st1" d="M1515.96,200.57c-9.31,1.9-105.33,1.64-134.47,1.12c-11.25-0.52-9.15-24.13,4.54-29.13
	c13.69-5,22.71-2.66,22.71-2.66s1.36-32.35,27.82-28.76c26.46,3.59,30.6,28.64,30.6,28.64s15.44-18.54,35.51-6.87
	C1522.72,174.59,1515.96,200.57,1515.96,200.57z"/>
</svg>
