<svg id="Layer_1" data-name="Layer 1" xmlns="http://www.w3.org/2000/svg" viewBox="0 0 495.78 236.24"><defs><style>.cls-1{font-size:138.57px;fill:#42b400;font-family:Quantico-Bold, Quantico;font-weight:700;}.cls-2{fill:#2c7d00;}.cls-3{fill-opacity:0;stroke:#000;stroke-opacity:0;}</style></defs><text class="cls-1" transform="translate(0 185.38)">DinRai</text><path id="br3rQrvb" class="cls-2" d="M131.45,96a.72.72,0,0,1-1.4.26.27.27,0,0,1,0-.12c-.52-3-8.41,2,26.16-27.57Q190.76,39,220.81,9.24l-79.06,109-18.1,1.83L119.19,33Q131,77.58,131.45,96Z" transform="translate(-14.63 -8.88)"/><path id="br3rQrvb-2" data-name="br3rQrvb" class="cls-3" d="M131.45,96a.72.72,0,0,1-1.4.26.27.27,0,0,1,0-.12c-.52-3-8.41,2,26.16-27.57Q190.76,39,220.81,9.24l-79.06,109-18.1,1.83L119.19,33Q131,77.58,131.45,96Z" transform="translate(-14.63 -8.88)"/><path id="a57vAYERh" class="cls-2" d="M420.65,96a.73.73,0,0,1-1.41.26l0-.12c-.51-3-8.4,2,26.17-27.57Q480,39,510,9.24L431,118.24l-18.1,1.83L408.39,33Q420.24,77.58,420.65,96Z" transform="translate(-14.63 -8.88)"/><path id="a57vAYERh-2" data-name="a57vAYERh" class="cls-3" d="M420.65,96a.73.73,0,0,1-1.41.26l0-.12c-.51-3-8.4,2,26.17-27.57Q480,39,510,9.24L431,118.24l-18.1,1.83L408.39,33Q420.24,77.58,420.65,96Z" transform="translate(-14.63 -8.88)"/></svg>